<svg width="512" height="512" viewBox="0 0 512 512" fill="none" xmlns="http://www.w3.org/2000/svg">
<rect width="512" height="512" fill="#F6F7FB"/>
<path d="M73.1888 372.185C73.2123 372.468 73.1746 372.754 73.0783 373.022C72.9819 373.29 72.8292 373.534 72.6304 373.738C72.4388 373.944 72.2064 374.108 71.948 374.219C71.6895 374.33 71.4108 374.386 71.1295 374.383H61.3388C60.8114 374.385 60.3033 374.185 59.9176 373.825C59.5319 373.466 59.2975 372.973 59.262 372.446C58.1975 360.841 50.8501 350.701 47.3073 346.408H32.9093V372.289C32.9153 372.843 32.702 373.376 32.316 373.773C32.1216 373.968 31.8903 374.122 31.6356 374.227C31.3809 374.332 31.108 374.385 30.8325 374.383H21.0943C20.8201 374.386 20.5481 374.334 20.2941 374.23C20.0401 374.127 19.8091 373.974 19.6144 373.781C19.4197 373.588 19.2652 373.359 19.1597 373.105C19.0543 372.852 19 372.581 19 372.307V298.275C19 297.719 19.2206 297.187 19.6134 296.794C20.0061 296.401 20.5388 296.181 21.0943 296.181H48.4592C54.9392 296.181 61.1538 298.755 65.7359 303.337C70.318 307.919 72.8921 314.133 72.8921 320.614V322.149C72.8698 326.218 71.8316 330.217 69.872 333.783C67.9123 337.348 65.0932 340.368 61.6704 342.568C66.4 349.497 72.2988 360.317 73.1888 372.185ZM58.8955 320.544C58.8955 317.767 57.7923 315.103 55.8286 313.139C53.8648 311.176 51.2014 310.072 48.4243 310.072H32.8919V332.481H48.4243C51.2014 332.481 53.8648 331.378 55.8286 329.414C57.7923 327.45 58.8955 324.787 58.8955 322.01V320.544Z" fill="black"/>
<path d="M138.634 362.586V372.324C138.634 372.599 138.58 372.871 138.475 373.126C138.37 373.38 138.215 373.611 138.021 373.805C137.826 373.999 137.596 374.154 137.341 374.259C137.087 374.364 136.815 374.418 136.54 374.418H92.7177C92.1623 374.418 91.6296 374.198 91.2369 373.805C90.8441 373.412 90.6235 372.88 90.6235 372.324V298.275C90.6281 297.722 90.8508 297.194 91.243 296.805C91.6353 296.416 92.1653 296.198 92.7177 296.198H133.66C134.211 296.198 134.739 296.417 135.129 296.806C135.518 297.196 135.737 297.724 135.737 298.275V308.031C135.737 308.581 135.518 309.11 135.129 309.499C134.739 309.889 134.211 310.107 133.66 310.107H104.55V327.559H127.866C128.142 327.558 128.415 327.611 128.669 327.716C128.924 327.821 129.155 327.975 129.35 328.17C129.736 328.561 129.955 329.087 129.961 329.636V339.392C129.955 339.942 129.736 340.467 129.35 340.858C129.155 341.053 128.924 341.208 128.669 341.312C128.415 341.417 128.142 341.47 127.866 341.469H104.55V360.457H136.54C137.095 360.457 137.628 360.677 138.021 361.07C138.414 361.463 138.634 361.996 138.634 362.551V362.586Z" fill="black"/>
<path d="M213.312 298.275V372.324C213.312 372.598 213.258 372.87 213.152 373.123C213.047 373.376 212.892 373.606 212.698 373.799C212.503 373.992 212.272 374.145 212.018 374.248C211.764 374.351 211.492 374.403 211.218 374.401H197.797C197.436 374.384 197.086 374.274 196.78 374.081C196.474 373.888 196.223 373.62 196.052 373.301L168.373 322.045V372.324C168.373 372.598 168.319 372.87 168.213 373.123C168.108 373.376 167.953 373.606 167.758 373.799C167.564 373.992 167.333 374.145 167.079 374.248C166.825 374.351 166.553 374.403 166.279 374.401H156.54C156.266 374.403 155.994 374.351 155.74 374.248C155.486 374.145 155.255 373.992 155.06 373.799C154.866 373.606 154.711 373.376 154.606 373.123C154.5 372.87 154.446 372.598 154.446 372.324V298.275C154.446 297.719 154.667 297.187 155.059 296.794C155.452 296.401 155.985 296.181 156.54 296.181H169.525C169.886 296.198 170.236 296.308 170.542 296.501C170.848 296.693 171.099 296.962 171.27 297.28C175.371 304.802 199.298 348.816 199.298 348.816V298.205C199.298 297.65 199.519 297.117 199.911 296.724C200.304 296.331 200.837 296.111 201.392 296.111H211.131C211.419 296.099 211.706 296.146 211.975 296.25C212.244 296.354 212.489 296.513 212.694 296.716C212.899 296.92 213.059 297.163 213.166 297.431C213.272 297.699 213.322 297.986 213.312 298.275V298.275Z" fill="black"/>
<path d="M291.916 298.275V308.013C291.912 308.568 291.693 309.1 291.305 309.497C291.112 309.693 290.881 309.849 290.626 309.954C290.371 310.059 290.098 310.111 289.822 310.107H266.07V372.324C266.07 372.875 265.851 373.403 265.461 373.793C265.072 374.182 264.544 374.401 263.993 374.401H254.254C253.98 374.403 253.708 374.351 253.454 374.248C253.2 374.145 252.969 373.992 252.775 373.799C252.58 373.606 252.425 373.376 252.32 373.123C252.214 372.87 252.16 372.598 252.16 372.324V310.107H228.408C227.858 310.102 227.332 309.883 226.942 309.497C226.747 309.302 226.592 309.071 226.487 308.816C226.383 308.561 226.329 308.288 226.331 308.013V298.275C226.329 298.001 226.381 297.729 226.484 297.475C226.587 297.221 226.74 296.99 226.933 296.795C227.126 296.6 227.356 296.446 227.609 296.34C227.862 296.235 228.134 296.181 228.408 296.181H289.839C290.114 296.181 290.385 296.235 290.638 296.34C290.891 296.446 291.121 296.6 291.314 296.795C291.507 296.99 291.66 297.221 291.763 297.475C291.866 297.729 291.918 298.001 291.916 298.275V298.275Z" fill="black"/>
<path d="M318.775 298.275V372.307C318.775 372.862 318.554 373.395 318.162 373.788C317.769 374.18 317.236 374.401 316.681 374.401H306.942C306.392 374.401 305.863 374.182 305.474 373.793C305.085 373.403 304.866 372.875 304.866 372.324V298.275C304.863 298.001 304.915 297.729 305.019 297.475C305.122 297.221 305.275 296.99 305.468 296.795C305.661 296.6 305.891 296.446 306.144 296.34C306.397 296.235 306.668 296.181 306.942 296.181H316.681C317.236 296.181 317.769 296.401 318.164 296.791C318.359 296.986 318.514 297.217 318.619 297.472C318.724 297.726 318.777 297.999 318.775 298.275V298.275Z" fill="black"/>
<path d="M161.409 280.177V186.058C161.409 179.421 164.046 173.055 168.739 168.362C173.433 163.668 179.798 161.032 186.436 161.032H420.032C423.319 161.032 426.573 161.679 429.609 162.937C432.646 164.194 435.405 166.038 437.728 168.362C440.052 170.686 441.896 173.444 443.154 176.481C444.411 179.517 445.059 182.771 445.059 186.058V311.207C445.061 314.494 444.414 317.749 443.156 320.785C441.899 323.822 440.054 326.581 437.729 328.904C433.191 333.424 426.943 334.506 420.032 334.506H335.163" stroke="black" stroke-width="7.97" stroke-linejoin="round"/>
<path d="M38.9827 404.925C39.0159 405.026 39.0253 405.134 39.0102 405.24C38.9951 405.346 38.9558 405.447 38.8954 405.536C38.8356 405.629 38.7528 405.705 38.655 405.757C38.5572 405.809 38.4477 405.835 38.337 405.832H37.2375C37.1038 405.839 36.9717 405.802 36.8613 405.726C36.751 405.65 36.6685 405.54 36.6266 405.413L34.4626 399.898H23.6597C22.5602 402.656 21.8273 404.506 21.4957 405.413C21.4481 405.54 21.3619 405.649 21.2491 405.724C21.1364 405.799 21.0028 405.837 20.8674 405.832H19.6632C19.5554 405.832 19.4494 405.804 19.355 405.753C19.2605 405.701 19.1804 405.626 19.1222 405.536C19.0759 405.44 19.0518 405.336 19.0518 405.23C19.0518 405.124 19.0759 405.02 19.1222 404.925C20.7976 400.678 23.6306 393.511 27.6214 383.424C27.6698 383.294 27.7587 383.183 27.875 383.108C27.9913 383.032 28.1288 382.996 28.2671 383.005H30.0123C30.1477 383 30.2813 383.038 30.394 383.113C30.5068 383.188 30.593 383.297 30.6406 383.424C32.4789 388.24 35.2596 395.407 38.9827 404.925ZM24.5672 397.455H33.3806L29.0001 386.286L24.5672 397.455Z" fill="black"/>
<path d="M62.7349 382.604C62.7972 382.665 62.8463 382.739 62.8793 382.82C62.9123 382.901 62.9285 382.988 62.9269 383.075V405.169C62.9245 405.345 62.8559 405.513 62.7349 405.641C62.6022 405.764 62.4276 405.833 62.2463 405.833H61.1468C60.9654 405.833 60.7908 405.764 60.6581 405.641C60.542 405.511 60.4795 405.343 60.4836 405.169V403.302C59.6921 404.259 58.693 405.024 57.5622 405.538C56.4313 406.052 55.1983 406.302 53.9565 406.269C53.1418 406.275 52.341 406.058 51.6399 405.643C50.9389 405.228 50.3641 404.63 49.9774 403.913C48.8866 401.861 48.3796 399.549 48.5114 397.229C48.3977 395.151 48.8693 393.083 49.8727 391.26C50.2978 390.562 50.8989 389.989 51.6157 389.597C52.3324 389.205 53.1397 389.008 53.9565 389.026C55.2408 388.976 56.5164 389.258 57.6598 389.845C58.8032 390.432 59.7759 391.304 60.4836 392.377V383.127C60.4787 383.041 60.4917 382.955 60.5217 382.873C60.5517 382.792 60.5982 382.718 60.6581 382.656C60.7216 382.592 60.7979 382.541 60.882 382.508C60.9662 382.475 61.0564 382.46 61.1468 382.464H62.2463C62.3329 382.453 62.4209 382.46 62.5049 382.484C62.5889 382.508 62.6671 382.549 62.7349 382.604V382.604ZM60.4836 400.597V395.257C60.346 394.905 60.1579 394.576 59.9251 394.279C59.6018 393.824 59.2335 393.403 58.8256 393.023C58.3154 392.536 57.725 392.14 57.0804 391.853C56.3381 391.532 55.5326 391.383 54.7244 391.417C54.1628 391.401 53.6078 391.541 53.121 391.821C52.6342 392.101 52.2347 392.511 51.967 393.005C51.279 394.284 50.9531 395.726 51.0245 397.176C51.0056 398.354 51.1525 399.529 51.4608 400.667C51.6712 401.526 52.1046 402.315 52.7174 402.953C53.2478 403.461 53.9551 403.743 54.6895 403.738C55.4788 403.736 56.2626 403.606 57.0106 403.354C57.6354 403.127 58.2234 402.81 58.7558 402.412C59.1596 402.098 59.5388 401.754 59.8902 401.382C60.1165 401.143 60.3156 400.88 60.4836 400.597Z" fill="black"/>
<path d="M77.3774 391.836C77.9704 391.011 78.7027 390.296 79.5415 389.724C80.4236 389.191 81.4435 388.929 82.4734 388.973C83.07 388.965 83.6626 389.071 84.2186 389.288C84.6946 389.466 85.1327 389.732 85.5101 390.073C85.8242 390.387 86.1209 390.684 86.3827 390.998C86.5859 391.229 86.7562 391.488 86.8888 391.766L87.0808 392.115C87.1056 392.046 87.141 391.981 87.1855 391.923L87.5869 391.469C87.7963 391.242 88.0232 391.033 88.2326 390.841C88.5093 390.602 88.8008 390.38 89.1052 390.178C89.4562 389.942 89.8237 389.732 90.2047 389.549C90.624 389.357 91.0628 389.211 91.5136 389.113C91.998 388.99 92.4983 388.943 92.9971 388.973C93.7782 388.978 94.544 389.191 95.2158 389.589C95.8875 389.988 96.4409 390.559 96.8191 391.242C97.8274 393.051 98.3053 395.108 98.1978 397.176V405.169C98.2018 405.343 98.1394 405.511 98.0233 405.64C97.8959 405.761 97.7277 405.83 97.5521 405.832H96.4526C96.2797 405.828 96.1155 405.756 95.9949 405.632C95.8743 405.508 95.8068 405.342 95.8068 405.169V397.176C95.8068 396.408 95.8068 395.826 95.8068 395.431C95.7841 394.979 95.7257 394.53 95.6323 394.087C95.5418 393.646 95.3828 393.222 95.1611 392.83C94.9328 392.399 94.5912 392.037 94.1731 391.785C93.7549 391.533 93.2759 391.4 92.7876 391.399C91.9977 391.362 91.2128 391.544 90.5189 391.923C89.8355 392.229 89.2366 392.696 88.7736 393.284C88.3336 393.87 87.9809 394.517 87.7265 395.204V405.186C87.7301 405.327 87.6803 405.465 87.5869 405.57V405.57C87.4774 405.657 87.3427 405.706 87.203 405.71H85.9988C85.8643 405.706 85.7351 405.657 85.6323 405.57V405.57C85.5379 405.46 85.472 405.328 85.4403 405.186V397.158C85.4403 396.391 85.4403 395.815 85.4403 395.413C85.4329 394.961 85.3803 394.511 85.2832 394.069C85.1927 393.629 85.0337 393.205 84.812 392.813C84.5793 392.385 84.2367 392.027 83.8195 391.775C83.4024 391.524 82.9256 391.388 82.4385 391.382C81.6431 391.346 80.8529 391.527 80.1523 391.905C79.4704 392.214 78.872 392.68 78.4071 393.267C77.9717 393.85 77.6301 394.498 77.3949 395.186V405.134C77.3989 405.308 77.3365 405.476 77.2203 405.605C77.093 405.726 76.9248 405.795 76.7491 405.797H75.4577C75.2763 405.798 75.1017 405.729 74.969 405.605C74.848 405.478 74.7795 405.31 74.777 405.134V389.986C74.777 389.897 74.7947 389.809 74.8291 389.728C74.8636 389.646 74.914 389.572 74.9774 389.51C75.0409 389.449 75.116 389.4 75.1985 389.368C75.281 389.336 75.3691 389.32 75.4577 389.322H76.5746C76.6593 389.322 76.7431 389.339 76.8211 389.372C76.8991 389.405 76.9696 389.454 77.0284 389.514C77.0906 389.576 77.1397 389.649 77.1727 389.73C77.2057 389.811 77.2219 389.898 77.2203 389.986V392.08C77.2639 391.993 77.3166 391.911 77.3774 391.836V391.836Z" fill="black"/>
<path d="M111.601 383.145C111.775 383.149 111.942 383.22 112.065 383.344C112.188 383.467 112.26 383.633 112.264 383.808V385.553C112.261 385.636 112.24 385.718 112.204 385.793C112.168 385.868 112.117 385.935 112.055 385.989C111.934 386.109 111.771 386.178 111.601 386.181H110.536C110.361 386.179 110.192 386.11 110.065 385.989C109.949 385.873 109.881 385.717 109.873 385.553V383.808C109.872 383.72 109.888 383.633 109.921 383.552C109.954 383.471 110.003 383.398 110.065 383.337C110.126 383.273 110.199 383.224 110.28 383.191C110.362 383.158 110.449 383.142 110.536 383.145H111.601ZM111.601 389.323C111.775 389.327 111.942 389.398 112.065 389.522C112.188 389.645 112.26 389.811 112.264 389.986V405.134C112.263 405.223 112.244 405.311 112.208 405.392C112.172 405.473 112.12 405.546 112.055 405.605C111.934 405.725 111.771 405.794 111.601 405.797H110.536C110.36 405.797 110.192 405.728 110.067 405.603C109.943 405.479 109.873 405.31 109.873 405.134V389.986C109.872 389.898 109.888 389.811 109.921 389.73C109.954 389.649 110.003 389.576 110.065 389.515C110.127 389.455 110.201 389.408 110.283 389.378C110.364 389.348 110.45 389.335 110.536 389.34L111.601 389.323Z" fill="black"/>
<path d="M132.02 388.974C132.782 388.974 133.528 389.183 134.18 389.577C134.832 389.97 135.365 390.534 135.72 391.208C136.681 393.044 137.127 395.107 137.011 397.176V405.169C137.014 405.257 136.998 405.344 136.965 405.425C136.932 405.506 136.882 405.58 136.819 405.64C136.758 405.703 136.685 405.752 136.604 405.785C136.523 405.818 136.436 405.834 136.348 405.832H135.231C135.055 405.832 134.887 405.763 134.762 405.638C134.638 405.514 134.568 405.345 134.568 405.169V395.867C134.59 395.507 134.59 395.146 134.568 394.785C134.545 394.411 134.475 394.042 134.359 393.686C134.281 393.386 134.151 393.103 133.975 392.848C133.745 392.418 133.403 392.057 132.985 391.805C132.567 391.553 132.089 391.419 131.601 391.417C131.055 391.388 130.509 391.471 129.996 391.661C129.499 391.826 129.029 392.061 128.599 392.359C128.229 392.623 127.899 392.941 127.622 393.302C127.2 393.893 126.859 394.539 126.61 395.221V405.169C126.609 405.258 126.59 405.346 126.554 405.427C126.518 405.508 126.466 405.58 126.4 405.64C126.279 405.76 126.117 405.829 125.947 405.832H124.83C124.654 405.832 124.485 405.763 124.361 405.638C124.236 405.514 124.167 405.345 124.167 405.169V390.021C124.165 389.933 124.181 389.846 124.214 389.765C124.247 389.684 124.296 389.611 124.359 389.55C124.419 389.486 124.493 389.437 124.574 389.404C124.655 389.371 124.742 389.355 124.83 389.358H125.947C126.123 389.358 126.291 389.427 126.416 389.552C126.54 389.676 126.61 389.845 126.61 390.021V392.115C126.657 392.015 126.715 391.922 126.784 391.836C127.351 390.962 128.127 390.243 129.041 389.744C129.955 389.244 130.979 388.979 132.02 388.974V388.974Z" fill="black"/>
<path d="M150.38 383.145C150.554 383.149 150.72 383.22 150.844 383.344C150.967 383.467 151.038 383.633 151.043 383.808V385.553C151.039 385.636 151.019 385.718 150.983 385.793C150.947 385.868 150.896 385.935 150.833 385.989C150.712 386.109 150.55 386.178 150.38 386.181H149.263C149.087 386.179 148.919 386.11 148.791 385.989C148.676 385.873 148.607 385.717 148.599 385.553V383.808C148.598 383.72 148.614 383.633 148.647 383.552C148.68 383.471 148.729 383.398 148.791 383.337C148.852 383.273 148.926 383.224 149.007 383.191C149.088 383.158 149.175 383.142 149.263 383.145H150.38ZM150.38 389.323C150.554 389.327 150.72 389.398 150.844 389.522C150.967 389.645 151.038 389.811 151.043 389.986V405.134C151.042 405.223 151.023 405.311 150.987 405.392C150.951 405.473 150.899 405.546 150.833 405.605C150.712 405.725 150.55 405.794 150.38 405.797H149.263C149.087 405.797 148.918 405.728 148.794 405.603C148.669 405.479 148.599 405.31 148.599 405.134V389.986C148.598 389.898 148.614 389.811 148.647 389.73C148.68 389.649 148.729 389.576 148.791 389.515C148.852 389.452 148.926 389.402 149.007 389.369C149.088 389.336 149.175 389.32 149.263 389.323H150.38Z" fill="black"/>
<path d="M172.439 398.537C172.89 398.842 173.26 399.253 173.515 399.734C173.771 400.214 173.905 400.75 173.905 401.295C173.902 401.972 173.744 402.639 173.441 403.244C173.138 403.85 172.7 404.377 172.16 404.785C170.993 405.774 169.501 406.296 167.971 406.251C167.053 406.227 166.142 406.074 165.266 405.797C164.299 405.505 163.385 405.057 162.561 404.471C162.488 404.418 162.427 404.35 162.382 404.272C162.337 404.194 162.309 404.107 162.3 404.017C162.296 403.841 162.351 403.669 162.457 403.529C162.771 403.18 163.015 402.9 163.224 402.691C163.268 402.619 163.328 402.557 163.399 402.511C163.471 402.465 163.551 402.436 163.635 402.426C163.719 402.416 163.805 402.425 163.885 402.453C163.965 402.481 164.037 402.526 164.097 402.586C165.232 403.383 166.585 403.81 167.971 403.808C168.566 403.815 169.157 403.714 169.717 403.511C170.211 403.338 170.65 403.037 170.991 402.639C171.299 402.272 171.466 401.808 171.462 401.33C171.462 400.946 171.183 400.597 170.624 400.248C169.66 399.775 168.655 399.389 167.622 399.096C166.395 398.727 165.222 398.199 164.132 397.525C163.523 397.144 163.021 396.613 162.673 395.985C162.325 395.356 162.142 394.649 162.142 393.93C162.149 393.254 162.31 392.588 162.612 391.983C162.914 391.379 163.351 390.851 163.888 390.44C165.057 389.455 166.548 388.933 168.076 388.974C168.996 388.988 169.908 389.141 170.781 389.427C171.756 389.701 172.673 390.151 173.486 390.754C173.567 390.798 173.634 390.864 173.681 390.944C173.727 391.024 173.75 391.115 173.748 391.208C173.757 391.295 173.747 391.384 173.72 391.468C173.693 391.552 173.649 391.63 173.591 391.696L172.788 392.569C172.694 392.696 172.554 392.782 172.398 392.808C172.241 392.834 172.081 392.798 171.951 392.708C170.802 391.925 169.464 391.467 168.076 391.382C167.206 391.354 166.35 391.605 165.633 392.098C165.334 392.283 165.085 392.54 164.909 392.844C164.732 393.148 164.633 393.491 164.621 393.843C164.653 394.252 164.797 394.644 165.037 394.976C165.277 395.309 165.604 395.569 165.982 395.728L167.099 396.234L168.635 396.775L169.856 397.194C170.781 397.507 171.652 397.96 172.439 398.537V398.537Z" fill="black"/>
<path d="M192.998 404.611C193.067 404.784 193.067 404.978 192.998 405.152C192.965 405.238 192.914 405.315 192.848 405.379C192.781 405.442 192.701 405.49 192.614 405.518C191.643 405.98 190.582 406.218 189.507 406.216C188.454 406.153 187.46 405.706 186.715 404.96C186.059 404.207 185.71 403.235 185.738 402.237V391.522H184.446C184.27 391.522 184.101 391.452 183.977 391.327C183.853 391.203 183.783 391.034 183.783 390.858V389.776C183.781 389.689 183.797 389.602 183.83 389.521C183.863 389.44 183.913 389.367 183.975 389.305C184.036 389.242 184.109 389.192 184.19 389.159C184.271 389.126 184.358 389.111 184.446 389.113H185.738V384.82C185.736 384.733 185.752 384.646 185.785 384.565C185.818 384.484 185.867 384.41 185.929 384.349C185.99 384.286 186.064 384.236 186.145 384.203C186.226 384.17 186.313 384.154 186.401 384.157H187.483C187.659 384.157 187.827 384.227 187.952 384.351C188.076 384.475 188.146 384.644 188.146 384.82V389.113H192.09C192.266 389.113 192.435 389.183 192.559 389.307C192.683 389.432 192.753 389.6 192.753 389.776V390.858C192.756 390.946 192.74 391.033 192.707 391.114C192.674 391.195 192.624 391.269 192.561 391.33C192.5 391.392 192.426 391.441 192.345 391.474C192.264 391.507 192.178 391.523 192.09 391.522H188.146V402.237C188.123 402.618 188.248 402.993 188.495 403.284C188.828 403.593 189.263 403.767 189.717 403.773C190.396 403.753 191.063 403.586 191.671 403.284C191.748 403.25 191.831 403.232 191.916 403.232C192 403.232 192.083 403.25 192.16 403.284C192.241 403.306 192.315 403.348 192.376 403.406C192.437 403.464 192.483 403.536 192.509 403.616C192.649 403.878 192.823 404.209 192.998 404.611Z" fill="black"/>
<path d="M212.02 389.009C212.101 389.014 212.179 389.036 212.251 389.071C212.323 389.107 212.387 389.157 212.439 389.218C212.5 389.276 212.547 389.347 212.577 389.426C212.607 389.504 212.62 389.588 212.614 389.672V390.858C212.617 390.963 212.595 391.067 212.55 391.161C212.504 391.256 212.436 391.337 212.352 391.399C212.269 391.458 212.176 391.498 212.077 391.519C211.978 391.54 211.875 391.541 211.776 391.522C211.562 391.45 211.338 391.415 211.113 391.417C210.317 391.404 209.544 391.677 208.931 392.185C208.27 392.681 207.682 393.269 207.186 393.93C206.751 394.513 206.409 395.161 206.174 395.85V405.134C206.173 405.223 206.154 405.311 206.118 405.392C206.082 405.473 206.03 405.546 205.965 405.605C205.844 405.725 205.681 405.794 205.511 405.797H204.394C204.218 405.797 204.049 405.728 203.925 405.603C203.801 405.479 203.731 405.31 203.731 405.134V389.986C203.729 389.898 203.745 389.812 203.778 389.731C203.811 389.65 203.86 389.576 203.923 389.515C203.983 389.452 204.057 389.402 204.138 389.369C204.219 389.336 204.306 389.32 204.394 389.323H205.511C205.687 389.323 205.855 389.393 205.98 389.517C206.104 389.641 206.174 389.81 206.174 389.986V392.08C206.22 391.98 206.279 391.886 206.349 391.801C206.916 390.927 207.691 390.208 208.605 389.709C209.519 389.209 210.543 388.944 211.584 388.939C211.732 388.939 211.88 388.963 212.02 389.009V389.009Z" fill="black"/>
<path d="M234.534 403.494C234.541 404.079 234.599 404.663 234.708 405.239C234.727 405.312 234.727 405.388 234.709 405.462C234.69 405.535 234.654 405.602 234.603 405.658C234.557 405.715 234.499 405.76 234.432 405.79C234.365 405.821 234.293 405.835 234.219 405.832H232.858C232.72 405.837 232.586 405.79 232.482 405.699C232.378 405.608 232.313 405.481 232.3 405.344C232.161 404.69 232.091 404.023 232.09 403.354V403.145C231.446 404.072 230.592 404.834 229.597 405.368C228.602 405.901 227.495 406.192 226.366 406.216C225.099 406.245 223.863 405.824 222.876 405.03C222.347 404.552 221.932 403.963 221.66 403.305C221.388 402.647 221.267 401.936 221.305 401.225C221.275 400.085 221.631 398.968 222.315 398.056C223 397.144 223.972 396.489 225.075 396.199C225.566 396.015 226.067 395.858 226.575 395.728C227.105 395.581 227.65 395.493 228.198 395.466C228.792 395.466 229.228 395.466 229.49 395.466C229.752 395.466 230.24 395.466 230.921 395.466H232.16V393.476C232.164 393.193 232.1 392.914 231.972 392.662C231.845 392.409 231.657 392.192 231.427 392.028C230.804 391.63 230.071 391.441 229.333 391.487C228.394 391.475 227.462 391.653 226.593 392.01C225.839 392.304 225.19 392.814 224.725 393.476C224.691 393.547 224.642 393.609 224.582 393.66C224.522 393.711 224.452 393.749 224.377 393.772C224.302 393.795 224.223 393.802 224.144 393.793C224.066 393.784 223.991 393.76 223.923 393.721L222.876 393.267C222.791 393.231 222.715 393.179 222.652 393.113C222.589 393.047 222.54 392.969 222.509 392.883C222.439 392.703 222.439 392.504 222.509 392.324C223.19 391.299 224.137 390.479 225.249 389.951C226.501 389.33 227.883 389.019 229.28 389.043C230.684 388.963 232.066 389.411 233.155 390.3C233.613 390.689 233.977 391.177 234.219 391.727C234.461 392.277 234.575 392.876 234.551 393.476L234.534 403.494ZM232.09 400.841V397.141C230.396 397.074 228.699 397.191 227.029 397.49C226.117 397.659 225.285 398.118 224.656 398.799C224.028 399.451 223.677 400.32 223.678 401.225C223.646 401.582 223.692 401.941 223.813 402.279C223.933 402.616 224.126 402.924 224.376 403.18C224.951 403.602 225.654 403.812 226.366 403.773C227.466 403.749 228.547 403.474 229.525 402.97C230.539 402.478 231.42 401.748 232.09 400.841Z" fill="black"/>
<path d="M254.15 404.611C254.219 404.784 254.219 404.978 254.15 405.152C254.118 405.238 254.066 405.315 254 405.379C253.933 405.442 253.853 405.49 253.766 405.518C252.795 405.98 251.734 406.218 250.659 406.216C249.606 406.153 248.613 405.706 247.867 404.96C247.211 404.207 246.863 403.235 246.89 402.237V391.522H245.598C245.422 391.522 245.254 391.452 245.129 391.327C245.005 391.203 244.935 391.034 244.935 390.858V389.776C244.934 389.689 244.95 389.602 244.983 389.521C245.016 389.44 245.065 389.367 245.127 389.305C245.188 389.242 245.261 389.192 245.342 389.159C245.424 389.126 245.511 389.111 245.598 389.113H246.89V384.82C246.888 384.733 246.904 384.646 246.937 384.565C246.97 384.484 247.02 384.41 247.082 384.349C247.143 384.286 247.216 384.236 247.297 384.203C247.378 384.17 247.465 384.154 247.553 384.157H248.635C248.811 384.157 248.98 384.227 249.104 384.351C249.228 384.475 249.298 384.644 249.298 384.82V389.113H253.242C253.418 389.113 253.587 389.183 253.711 389.307C253.836 389.432 253.906 389.6 253.906 389.776V390.858C253.908 390.946 253.892 391.033 253.859 391.114C253.826 391.195 253.777 391.269 253.714 391.33C253.652 391.392 253.579 391.441 253.498 391.474C253.417 391.507 253.33 391.523 253.242 391.522H249.298V402.237C249.276 402.618 249.401 402.993 249.647 403.284C249.98 403.593 250.415 403.767 250.869 403.773C251.548 403.753 252.215 403.586 252.824 403.284C252.9 403.25 252.984 403.232 253.068 403.232C253.152 403.232 253.235 403.25 253.312 403.284C253.393 403.306 253.468 403.348 253.529 403.406C253.59 403.464 253.635 403.536 253.661 403.616C253.801 403.878 253.975 404.209 254.15 404.611Z" fill="black"/>
<path d="M266.611 383.145C266.785 383.149 266.951 383.22 267.075 383.344C267.198 383.467 267.269 383.633 267.274 383.808V385.553C267.27 385.636 267.25 385.718 267.214 385.793C267.178 385.868 267.127 385.935 267.064 385.989C266.943 386.109 266.781 386.178 266.611 386.181H265.494C265.318 386.179 265.15 386.11 265.022 385.989C264.907 385.873 264.838 385.717 264.831 385.553V383.808C264.829 383.72 264.845 383.633 264.878 383.552C264.911 383.471 264.96 383.398 265.022 383.337C265.083 383.273 265.157 383.224 265.238 383.191C265.319 383.158 265.406 383.142 265.494 383.145H266.611ZM266.611 389.323C266.785 389.327 266.951 389.398 267.075 389.522C267.198 389.645 267.269 389.811 267.274 389.986V405.134C267.273 405.223 267.254 405.311 267.218 405.392C267.182 405.473 267.13 405.546 267.064 405.605C266.943 405.725 266.781 405.794 266.611 405.797H265.494C265.318 405.797 265.149 405.728 265.025 405.603C264.9 405.479 264.831 405.31 264.831 405.134V389.986C264.829 389.898 264.845 389.811 264.878 389.73C264.911 389.649 264.96 389.576 265.022 389.515C265.083 389.452 265.157 389.402 265.238 389.369C265.319 389.336 265.406 389.32 265.494 389.323H266.611Z" fill="black"/>
<path d="M292.23 396.792V398.153C292.23 398.242 292.211 398.33 292.175 398.411C292.139 398.492 292.086 398.564 292.021 398.624C291.9 398.744 291.737 398.813 291.567 398.816H280.956C280.932 400.244 281.471 401.623 282.457 402.656C283.673 403.492 285.139 403.886 286.611 403.773C287.722 403.774 288.807 403.433 289.717 402.795C289.767 402.727 289.833 402.671 289.909 402.633C289.985 402.594 290.069 402.574 290.154 402.574C290.239 402.574 290.322 402.594 290.398 402.633C290.474 402.671 290.54 402.727 290.59 402.795C290.729 402.935 290.991 403.214 291.358 403.633C291.419 403.701 291.465 403.781 291.492 403.869C291.519 403.956 291.527 404.049 291.515 404.139C291.514 404.234 291.49 404.326 291.445 404.409C291.399 404.491 291.333 404.56 291.253 404.61C289.913 405.612 288.284 406.151 286.611 406.146C284.555 406.27 282.524 405.65 280.886 404.401C279.999 403.484 279.324 402.384 278.907 401.178C278.491 399.972 278.345 398.689 278.478 397.42V397.42C278.247 394.997 278.946 392.576 280.433 390.649C281.082 390.03 281.854 389.555 282.699 389.254C283.544 388.953 284.443 388.834 285.337 388.904C286.236 388.834 287.14 388.954 287.991 389.254C288.841 389.555 289.619 390.03 290.276 390.649C291.677 392.378 292.374 394.571 292.23 396.792ZM280.956 396.792H289.822C289.931 395.24 289.472 393.702 288.531 392.464C288.116 392.068 287.62 391.766 287.078 391.579C286.536 391.392 285.96 391.325 285.389 391.382C284.813 391.33 284.233 391.4 283.686 391.586C283.139 391.773 282.637 392.072 282.213 392.464C281.285 393.707 280.839 395.245 280.956 396.792V396.792Z" fill="black"/>
<path d="M316.471 404.82C316.54 404.917 316.577 405.033 316.577 405.152C316.577 405.271 316.54 405.386 316.471 405.483C316.42 405.592 316.338 405.682 316.236 405.744C316.134 405.807 316.015 405.837 315.896 405.832H314.569C314.457 405.833 314.346 405.805 314.248 405.75C314.15 405.694 314.068 405.615 314.011 405.518L308.147 396.548L306.053 398.607V405.169C306.052 405.258 306.033 405.346 305.997 405.427C305.961 405.508 305.909 405.581 305.843 405.64C305.722 405.76 305.56 405.829 305.389 405.832H304.255C304.079 405.832 303.91 405.763 303.786 405.638C303.662 405.514 303.592 405.345 303.592 405.169V383.075C303.59 382.987 303.606 382.901 303.639 382.82C303.672 382.739 303.722 382.665 303.784 382.604C303.84 382.531 303.911 382.472 303.992 382.429C304.074 382.387 304.163 382.363 304.255 382.359H305.372C305.548 382.359 305.717 382.429 305.841 382.554C305.965 382.678 306.035 382.847 306.035 383.023V395.239C309.211 392.115 311.131 390.213 311.829 389.55C311.889 389.491 311.96 389.445 312.038 389.415C312.116 389.385 312.199 389.372 312.283 389.375H313.854C313.987 389.376 314.117 389.415 314.228 389.489C314.339 389.563 314.426 389.667 314.478 389.79C314.53 389.913 314.545 390.048 314.521 390.179C314.497 390.31 314.435 390.431 314.342 390.527L309.875 394.855C312.981 399.654 315.232 402.97 316.471 404.82Z" fill="black"/>
<path d="M339.316 403.494C339.323 404.079 339.382 404.663 339.491 405.239C339.509 405.312 339.51 405.388 339.491 405.462C339.473 405.535 339.437 405.602 339.386 405.658C339.34 405.715 339.281 405.76 339.215 405.79C339.148 405.821 339.075 405.835 339.002 405.832H337.641C337.503 405.837 337.368 405.79 337.264 405.699C337.161 405.608 337.095 405.481 337.082 405.344C336.944 404.69 336.873 404.023 336.873 403.354V403.145C336.229 404.072 335.374 404.834 334.379 405.368C333.384 405.901 332.277 406.192 331.149 406.216C329.882 406.245 328.645 405.824 327.658 405.03C327.13 404.552 326.714 403.963 326.442 403.305C326.171 402.647 326.049 401.936 326.087 401.225C326.058 400.085 326.414 398.968 327.098 398.056C327.782 397.144 328.754 396.489 329.857 396.199C330.349 396.015 330.85 395.858 331.358 395.728C331.888 395.581 332.432 395.493 332.981 395.466C333.574 395.466 334.011 395.466 334.272 395.466C334.534 395.466 335.023 395.466 335.704 395.466H336.943V393.476C336.947 393.193 336.882 392.914 336.755 392.662C336.627 392.409 336.44 392.192 336.21 392.028C335.586 391.63 334.853 391.441 334.115 391.487C333.176 391.475 332.244 391.653 331.375 392.01C330.622 392.304 329.972 392.814 329.508 393.476C329.473 393.547 329.424 393.609 329.364 393.66C329.304 393.711 329.235 393.749 329.159 393.772C329.084 393.795 329.005 393.802 328.927 393.793C328.849 393.784 328.773 393.76 328.705 393.721L327.658 393.267C327.574 393.231 327.498 393.179 327.435 393.113C327.372 393.047 327.323 392.969 327.292 392.883C327.221 392.703 327.221 392.504 327.292 392.324C327.973 391.299 328.92 390.479 330.032 389.951C331.283 389.33 332.666 389.019 334.063 389.043C335.466 388.963 336.848 389.411 337.937 390.3C338.396 390.689 338.76 391.177 339.002 391.727C339.244 392.277 339.357 392.876 339.334 393.476L339.316 403.494ZM336.873 400.841V397.141C335.178 397.074 333.481 397.191 331.812 397.49C330.9 397.659 330.067 398.118 329.438 398.799C328.81 399.451 328.46 400.32 328.461 401.225C328.429 401.582 328.475 401.941 328.595 402.279C328.716 402.616 328.908 402.924 329.159 403.18C329.733 403.602 330.437 403.812 331.149 403.773C332.249 403.749 333.329 403.474 334.307 402.97C335.322 402.478 336.202 401.748 336.873 400.841Z" fill="black"/>
<path d="M359.072 388.974C359.833 388.974 360.58 389.183 361.232 389.577C361.884 389.97 362.416 390.534 362.772 391.208C363.733 393.044 364.179 395.107 364.063 397.176V405.169C364.066 405.257 364.05 405.344 364.017 405.425C363.984 405.506 363.934 405.58 363.871 405.64C363.81 405.703 363.736 405.752 363.655 405.785C363.574 405.818 363.487 405.834 363.4 405.832H362.283C362.107 405.832 361.939 405.763 361.814 405.638C361.69 405.514 361.62 405.345 361.62 405.169V395.867C361.642 395.507 361.642 395.146 361.62 394.785C361.597 394.411 361.527 394.042 361.41 393.686C361.333 393.386 361.203 393.103 361.027 392.848C360.797 392.418 360.455 392.057 360.037 391.805C359.619 391.553 359.141 391.419 358.653 391.417C358.107 391.388 357.56 391.471 357.047 391.661C356.551 391.826 356.081 392.061 355.651 392.359C355.28 392.623 354.951 392.941 354.674 393.302C354.251 393.893 353.911 394.539 353.662 395.221V405.169C353.661 405.258 353.642 405.346 353.606 405.427C353.57 405.508 353.518 405.58 353.452 405.64C353.331 405.76 353.169 405.829 352.999 405.832H351.882C351.706 405.832 351.537 405.763 351.413 405.638C351.288 405.514 351.218 405.345 351.218 405.169V390.021C351.217 389.933 351.233 389.846 351.266 389.765C351.299 389.684 351.348 389.611 351.41 389.55C351.471 389.486 351.545 389.437 351.626 389.404C351.707 389.371 351.794 389.355 351.882 389.358H352.999C353.174 389.358 353.343 389.427 353.468 389.552C353.592 389.676 353.662 389.845 353.662 390.021V392.115C353.709 392.015 353.767 391.922 353.836 391.836C354.403 390.962 355.179 390.243 356.093 389.744C357.007 389.244 358.03 388.979 359.072 388.974V388.974Z" fill="black"/>
<path d="M383.435 404.611C383.504 404.784 383.504 404.978 383.435 405.152C383.403 405.238 383.352 405.315 383.285 405.379C383.219 405.442 383.139 405.49 383.051 405.518C382.081 405.98 381.019 406.218 379.945 406.216C378.892 406.153 377.898 405.706 377.152 404.96C376.497 404.207 376.148 403.235 376.175 402.237V391.522H374.884C374.708 391.522 374.539 391.452 374.415 391.327C374.29 391.203 374.22 391.034 374.22 390.858V389.776C374.219 389.689 374.235 389.602 374.268 389.521C374.301 389.44 374.35 389.367 374.412 389.305C374.473 389.242 374.547 389.192 374.628 389.159C374.709 389.126 374.796 389.111 374.884 389.113H376.175V384.82C376.174 384.733 376.19 384.646 376.223 384.565C376.256 384.484 376.305 384.41 376.367 384.349C376.428 384.286 376.501 384.236 376.582 384.203C376.664 384.17 376.751 384.154 376.838 384.157H377.92C378.096 384.157 378.265 384.227 378.389 384.351C378.514 384.475 378.584 384.644 378.584 384.82V389.113H382.528C382.704 389.113 382.872 389.183 382.997 389.307C383.121 389.432 383.191 389.6 383.191 389.776V390.858C383.193 390.946 383.178 391.033 383.145 391.114C383.112 391.195 383.062 391.269 382.999 391.33C382.937 391.392 382.864 391.441 382.783 391.474C382.702 391.507 382.615 391.523 382.528 391.522H378.584V402.237C378.561 402.618 378.686 402.993 378.933 403.284C379.265 403.593 379.701 403.767 380.154 403.773C380.833 403.753 381.5 403.586 382.109 403.284C382.186 403.25 382.269 403.232 382.353 403.232C382.437 403.232 382.521 403.25 382.597 403.284C382.679 403.306 382.753 403.348 382.814 403.406C382.875 403.464 382.92 403.536 382.947 403.616C383.086 403.878 383.261 404.209 383.435 404.611Z" fill="black"/>
<path d="M406.891 397.176C406.906 397.315 406.906 397.456 406.891 397.595C406.907 397.734 406.907 397.875 406.891 398.014C406.918 399.334 406.753 400.651 406.402 401.923C406.132 402.935 405.589 403.852 404.832 404.576C403.517 405.685 401.839 406.269 400.119 406.216C398.409 406.28 396.738 405.694 395.442 404.576C394.657 403.695 394.059 402.664 393.684 401.545C393.31 400.426 393.165 399.242 393.261 398.066V397.229C393.142 396.052 393.263 394.864 393.617 393.736C393.971 392.608 394.55 391.564 395.32 390.667C396.611 389.541 398.286 388.953 399.997 389.026V389.026C401.719 388.957 403.403 389.543 404.709 390.667C406.21 391.888 406.891 394.07 406.891 397.176ZM404.448 398.014V397.176C404.467 396.192 404.379 395.209 404.186 394.244C404.049 393.523 403.689 392.864 403.156 392.359C402.263 391.712 401.188 391.364 400.085 391.364C398.981 391.364 397.906 391.712 397.013 392.359C396.508 392.879 396.163 393.534 396.018 394.244C395.825 395.209 395.737 396.192 395.756 397.176V398.066C395.737 399.05 395.825 400.033 396.018 400.998C396.163 401.709 396.508 402.363 397.013 402.883C397.92 403.497 398.99 403.825 400.085 403.825C401.18 403.825 402.249 403.497 403.156 402.883C403.689 402.379 404.049 401.719 404.186 400.998C404.379 400.033 404.467 399.05 404.448 398.066V398.014Z" fill="black"/>
<path d="M431.324 397.176C431.338 397.315 431.338 397.456 431.324 397.595C431.34 397.734 431.34 397.875 431.324 398.014C431.351 399.334 431.186 400.651 430.835 401.923C430.565 402.935 430.021 403.852 429.264 404.576C427.95 405.685 426.272 406.269 424.552 406.216C422.842 406.28 421.171 405.694 419.875 404.576C419.09 403.695 418.492 402.664 418.117 401.545C417.742 400.426 417.598 399.242 417.694 398.066V397.229C417.575 396.052 417.696 394.864 418.05 393.736C418.404 392.608 418.983 391.564 419.753 390.667C421.044 389.541 422.719 388.953 424.43 389.026V389.026C426.152 388.957 427.836 389.543 429.142 390.667C430.643 391.888 431.324 394.07 431.324 397.176ZM428.881 398.014V397.176C428.9 396.192 428.812 395.209 428.619 394.244C428.482 393.523 428.122 392.864 427.589 392.359C426.696 391.712 425.621 391.364 424.517 391.364C423.414 391.364 422.339 391.712 421.446 392.359C420.941 392.879 420.595 393.534 420.451 394.244C420.258 395.209 420.17 396.192 420.189 397.176V398.066C420.17 399.05 420.258 400.033 420.451 400.998C420.595 401.709 420.941 402.363 421.446 402.883C422.353 403.497 423.423 403.825 424.517 403.825C425.612 403.825 426.682 403.497 427.589 402.883C428.122 402.379 428.482 401.719 428.619 400.998C428.812 400.033 428.9 399.05 428.881 398.066V398.014Z" fill="black"/>
<path d="M451.01 389.009C451.09 389.014 451.168 389.036 451.24 389.071C451.312 389.107 451.376 389.157 451.429 389.218C451.489 389.276 451.536 389.347 451.566 389.426C451.596 389.504 451.609 389.588 451.603 389.672V390.858C451.607 390.963 451.585 391.067 451.539 391.161C451.493 391.256 451.426 391.337 451.341 391.399C451.259 391.458 451.165 391.498 451.066 391.519C450.967 391.54 450.865 391.541 450.765 391.522C450.552 391.45 450.328 391.415 450.102 391.417C449.307 391.404 448.533 391.677 447.921 392.185C447.259 392.681 446.672 393.269 446.176 393.93C445.74 394.513 445.399 395.161 445.163 395.85V405.134C445.163 405.223 445.144 405.311 445.108 405.392C445.072 405.473 445.019 405.546 444.954 405.605C444.833 405.725 444.67 405.794 444.5 405.797H443.383C443.207 405.797 443.039 405.728 442.914 405.603C442.79 405.479 442.72 405.31 442.72 405.134V389.986C442.718 389.898 442.735 389.812 442.768 389.731C442.801 389.65 442.85 389.576 442.912 389.515C442.973 389.452 443.046 389.402 443.127 389.369C443.208 389.336 443.296 389.32 443.383 389.323H444.5C444.676 389.323 444.845 389.393 444.969 389.517C445.093 389.641 445.163 389.81 445.163 389.986V392.08C445.21 391.98 445.268 391.886 445.338 391.801C445.905 390.927 446.68 390.208 447.594 389.709C448.508 389.209 449.532 388.944 450.573 388.939C450.722 388.939 450.869 388.963 451.01 389.009V389.009Z" fill="black"/>
<path d="M235.267 227.873H202.369C196.904 227.873 192.474 232.303 192.474 237.768V257.786C192.474 263.251 196.904 267.681 202.369 267.681H235.267C240.732 267.681 245.162 263.251 245.162 257.786V237.768C245.162 232.303 240.732 227.873 235.267 227.873Z" stroke="#DBF6F0" stroke-width="4" stroke-miterlimit="10"/>
<path d="M288.234 250.561L339.351 301.783C349.072 311.521 362.807 307.786 370.189 297.804L476.141 154.696L491.132 134.539C497.45 126.023 492.528 112.619 484.151 107.68C474.169 101.834 463.628 106.179 457.292 114.661L351.341 257.769L336.349 278.013L367.082 274.016L316 222.795C298.129 204.889 270.363 232.638 288.234 250.561V250.561Z" fill="white"/>
<path d="M292.876 245.936L343.976 297.158C350.451 303.65 359.683 301.155 364.534 294.505L470.486 151.398L485.478 131.153C489.718 125.429 486.368 116.598 480.783 113.248C474.169 109.286 467.048 112.288 462.877 117.942L356.925 261.05L341.934 281.294L362.493 278.641L311.375 227.419C299.455 215.482 280.956 233.981 292.876 245.936V245.936Z" fill="#7CD7AF"/>
</svg>
