<svg width="145" height="92" viewBox="0 0 145 92" fill="none" xmlns="http://www.w3.org/2000/svg">
<path d="M16.5419 81.5616C16.549 81.6482 16.5375 81.7354 16.5081 81.8172C16.4787 81.8989 16.4321 81.9735 16.3714 82.0357C16.3129 82.0986 16.2419 82.1486 16.1631 82.1825C16.0842 82.2165 15.9991 82.2336 15.9132 82.2328H12.9245C12.7635 82.2332 12.6084 82.1723 12.4906 82.0625C12.3729 81.9526 12.3013 81.8021 12.2905 81.6415C11.9655 78.0987 9.72267 75.0034 8.64119 73.6929H4.24601V81.5935C4.24784 81.7625 4.18272 81.9253 4.06487 82.0464C4.00553 82.1059 3.93493 82.1531 3.85719 82.1851C3.77944 82.2171 3.69611 82.2333 3.61204 82.2328H0.639299C0.555597 82.2335 0.472585 82.2177 0.395052 82.1861C0.317519 82.1546 0.247 82.108 0.187565 82.049C0.12813 81.9901 0.0809553 81.92 0.0487627 81.8427C0.01657 81.7654 -2.95511e-06 81.6826 3.95229e-10 81.5989V58.9996C3.95228e-10 58.8301 0.0673545 58.6675 0.187246 58.5476C0.307138 58.4277 0.469746 58.3604 0.639299 58.3604H8.9928C10.9709 58.3604 12.868 59.1462 14.2667 60.5449C15.6655 61.9436 16.4513 63.8407 16.4513 65.8188V66.2877C16.4445 67.5297 16.1276 68.7504 15.5293 69.8389C14.9311 70.9274 14.0705 71.8492 13.0257 72.5208C14.4695 74.6358 16.2702 77.9389 16.5419 81.5616ZM12.1786 65.7975C12.1786 64.9498 11.8419 64.1367 11.2424 63.5373C10.643 62.9378 9.82991 62.601 8.98215 62.601H4.24068V69.4415H8.98215C9.82991 69.4415 10.643 69.1048 11.2424 68.5053C11.8419 67.9058 12.1786 67.0928 12.1786 66.245V65.7975Z" fill="black"/>
<path d="M36.5199 78.6315V81.6042C36.5199 81.6882 36.5034 81.7713 36.4713 81.8489C36.4391 81.9264 36.3921 81.9969 36.3327 82.0563C36.2733 82.1156 36.2029 82.1627 36.1253 82.1949C36.0477 82.227 35.9646 82.2435 35.8806 82.2435H22.5033C22.3338 82.2435 22.1712 82.1762 22.0513 82.0563C21.9314 81.9364 21.864 81.7738 21.864 81.6042V58.9997C21.8654 58.8311 21.9334 58.6698 22.0531 58.5511C22.1729 58.4323 22.3347 58.3657 22.5033 58.3657H35.0016C35.1697 58.3657 35.331 58.4325 35.4499 58.5514C35.5688 58.6703 35.6356 58.8316 35.6356 58.9997V61.9778C35.6356 62.1459 35.5688 62.3072 35.4499 62.426C35.331 62.5449 35.1697 62.6117 35.0016 62.6117H26.1153V67.9392H33.2329C33.3169 67.9387 33.4003 67.955 33.478 67.987C33.5558 68.019 33.6264 68.0661 33.6857 68.1257C33.8037 68.2449 33.8706 68.4054 33.8722 68.5732V71.5513C33.8706 71.719 33.8037 71.8795 33.6857 71.9988C33.6264 72.0583 33.5558 72.1055 33.478 72.1375C33.4003 72.1695 33.3169 72.1857 33.2329 72.1852H26.1153V77.9815H35.8806C36.0502 77.9815 36.2128 78.0489 36.3327 78.1688C36.4526 78.2887 36.5199 78.4513 36.5199 78.6208V78.6315Z" fill="black"/>
<path d="M59.3163 58.9997V81.6042C59.3163 81.6879 59.2997 81.7708 59.2675 81.8481C59.2353 81.9253 59.1882 81.9955 59.1287 82.0544C59.0693 82.1133 58.9988 82.1599 58.9212 82.1915C58.8437 82.223 58.7607 82.2389 58.677 82.2382H54.5802C54.4699 82.233 54.363 82.1993 54.2696 82.1405C54.1762 82.0817 54.0997 81.9997 54.0474 81.9026L45.598 66.2557V81.6042C45.598 81.6879 45.5814 81.7708 45.5493 81.8481C45.5171 81.9253 45.4699 81.9955 45.4104 82.0544C45.351 82.1133 45.2805 82.1599 45.203 82.1915C45.1254 82.223 45.0424 82.2389 44.9587 82.2382H41.986C41.9023 82.2389 41.8193 82.223 41.7417 82.1915C41.6642 82.1599 41.5937 82.1133 41.5342 82.0544C41.4748 81.9955 41.4276 81.9253 41.3954 81.8481C41.3632 81.7708 41.3467 81.6879 41.3467 81.6042V58.9997C41.3467 58.8301 41.414 58.6675 41.5339 58.5476C41.6538 58.4277 41.8164 58.3604 41.986 58.3604H45.9496C46.0598 58.3656 46.1668 58.3992 46.2602 58.4581C46.3535 58.5169 46.4301 58.5989 46.4824 58.696C47.7343 60.9922 55.0383 74.4281 55.0383 74.4281V58.9784C55.0383 58.8088 55.1057 58.6462 55.2256 58.5263C55.3455 58.4064 55.5081 58.3391 55.6776 58.3391H58.6504C58.7384 58.3354 58.8262 58.3498 58.9083 58.3817C58.9904 58.4135 59.0651 58.4619 59.1276 58.5239C59.1901 58.586 59.2392 58.6602 59.2716 58.7421C59.3041 58.824 59.3193 58.9117 59.3163 58.9997Z" fill="black"/>
<path d="M83.3112 58.9996V61.9724C83.31 62.1418 83.2431 62.304 83.1248 62.4252C83.0658 62.4853 82.9953 62.5327 82.9175 62.5648C82.8396 62.5968 82.7561 62.6128 82.672 62.6117H75.4212V81.6042C75.4212 81.7723 75.3544 81.9336 75.2356 82.0525C75.1167 82.1714 74.9554 82.2382 74.7873 82.2382H71.8145C71.7308 82.2389 71.6478 82.223 71.5703 82.1914C71.4928 82.1599 71.4222 82.1133 71.3628 82.0544C71.3034 81.9954 71.2562 81.9253 71.224 81.848C71.1918 81.7708 71.1752 81.6879 71.1752 81.6042V62.6117H63.9245C63.7568 62.6101 63.5962 62.5432 63.477 62.4252C63.4175 62.3659 63.3703 62.2953 63.3383 62.2175C63.3063 62.1398 63.2901 62.0565 63.2905 61.9724V58.9996C63.2898 58.9159 63.3057 58.8329 63.3373 58.7554C63.3688 58.6779 63.4154 58.6073 63.4743 58.5479C63.5333 58.4885 63.6034 58.4413 63.6807 58.4091C63.7579 58.3769 63.8408 58.3603 63.9245 58.3604H82.6773C82.761 58.3603 82.8439 58.3769 82.9211 58.4091C82.9984 58.4413 83.0685 58.4885 83.1275 58.5479C83.1864 58.6073 83.233 58.6779 83.2645 58.7554C83.2961 58.8329 83.312 58.9159 83.3112 58.9996Z" fill="black"/>
<path d="M91.5103 58.9996V81.5989C91.5103 81.7684 91.443 81.931 91.3231 82.0509C91.2032 82.1708 91.0406 82.2382 90.871 82.2382H87.8983C87.7301 82.2382 87.5689 82.1714 87.45 82.0525C87.3311 81.9336 87.2643 81.7723 87.2643 81.6042V58.9996C87.2636 58.9159 87.2795 58.8329 87.311 58.7554C87.3426 58.6779 87.3892 58.6073 87.4481 58.5479C87.507 58.4885 87.5772 58.4413 87.6544 58.4091C87.7317 58.3769 87.8146 58.3603 87.8983 58.3604H90.871C91.0406 58.3605 91.2033 58.4275 91.3238 58.5468C91.3834 58.6062 91.4306 58.6768 91.4626 58.7545C91.4946 58.8322 91.5108 58.9156 91.5103 58.9996Z" fill="black"/>
<path d="M43.4723 53.4751V24.744C43.4723 22.7178 44.2772 20.7747 45.7099 19.342C47.1426 17.9093 49.0858 17.1044 51.1119 17.1044H122.42C123.424 17.1044 124.417 17.302 125.344 17.6859C126.271 18.0698 127.113 18.6326 127.822 19.342C128.532 20.0514 129.095 20.8936 129.478 21.8204C129.862 22.7473 130.06 23.7407 130.06 24.744V62.9474C130.061 63.9508 129.863 64.9444 129.479 65.8713C129.095 66.7983 128.532 67.6404 127.822 68.3495C126.437 69.7293 124.53 70.0596 122.42 70.0596H96.5128" stroke="black" stroke-width="7.97" stroke-linejoin="round"/>
<path d="M6.09997 91.556C6.11011 91.587 6.11299 91.62 6.10837 91.6523C6.10375 91.6847 6.09176 91.7155 6.07333 91.7425C6.05507 91.7709 6.02979 91.7942 5.99994 91.8101C5.97008 91.8259 5.93665 91.8338 5.90285 91.833H5.56722C5.52642 91.8351 5.48608 91.8237 5.4524 91.8006C5.41871 91.7775 5.39354 91.744 5.38076 91.7052L4.72015 90.0217H1.42243C1.0868 90.8634 0.863045 91.4282 0.761823 91.7052C0.747315 91.7439 0.720986 91.7771 0.686565 91.8001C0.652144 91.823 0.611375 91.8345 0.570033 91.833H0.202437C0.169537 91.8329 0.13719 91.8246 0.108343 91.8088C0.0794965 91.7929 0.0550678 91.7701 0.0372844 91.7425C0.0231518 91.7134 0.0158081 91.6815 0.0158081 91.6492C0.0158081 91.6169 0.0231518 91.5851 0.0372844 91.556C0.548723 90.2596 1.41355 88.0718 2.63177 84.9925C2.64655 84.9529 2.6737 84.9191 2.7092 84.896C2.7447 84.873 2.78666 84.862 2.82889 84.8647H3.36164C3.40298 84.8632 3.44375 84.8747 3.47817 84.8977C3.51259 84.9206 3.53892 84.9538 3.55343 84.9925C4.11459 86.4629 4.96344 88.6507 6.09997 91.556ZM1.69946 89.2758H4.38984L3.05264 85.8663L1.69946 89.2758Z" fill="black"/>
<path d="M13.3507 84.7422C13.3697 84.7609 13.3846 84.7833 13.3947 84.8081C13.4048 84.8328 13.4097 84.8593 13.4093 84.886V91.6306C13.4085 91.6842 13.3876 91.7356 13.3507 91.7744C13.3102 91.8122 13.2568 91.8331 13.2015 91.833H12.8659C12.8105 91.8331 12.7572 91.8122 12.7167 91.7744C12.6812 91.735 12.6622 91.6836 12.6634 91.6306V91.0606C12.4218 91.3528 12.1168 91.5863 11.7716 91.7432C11.4264 91.9001 11.05 91.9764 10.6709 91.9662C10.4222 91.968 10.1778 91.9019 9.96376 91.7752C9.74976 91.6485 9.57431 91.4659 9.45626 91.247C9.12329 90.6206 8.9685 89.9149 9.00875 89.2066C8.97402 88.5723 9.11799 87.9411 9.4243 87.3846C9.55407 87.1716 9.73756 86.9965 9.95636 86.8768C10.1752 86.7571 10.4216 86.6971 10.6709 86.7027C11.063 86.6873 11.4524 86.7734 11.8014 86.9526C12.1505 87.1318 12.4474 87.398 12.6634 87.7256V84.902C12.6619 84.8756 12.6659 84.8493 12.675 84.8245C12.6842 84.7998 12.6984 84.7772 12.7167 84.7581C12.7361 84.7385 12.7593 84.7231 12.785 84.713C12.8107 84.7029 12.8383 84.6983 12.8659 84.6995H13.2015C13.2279 84.6962 13.2548 84.6982 13.2804 84.7056C13.3061 84.7129 13.33 84.7253 13.3507 84.7422ZM12.6634 90.2348V88.6046C12.6214 88.4974 12.564 88.3969 12.4929 88.3062C12.3942 88.1674 12.2818 88.0389 12.1573 87.9227C12.0015 87.774 11.8213 87.6532 11.6245 87.5657C11.3979 87.4676 11.1521 87.4221 10.9053 87.4325C10.7339 87.4276 10.5645 87.4703 10.4159 87.5559C10.2673 87.6414 10.1453 87.7666 10.0636 87.9173C9.85359 88.3077 9.75412 88.7479 9.77591 89.1906C9.77013 89.5503 9.81496 89.9089 9.9091 90.2561C9.9733 90.5184 10.1056 90.7592 10.2927 90.954C10.4546 91.1091 10.6705 91.1951 10.8947 91.1937C11.1356 91.193 11.3749 91.1534 11.6032 91.0765C11.7939 91.0072 11.9734 90.9103 12.136 90.7889C12.2592 90.693 12.375 90.588 12.4823 90.4745C12.5514 90.4016 12.6121 90.3212 12.6634 90.2348Z" fill="black"/>
<path d="M17.8205 87.5604C18.0015 87.3087 18.225 87.0905 18.4811 86.9157C18.7504 86.7529 19.0617 86.6732 19.3761 86.6867C19.5582 86.684 19.7391 86.7165 19.9088 86.7826C20.0541 86.837 20.1879 86.9183 20.3031 87.0223C20.399 87.1182 20.4895 87.2087 20.5695 87.3046C20.6315 87.3753 20.6835 87.4542 20.724 87.5391L20.7826 87.6456C20.7901 87.6245 20.8009 87.6048 20.8145 87.587L20.937 87.4485C21.001 87.3792 21.0702 87.3153 21.1342 87.2567C21.2186 87.1837 21.3076 87.1161 21.4005 87.0543C21.5077 86.9824 21.6199 86.9183 21.7362 86.8625C21.8642 86.8038 21.9981 86.7591 22.1357 86.7293C22.2836 86.6918 22.4363 86.6775 22.5886 86.6867C22.827 86.6881 23.0608 86.753 23.2659 86.8747C23.4709 86.9964 23.6399 87.1706 23.7553 87.3792C24.0631 87.9314 24.209 88.5592 24.1762 89.1906V91.6306C24.1774 91.6836 24.1583 91.735 24.1229 91.7744C24.084 91.8113 24.0327 91.8323 23.979 91.833H23.6434C23.5907 91.8316 23.5405 91.8097 23.5037 91.7719C23.4669 91.734 23.4463 91.6834 23.4463 91.6306V89.1906C23.4463 88.9562 23.4463 88.7786 23.4463 88.6578C23.4394 88.5199 23.4215 88.3827 23.393 88.2476C23.3654 88.113 23.3169 87.9836 23.2492 87.864C23.1795 87.7323 23.0752 87.622 22.9476 87.545C22.8199 87.468 22.6737 87.4273 22.5246 87.4272C22.2835 87.4159 22.0439 87.4712 21.8321 87.587C21.6235 87.6804 21.4407 87.823 21.2993 88.0025C21.165 88.1814 21.0573 88.3788 20.9797 88.5886V91.6359C20.9808 91.6789 20.9655 91.7208 20.937 91.7531C20.9036 91.7796 20.8625 91.7946 20.8198 91.7957H20.4522C20.4112 91.7946 20.3718 91.7796 20.3404 91.7531C20.3116 91.7194 20.2914 91.6792 20.2818 91.6359V89.1852C20.2818 88.9508 20.2818 88.775 20.2818 88.6525C20.2795 88.5145 20.2635 88.3771 20.2338 88.2423C20.2062 88.1077 20.1577 87.9783 20.09 87.8587C20.0189 87.7281 19.9144 87.6187 19.787 87.5419C19.6597 87.4651 19.5141 87.4237 19.3654 87.4218C19.1226 87.411 18.8814 87.4662 18.6675 87.5817C18.4594 87.6758 18.2767 87.8182 18.1348 87.9972C18.0019 88.1753 17.8976 88.373 17.8258 88.5832V91.6199C17.827 91.6729 17.808 91.7244 17.7725 91.7638C17.7337 91.8007 17.6823 91.8216 17.6287 91.8224H17.2344C17.1791 91.8224 17.1258 91.8015 17.0853 91.7638C17.0483 91.7249 17.0274 91.6735 17.0267 91.6199V86.9956C17.0267 86.9686 17.0321 86.9418 17.0426 86.9169C17.0531 86.892 17.0685 86.8695 17.0878 86.8506C17.1072 86.8317 17.1302 86.8169 17.1553 86.8071C17.1805 86.7972 17.2074 86.7925 17.2344 86.7932H17.5754C17.6013 86.7931 17.6268 86.7983 17.6506 86.8084C17.6744 86.8184 17.696 86.8332 17.7139 86.8518C17.7329 86.8706 17.7479 86.893 17.758 86.9177C17.7681 86.9424 17.773 86.969 17.7725 86.9956V87.635C17.7858 87.6085 17.8019 87.5835 17.8205 87.5604Z" fill="black"/>
<path d="M28.2677 84.9073C28.321 84.9087 28.3717 84.9305 28.4093 84.9681C28.447 85.0058 28.4688 85.0565 28.4701 85.1098V85.6425C28.4691 85.6679 28.4629 85.6928 28.4519 85.7157C28.4409 85.7386 28.4254 85.7591 28.4062 85.7757C28.3693 85.8123 28.3197 85.8333 28.2677 85.8343H27.9427C27.8891 85.8336 27.8377 85.8127 27.7989 85.7757C27.7635 85.7401 27.7426 85.6927 27.7403 85.6425V85.1098C27.7398 85.0831 27.7447 85.0566 27.7548 85.0319C27.7649 85.0071 27.7799 84.9847 27.7989 84.9659C27.8174 84.9467 27.8398 84.9315 27.8646 84.9214C27.8894 84.9113 27.916 84.9065 27.9427 84.9073H28.2677ZM28.2677 86.7933C28.321 86.7946 28.3717 86.8164 28.4093 86.8541C28.447 86.8917 28.4688 86.9425 28.4701 86.9957V91.62C28.4699 91.6471 28.4641 91.6738 28.4532 91.6986C28.4422 91.7233 28.4262 91.7455 28.4062 91.7638C28.3693 91.8004 28.3197 91.8214 28.2677 91.8224H27.9427C27.889 91.8224 27.8375 91.8011 27.7996 91.7631C27.7616 91.7252 27.7403 91.6737 27.7403 91.62V86.9957C27.7398 86.969 27.7447 86.9425 27.7548 86.9178C27.7649 86.8931 27.7799 86.8706 27.7989 86.8519C27.8179 86.8336 27.8405 86.8194 27.8652 86.8102C27.89 86.8011 27.9164 86.7971 27.9427 86.7986L28.2677 86.7933Z" fill="black"/>
<path d="M34.5009 86.6866C34.7333 86.6869 34.9613 86.7505 35.1603 86.8707C35.3593 86.9908 35.5218 87.163 35.6303 87.3686C35.9237 87.9292 36.06 88.5588 36.0245 89.1906V91.6306C36.0253 91.6573 36.0205 91.6839 36.0104 91.7087C36.0003 91.7334 35.9852 91.7558 35.9659 91.7744C35.9472 91.7934 35.9247 91.8084 35.9 91.8185C35.8753 91.8285 35.8488 91.8335 35.8221 91.833H35.4811C35.4274 91.833 35.3759 91.8117 35.338 91.7737C35.3 91.7357 35.2787 91.6843 35.2787 91.6306V88.791C35.2855 88.681 35.2855 88.5707 35.2787 88.4607C35.2717 88.3466 35.2503 88.2338 35.2147 88.1251C35.191 88.0336 35.1513 87.947 35.0975 87.8693C35.0274 87.738 34.923 87.628 34.7955 87.5511C34.6679 87.4742 34.5219 87.4332 34.373 87.4325C34.2062 87.4237 34.0395 87.4491 33.8829 87.5071C33.7314 87.5575 33.5879 87.6292 33.4567 87.7202C33.3435 87.8007 33.2429 87.8977 33.1583 88.0079C33.0293 88.1884 32.9254 88.3855 32.8493 88.5939V91.6306C32.8491 91.6576 32.8434 91.6844 32.8324 91.7091C32.8214 91.7339 32.8054 91.7561 32.7854 91.7744C32.7485 91.811 32.6989 91.832 32.6469 91.833H32.3059C32.2522 91.833 32.2008 91.8117 32.1628 91.7737C32.1248 91.7357 32.1035 91.6843 32.1035 91.6306V87.0063C32.103 86.9796 32.108 86.9531 32.118 86.9284C32.1281 86.9036 32.1431 86.8812 32.1621 86.8625C32.1807 86.8432 32.203 86.828 32.2278 86.8179C32.2526 86.8078 32.2792 86.803 32.3059 86.8039H32.6469C32.7006 86.8039 32.7521 86.8252 32.79 86.8631C32.828 86.9011 32.8493 86.9526 32.8493 87.0063V87.6456C32.8636 87.6152 32.8815 87.5865 32.9026 87.5604C33.0757 87.2937 33.3124 87.0742 33.5914 86.9217C33.8704 86.7692 34.1829 86.6884 34.5009 86.6866Z" fill="black"/>
<path d="M40.1053 84.9073C40.1586 84.9087 40.2093 84.9305 40.247 84.9681C40.2847 85.0058 40.3064 85.0565 40.3078 85.1098V85.6425C40.3068 85.6679 40.3006 85.6928 40.2896 85.7157C40.2786 85.7386 40.263 85.7591 40.2438 85.7757C40.2069 85.8123 40.1573 85.8333 40.1053 85.8343H39.7644C39.7108 85.8336 39.6594 85.8127 39.6205 85.7757C39.5852 85.7401 39.5643 85.6927 39.5619 85.6425V85.1098C39.5614 85.0831 39.5664 85.0566 39.5765 85.0319C39.5865 85.0071 39.6015 84.9847 39.6205 84.9659C39.6391 84.9467 39.6615 84.9315 39.6862 84.9214C39.711 84.9113 39.7376 84.9065 39.7644 84.9073H40.1053ZM40.1053 86.7933C40.1586 86.7946 40.2093 86.8164 40.247 86.8541C40.2847 86.8917 40.3064 86.9425 40.3078 86.9957V91.62C40.3076 91.6471 40.3018 91.6738 40.2908 91.6986C40.2798 91.7233 40.2638 91.7455 40.2438 91.7638C40.2069 91.8004 40.1573 91.8214 40.1053 91.8224H39.7644C39.7107 91.8224 39.6592 91.8011 39.6212 91.7631C39.5833 91.7252 39.5619 91.6737 39.5619 91.62V86.9957C39.5614 86.969 39.5664 86.9425 39.5765 86.9178C39.5865 86.8931 39.6015 86.8706 39.6205 86.8519C39.6391 86.8326 39.6615 86.8175 39.6862 86.8074C39.711 86.7973 39.7376 86.7925 39.7644 86.7933H40.1053Z" fill="black"/>
<path d="M46.8393 89.6062C46.977 89.6993 47.0897 89.8247 47.1678 89.9714C47.2458 90.1181 47.2866 90.2817 47.2868 90.4479C47.286 90.6545 47.2375 90.8582 47.1451 91.043C47.0527 91.2278 46.9189 91.3888 46.7541 91.5134C46.3978 91.8153 45.9423 91.9747 45.4755 91.9609C45.1951 91.9536 44.9172 91.907 44.6497 91.8224C44.3543 91.7332 44.0754 91.5964 43.824 91.4175C43.8017 91.4013 43.7831 91.3806 43.7693 91.3567C43.7556 91.3329 43.747 91.3064 43.7441 91.279C43.7429 91.2253 43.7598 91.1728 43.792 91.1298C43.8879 91.0233 43.9625 90.938 44.0264 90.8741C44.0398 90.852 44.0581 90.8333 44.0798 90.8193C44.1015 90.8053 44.1262 90.7964 44.1518 90.7933C44.1775 90.7902 44.2035 90.793 44.2279 90.8015C44.2523 90.81 44.2745 90.8239 44.2928 90.8421C44.6391 91.0855 45.0522 91.2158 45.4755 91.2151C45.6571 91.2171 45.8375 91.1864 46.0082 91.1245C46.1591 91.0716 46.2933 90.9797 46.3971 90.8581C46.4912 90.7463 46.5422 90.6046 46.541 90.4586C46.541 90.3414 46.4557 90.2348 46.2853 90.1283C45.9909 89.9839 45.6843 89.8662 45.3689 89.7766C44.9943 89.6641 44.6361 89.5029 44.3034 89.2972C44.1175 89.1807 43.9642 89.0189 43.858 88.8269C43.7517 88.6349 43.696 88.4191 43.6961 88.1997C43.6981 87.9933 43.7472 87.7901 43.8395 87.6055C43.9318 87.4208 44.0649 87.2597 44.2289 87.1342C44.5859 86.8336 45.0409 86.6744 45.5075 86.6867C45.7881 86.691 46.0665 86.7377 46.3332 86.8252C46.6308 86.9088 46.9106 87.046 47.159 87.2301C47.1837 87.2437 47.2042 87.2638 47.2182 87.2882C47.2323 87.3126 47.2395 87.3404 47.2389 87.3686C47.2415 87.3954 47.2386 87.4225 47.2304 87.4482C47.2221 87.4738 47.2087 87.4975 47.1909 87.5178L46.9459 87.7842C46.9171 87.8231 46.8743 87.8492 46.8266 87.8572C46.7789 87.8651 46.73 87.8542 46.6902 87.8268C46.3396 87.5877 45.931 87.4478 45.5075 87.4219C45.2419 87.4134 44.9806 87.4899 44.7616 87.6403C44.6704 87.697 44.5945 87.7752 44.5406 87.8681C44.4867 87.961 44.4565 88.0658 44.4526 88.1731C44.4624 88.2979 44.5063 88.4176 44.5796 88.5191C44.6529 88.6206 44.7527 88.6999 44.8682 88.7484L45.2091 88.9029L45.6779 89.0681L46.0509 89.196C46.3331 89.2916 46.599 89.4299 46.8393 89.6062Z" fill="black"/>
<path d="M53.1151 91.4601C53.1361 91.5132 53.1361 91.5722 53.1151 91.6253C53.1052 91.6515 53.0895 91.6752 53.0693 91.6946C53.049 91.714 53.0246 91.7285 52.9979 91.7372C52.7016 91.878 52.3776 91.9508 52.0496 91.9502C51.7281 91.931 51.4248 91.7945 51.1972 91.5667C50.997 91.3369 50.8905 91.0402 50.8988 90.7356V87.4645H50.5046C50.4509 87.4645 50.3994 87.4432 50.3614 87.4052C50.3235 87.3672 50.3022 87.3157 50.3022 87.2621V86.9318C50.3017 86.9051 50.3066 86.8785 50.3167 86.8538C50.3268 86.8291 50.3418 86.8067 50.3608 86.7879C50.3793 86.7687 50.4017 86.7535 50.4265 86.7434C50.4513 86.7333 50.4779 86.7285 50.5046 86.7293H50.8988V85.4188C50.8983 85.3921 50.9033 85.3655 50.9134 85.3408C50.9234 85.3161 50.9384 85.2937 50.9574 85.2749C50.976 85.2556 50.9984 85.2405 51.0232 85.2304C51.0479 85.2203 51.0745 85.2155 51.1013 85.2163H51.4316C51.4853 85.2163 51.5368 85.2376 51.5747 85.2756C51.6127 85.3136 51.634 85.3651 51.634 85.4188V86.7293H52.838C52.8917 86.7293 52.9432 86.7506 52.9812 86.7886C53.0192 86.8266 53.0405 86.8781 53.0405 86.9318V87.2621C53.0413 87.2888 53.0365 87.3154 53.0264 87.3402C53.0163 87.365 53.0011 87.3873 52.9819 87.4059C52.9631 87.4249 52.9407 87.4399 52.916 87.45C52.8912 87.46 52.8647 87.465 52.838 87.4645H51.634V90.7356C51.6271 90.8519 51.6653 90.9664 51.7406 91.0552C51.8421 91.1494 51.975 91.2026 52.1135 91.2044C52.3208 91.1983 52.5244 91.1474 52.7102 91.0552C52.7336 91.0446 52.759 91.0392 52.7848 91.0392C52.8105 91.0392 52.8359 91.0446 52.8593 91.0552C52.8841 91.0619 52.9068 91.0747 52.9254 91.0924C52.944 91.11 52.9579 91.1321 52.9659 91.1565C53.0085 91.2364 53.0618 91.3376 53.1151 91.4601Z" fill="black"/>
<path d="M58.9221 86.6973C58.9465 86.6991 58.9704 86.7056 58.9924 86.7166C59.0143 86.7275 59.0339 86.7427 59.0499 86.7613C59.0684 86.7791 59.0827 86.8007 59.0919 86.8246C59.1011 86.8486 59.105 86.8742 59.1032 86.8998V87.262C59.1043 87.294 59.0976 87.3257 59.0836 87.3545C59.0697 87.3833 59.049 87.4082 59.0233 87.4272C58.998 87.4449 58.9694 87.4574 58.9392 87.4638C58.909 87.4702 58.8778 87.4704 58.8475 87.4645C58.7823 87.4426 58.7138 87.4318 58.645 87.4325C58.4022 87.4287 58.166 87.5118 57.9791 87.6669C57.7772 87.8184 57.5978 87.9978 57.4464 88.1997C57.3134 88.3777 57.2092 88.5755 57.1374 88.7857V91.6199C57.1372 91.647 57.1314 91.6738 57.1204 91.6985C57.1094 91.7233 57.0934 91.7455 57.0734 91.7638C57.0365 91.8004 56.9869 91.8214 56.9349 91.8224H56.594C56.5403 91.8224 56.4888 91.801 56.4508 91.7631C56.4128 91.7251 56.3915 91.6736 56.3915 91.6199V86.9957C56.391 86.969 56.396 86.9425 56.406 86.9177C56.4161 86.893 56.4311 86.8706 56.4501 86.8518C56.4687 86.8326 56.4911 86.8174 56.5158 86.8073C56.5406 86.7972 56.5672 86.7924 56.594 86.7932H56.9349C56.9886 86.7932 57.0401 86.8146 57.0781 86.8525C57.116 86.8905 57.1374 86.942 57.1374 86.9957V87.635C57.1515 87.6045 57.1694 87.5758 57.1906 87.5497C57.3637 87.283 57.6004 87.0636 57.8794 86.911C58.1584 86.7585 58.4709 86.6778 58.7889 86.676C58.8341 86.6762 58.879 86.6834 58.9221 86.6973Z" fill="black"/>
<path d="M65.7945 91.1192C65.7966 91.298 65.8144 91.4762 65.8477 91.6519C65.8534 91.6742 65.8535 91.6976 65.8479 91.7199C65.8424 91.7422 65.8313 91.7628 65.8158 91.7798C65.8017 91.7972 65.7838 91.811 65.7635 91.8203C65.7431 91.8295 65.7209 91.8339 65.6986 91.8331H65.283C65.2409 91.8346 65.1999 91.82 65.1682 91.7923C65.1365 91.7646 65.1166 91.7258 65.1125 91.6839C65.0702 91.4842 65.0488 91.2807 65.0486 91.0765V91.0126C64.852 91.2957 64.5912 91.5282 64.2874 91.6912C63.9837 91.8541 63.6458 91.9429 63.3012 91.9503C62.9144 91.9589 62.5371 91.8306 62.2357 91.588C62.0744 91.4423 61.9476 91.2624 61.8646 91.0615C61.7817 90.8606 61.7446 90.6437 61.7562 90.4266C61.7471 90.0786 61.8558 89.7377 62.0647 89.4593C62.2736 89.1808 62.5704 88.981 62.907 88.8923C63.057 88.8362 63.2099 88.7882 63.3651 88.7484C63.5269 88.7038 63.693 88.677 63.8606 88.6685C64.0417 88.6685 64.1749 88.6685 64.2548 88.6685C64.3347 88.6685 64.4839 88.6685 64.6917 88.6685H65.0699V88.0612C65.0712 87.9749 65.0516 87.8895 65.0126 87.8125C64.9736 87.7355 64.9165 87.6691 64.8462 87.619C64.6559 87.4976 64.4321 87.4398 64.2069 87.4539C63.9202 87.4503 63.6357 87.5047 63.3705 87.6137C63.1405 87.7034 62.9422 87.8591 62.8004 88.0612C62.7898 88.0827 62.7749 88.1018 62.7566 88.1173C62.7383 88.1329 62.717 88.1445 62.694 88.1515C62.671 88.1584 62.6469 88.1607 62.6231 88.158C62.5992 88.1553 62.5762 88.1477 62.5554 88.1358L62.2357 87.9973C62.21 87.9865 62.1868 87.9705 62.1675 87.9503C62.1483 87.9302 62.1334 87.9062 62.1238 87.8801C62.1024 87.8252 62.1024 87.7644 62.1238 87.7096C62.3318 87.3967 62.6209 87.1463 62.9602 86.985C63.3424 86.7955 63.7644 86.7005 64.1909 86.708C64.6192 86.6835 65.0412 86.8203 65.3736 87.0916C65.5135 87.2103 65.6246 87.3593 65.6985 87.5273C65.7723 87.6952 65.807 87.8778 65.7998 88.0612L65.7945 91.1192ZM65.0486 90.3094V89.18C64.5313 89.1594 64.0133 89.1951 63.5036 89.2865C63.2253 89.338 62.9711 89.4781 62.7791 89.6861C62.5874 89.8849 62.4805 90.1504 62.4808 90.4266C62.471 90.5355 62.4851 90.6453 62.5218 90.7483C62.5586 90.8513 62.6173 90.9451 62.6939 91.0233C62.8692 91.1523 63.0839 91.2164 63.3012 91.2044C63.6371 91.197 63.9668 91.1132 64.2655 90.9593C64.5752 90.8091 64.8439 90.5861 65.0486 90.3094Z" fill="black"/>
<path d="M71.7826 91.4601C71.8037 91.5132 71.8037 91.5722 71.7826 91.6253C71.7727 91.6515 71.7571 91.6752 71.7368 91.6946C71.7165 91.714 71.6921 91.7285 71.6654 91.7372C71.3692 91.878 71.0451 91.9508 70.7171 91.9502C70.3956 91.931 70.0923 91.7945 69.8647 91.5667C69.6645 91.3369 69.558 91.0402 69.5664 90.7356V87.4645H69.1721C69.1185 87.4645 69.067 87.4432 69.029 87.4052C68.991 87.3672 68.9697 87.3157 68.9697 87.2621V86.9318C68.9692 86.9051 68.9742 86.8785 68.9842 86.8538C68.9943 86.8291 69.0093 86.8067 69.0283 86.7879C69.0469 86.7687 69.0693 86.7535 69.094 86.7434C69.1188 86.7333 69.1454 86.7285 69.1721 86.7293H69.5664V85.4188C69.5659 85.3921 69.5708 85.3655 69.5809 85.3408C69.591 85.3161 69.606 85.2937 69.625 85.2749C69.6435 85.2556 69.6659 85.2405 69.6907 85.2304C69.7155 85.2203 69.7421 85.2155 69.7688 85.2163H70.0991C70.1528 85.2163 70.2043 85.2376 70.2423 85.2756C70.2802 85.3136 70.3016 85.3651 70.3016 85.4188V86.7293H71.5056C71.5593 86.7293 71.6108 86.7506 71.6487 86.7886C71.6867 86.8266 71.708 86.8781 71.708 86.9318V87.2621C71.7088 87.2888 71.704 87.3154 71.6939 87.3402C71.6838 87.365 71.6687 87.3873 71.6494 87.4059C71.6307 87.4249 71.6082 87.4399 71.5835 87.45C71.5588 87.46 71.5323 87.465 71.5056 87.4645H70.3016V90.7356C70.2946 90.8519 70.3328 90.9664 70.4081 91.0552C70.5097 91.1494 70.6426 91.2026 70.781 91.2044C70.9884 91.1983 71.1919 91.1474 71.3777 91.0552C71.4012 91.0446 71.4266 91.0392 71.4523 91.0392C71.478 91.0392 71.5035 91.0446 71.5269 91.0552C71.5517 91.0619 71.5744 91.0747 71.593 91.0924C71.6116 91.11 71.6255 91.1321 71.6334 91.1565C71.6761 91.2364 71.7293 91.3376 71.7826 91.4601Z" fill="black"/>
<path d="M75.5864 84.9073C75.6397 84.9087 75.6904 84.9305 75.7281 84.9681C75.7657 85.0058 75.7875 85.0565 75.7888 85.1098V85.6425C75.7878 85.6679 75.7816 85.6928 75.7706 85.7157C75.7596 85.7386 75.7441 85.7591 75.7249 85.7757C75.688 85.8123 75.6384 85.8333 75.5864 85.8343H75.2454C75.1918 85.8336 75.1405 85.8127 75.1016 85.7757C75.0662 85.7401 75.0454 85.6927 75.043 85.6425V85.1098C75.0425 85.0831 75.0475 85.0566 75.0575 85.0319C75.0676 85.0071 75.0826 84.9847 75.1016 84.9659C75.1202 84.9467 75.1426 84.9315 75.1673 84.9214C75.1921 84.9113 75.2187 84.9065 75.2454 84.9073H75.5864ZM75.5864 86.7933C75.6397 86.7946 75.6904 86.8164 75.7281 86.8541C75.7657 86.8917 75.7875 86.9425 75.7888 86.9957V91.62C75.7886 91.6471 75.7829 91.6738 75.7719 91.6986C75.7609 91.7233 75.7449 91.7455 75.7249 91.7638C75.688 91.8004 75.6384 91.8214 75.5864 91.8224H75.2454C75.1917 91.8224 75.1403 91.8011 75.1023 91.7631C75.0643 91.7252 75.043 91.6737 75.043 91.62V86.9957C75.0425 86.969 75.0475 86.9425 75.0575 86.9178C75.0676 86.8931 75.0826 86.8706 75.1016 86.8519C75.1202 86.8326 75.1426 86.8175 75.1673 86.8074C75.1921 86.7973 75.2187 86.7925 75.2454 86.7933H75.5864Z" fill="black"/>
<path d="M83.4072 89.0733V89.4889C83.407 89.516 83.4012 89.5427 83.3902 89.5675C83.3792 89.5922 83.3632 89.6144 83.3432 89.6327C83.3063 89.6693 83.2567 89.6903 83.2047 89.6913H79.9656C79.9582 90.1271 80.1229 90.5482 80.4238 90.8634C80.795 91.1186 81.2425 91.2389 81.6917 91.2043C82.031 91.2046 82.3621 91.1005 82.64 90.906C82.6553 90.8851 82.6754 90.8681 82.6985 90.8563C82.7217 90.8446 82.7473 90.8385 82.7732 90.8385C82.7991 90.8385 82.8247 90.8446 82.8479 90.8563C82.871 90.8681 82.891 90.8851 82.9064 90.906C82.949 90.9486 83.0289 91.0339 83.1408 91.1617C83.1596 91.1824 83.1736 91.207 83.1819 91.2337C83.1901 91.2604 83.1925 91.2885 83.1887 91.3162C83.1886 91.345 83.1813 91.3733 83.1673 91.3984C83.1533 91.4236 83.1332 91.4448 83.1088 91.4601C82.6998 91.7659 82.2024 91.9304 81.6917 91.9289C81.0642 91.9666 80.444 91.7775 79.9443 91.3961C79.6734 91.1163 79.4672 90.7804 79.3402 90.4122C79.2131 90.044 79.1684 89.6525 79.2091 89.2651C79.1387 88.5254 79.352 87.7865 79.8058 87.1981C80.0039 87.0091 80.2396 86.8641 80.4976 86.7723C80.7555 86.6805 81.0299 86.644 81.3028 86.6653C81.5774 86.6442 81.8533 86.6807 82.1129 86.7724C82.3726 86.8642 82.6102 87.0091 82.8105 87.1981C83.2381 87.7259 83.4512 88.3955 83.4072 89.0733ZM79.9656 89.0733H82.672C82.7054 88.5997 82.5652 88.13 82.2777 87.7521C82.1511 87.6312 81.9999 87.5391 81.8344 87.4821C81.6689 87.4251 81.493 87.4045 81.3188 87.4218C81.1431 87.4061 80.966 87.4273 80.799 87.4842C80.632 87.5411 80.4788 87.6324 80.3492 87.7521C80.0659 88.1317 79.9297 88.6011 79.9656 89.0733Z" fill="black"/>
<path d="M90.8071 91.5241C90.828 91.5537 90.8391 91.5891 90.8391 91.6253C90.8391 91.6615 90.828 91.6969 90.8071 91.7265C90.7915 91.7596 90.7665 91.7873 90.7352 91.8062C90.7039 91.8252 90.6678 91.8345 90.6313 91.8331H90.2264C90.1921 91.8333 90.1583 91.8246 90.1284 91.8078C90.0985 91.7909 90.0735 91.7666 90.0559 91.7372L88.2659 88.9989L87.6266 89.6275V91.6306C87.6264 91.6577 87.6206 91.6845 87.6096 91.7092C87.5986 91.734 87.5826 91.7562 87.5626 91.7745C87.5257 91.8111 87.4761 91.8321 87.4241 91.8331H87.0778C87.0242 91.8331 86.9727 91.8117 86.9347 91.7738C86.8967 91.7358 86.8754 91.6843 86.8754 91.6306V84.886C86.8749 84.8593 86.8799 84.8328 86.8899 84.8081C86.9 84.7834 86.915 84.7609 86.934 84.7422C86.9511 84.72 86.9728 84.7018 86.9977 84.689C87.0225 84.6761 87.0499 84.6688 87.0778 84.6676H87.4188C87.4725 84.6676 87.524 84.6889 87.562 84.7269C87.5999 84.7649 87.6213 84.8164 87.6213 84.87V88.5993C88.5909 87.6457 89.1769 87.065 89.39 86.8625C89.4082 86.8446 89.4299 86.8307 89.4537 86.8215C89.4775 86.8124 89.503 86.8082 89.5285 86.8093H90.008C90.0486 86.8094 90.0884 86.8215 90.1222 86.844C90.1561 86.8665 90.1826 86.8984 90.1985 86.9359C90.2144 86.9733 90.2189 87.0146 90.2116 87.0546C90.2042 87.0946 90.1853 87.1315 90.1571 87.1609L88.7933 88.4821C89.7416 89.9471 90.4288 90.9594 90.8071 91.5241Z" fill="black"/>
<path d="M97.7807 91.1192C97.7828 91.298 97.8007 91.4762 97.834 91.6519C97.8397 91.6742 97.8397 91.6976 97.8341 91.7199C97.8286 91.7422 97.8175 91.7628 97.802 91.7798C97.7879 91.7972 97.77 91.811 97.7497 91.8203C97.7293 91.8295 97.7071 91.8339 97.6848 91.8331H97.2692C97.2272 91.8346 97.1861 91.82 97.1544 91.7923C97.1227 91.7646 97.1028 91.7258 97.0988 91.6839C97.0564 91.4842 97.035 91.2807 97.0348 91.0765V91.0126C96.8382 91.2957 96.5774 91.5282 96.2737 91.6912C95.97 91.8541 95.632 91.9429 95.2874 91.9503C94.9006 91.9589 94.5233 91.8306 94.2219 91.588C94.0606 91.4423 93.9338 91.2624 93.8508 91.0615C93.7679 90.8606 93.7308 90.6437 93.7424 90.4266C93.7333 90.0786 93.842 89.7377 94.0509 89.4593C94.2598 89.1808 94.5566 88.981 94.8932 88.8923C95.0432 88.8362 95.1962 88.7882 95.3513 88.7484C95.5131 88.7038 95.6792 88.677 95.8468 88.6685C96.0279 88.6685 96.1611 88.6685 96.241 88.6685C96.3209 88.6685 96.4701 88.6685 96.6779 88.6685H97.0561V88.0612C97.0575 87.9749 97.0378 87.8895 96.9988 87.8125C96.9598 87.7355 96.9027 87.6691 96.8324 87.619C96.6421 87.4976 96.4183 87.4398 96.1931 87.4539C95.9064 87.4503 95.6219 87.5047 95.3567 87.6137C95.1267 87.7034 94.9284 87.8591 94.7866 88.0612C94.776 88.0827 94.7611 88.1018 94.7428 88.1173C94.7245 88.1329 94.7032 88.1445 94.6802 88.1515C94.6573 88.1584 94.6331 88.1607 94.6093 88.158C94.5854 88.1553 94.5624 88.1477 94.5416 88.1358L94.2219 87.9973C94.1962 87.9865 94.173 87.9705 94.1537 87.9503C94.1345 87.9302 94.1196 87.9062 94.11 87.8801C94.0886 87.8252 94.0886 87.7644 94.11 87.7096C94.318 87.3967 94.6071 87.1463 94.9465 86.985C95.3286 86.7955 95.7506 86.7005 96.1771 86.708C96.6054 86.6835 97.0274 86.8203 97.3598 87.0916C97.4998 87.2103 97.6109 87.3593 97.6847 87.5273C97.7585 87.6952 97.7932 87.8778 97.786 88.0612L97.7807 91.1192ZM97.0348 90.3094V89.18C96.5175 89.1594 95.9995 89.1951 95.4899 89.2865C95.2115 89.338 94.9573 89.4781 94.7653 89.6861C94.5737 89.8849 94.4667 90.1504 94.467 90.4266C94.4572 90.5355 94.4713 90.6453 94.5081 90.7483C94.5448 90.8513 94.6035 90.9451 94.6801 91.0233C94.8554 91.1523 95.0701 91.2164 95.2874 91.2044C95.6233 91.197 95.9531 91.1132 96.2517 90.9593C96.5614 90.8091 96.8301 90.5861 97.0348 90.3094Z" fill="black"/>
<path d="M103.811 86.6866C104.044 86.6869 104.272 86.7505 104.471 86.8707C104.67 86.9908 104.832 87.163 104.941 87.3686C105.234 87.9292 105.371 88.5588 105.335 89.1906V91.6306C105.336 91.6573 105.331 91.6839 105.321 91.7087C105.311 91.7334 105.296 91.7558 105.277 91.7744C105.258 91.7934 105.235 91.8084 105.211 91.8185C105.186 91.8285 105.159 91.8335 105.133 91.833H104.792C104.738 91.833 104.687 91.8117 104.649 91.7737C104.611 91.7357 104.589 91.6843 104.589 91.6306V88.791C104.596 88.681 104.596 88.5707 104.589 88.4607C104.582 88.3466 104.561 88.2338 104.525 88.1251C104.502 88.0336 104.462 87.947 104.408 87.8693C104.338 87.738 104.234 87.628 104.106 87.5511C103.979 87.4742 103.833 87.4332 103.684 87.4325C103.517 87.4237 103.35 87.4491 103.193 87.5071C103.042 87.5575 102.898 87.6292 102.767 87.7202C102.654 87.8007 102.554 87.8977 102.469 88.0079C102.34 88.1884 102.236 88.3855 102.16 88.5939V91.6306C102.16 91.6576 102.154 91.6844 102.143 91.7091C102.132 91.7339 102.116 91.7561 102.096 91.7744C102.059 91.811 102.009 91.832 101.957 91.833H101.617C101.563 91.833 101.511 91.8117 101.473 91.7737C101.435 91.7357 101.414 91.6843 101.414 91.6306V87.0063C101.414 86.9796 101.419 86.9531 101.429 86.9284C101.439 86.9036 101.454 86.8812 101.473 86.8625C101.491 86.8432 101.514 86.828 101.538 86.8179C101.563 86.8078 101.59 86.803 101.617 86.8039H101.957C102.011 86.8039 102.063 86.8252 102.101 86.8631C102.139 86.9011 102.16 86.9526 102.16 87.0063V87.6456C102.174 87.6152 102.192 87.5865 102.213 87.5604C102.386 87.2937 102.623 87.0742 102.902 86.9217C103.181 86.7692 103.494 86.6884 103.811 86.6866Z" fill="black"/>
<path d="M111.249 91.4601C111.27 91.5132 111.27 91.5722 111.249 91.6253C111.239 91.6515 111.223 91.6752 111.203 91.6946C111.183 91.714 111.158 91.7285 111.131 91.7372C110.835 91.878 110.511 91.9508 110.183 91.9502C109.862 91.931 109.558 91.7945 109.331 91.5667C109.131 91.3369 109.024 91.0402 109.032 90.7356V87.4645H108.638C108.584 87.4645 108.533 87.4432 108.495 87.4052C108.457 87.3672 108.436 87.3157 108.436 87.2621V86.9318C108.435 86.9051 108.44 86.8785 108.45 86.8538C108.46 86.8291 108.475 86.8067 108.494 86.7879C108.513 86.7687 108.535 86.7535 108.56 86.7434C108.585 86.7333 108.611 86.7285 108.638 86.7293H109.032V85.4188C109.032 85.3921 109.037 85.3655 109.047 85.3408C109.057 85.3161 109.072 85.2937 109.091 85.2749C109.11 85.2556 109.132 85.2405 109.157 85.2304C109.181 85.2203 109.208 85.2155 109.235 85.2163H109.565C109.619 85.2163 109.67 85.2376 109.708 85.2756C109.746 85.3136 109.768 85.3651 109.768 85.4188V86.7293H110.972C111.025 86.7293 111.077 86.7506 111.115 86.7886C111.153 86.8266 111.174 86.8781 111.174 86.9318V87.2621C111.175 87.2888 111.17 87.3154 111.16 87.3402C111.15 87.365 111.135 87.3873 111.115 87.4059C111.097 87.4249 111.074 87.4399 111.05 87.45C111.025 87.46 110.998 87.465 110.972 87.4645H109.768V90.7356C109.761 90.8519 109.799 90.9664 109.874 91.0552C109.976 91.1494 110.109 91.2026 110.247 91.2044C110.454 91.1983 110.658 91.1474 110.844 91.0552C110.867 91.0446 110.893 91.0392 110.918 91.0392C110.944 91.0392 110.969 91.0446 110.993 91.0552C111.018 91.0619 111.04 91.0747 111.059 91.0924C111.078 91.11 111.091 91.1321 111.099 91.1565C111.142 91.2364 111.195 91.3376 111.249 91.4601Z" fill="black"/>
<path d="M118.409 89.1906C118.413 89.2331 118.413 89.2759 118.409 89.3184C118.414 89.3609 118.414 89.4038 118.409 89.4463C118.417 89.8492 118.367 90.2512 118.26 90.6397C118.177 90.9485 118.011 91.2286 117.78 91.4494C117.379 91.7879 116.867 91.9662 116.342 91.9502C115.82 91.9697 115.309 91.7908 114.914 91.4494C114.674 91.1804 114.492 90.8657 114.377 90.5241C114.263 90.1826 114.219 89.8213 114.248 89.4623V89.2066C114.212 88.8475 114.249 88.4848 114.357 88.1405C114.465 87.7961 114.642 87.4773 114.877 87.2034C115.271 86.8597 115.782 86.6804 116.304 86.7026C116.83 86.6815 117.344 86.8604 117.743 87.2034C118.201 87.5764 118.409 88.2423 118.409 89.1906ZM117.663 89.4463V89.1906C117.669 88.8902 117.642 88.5901 117.583 88.2956C117.541 88.0755 117.431 87.8742 117.269 87.7202C116.996 87.5226 116.668 87.4163 116.331 87.4163C115.994 87.4163 115.666 87.5226 115.393 87.7202C115.239 87.879 115.134 88.0787 115.09 88.2956C115.031 88.5901 115.004 88.8902 115.01 89.1906V89.4623C115.004 89.7626 115.031 90.0627 115.09 90.3573C115.134 90.5742 115.239 90.7739 115.393 90.9327C115.67 91.12 115.997 91.2202 116.331 91.2202C116.665 91.2202 116.992 91.12 117.269 90.9327C117.431 90.7787 117.541 90.5774 117.583 90.3573C117.642 90.0627 117.669 89.7626 117.663 89.4623V89.4463Z" fill="black"/>
<path d="M125.867 89.1906C125.872 89.2331 125.872 89.2759 125.867 89.3184C125.872 89.3609 125.872 89.4038 125.867 89.4463C125.875 89.8492 125.825 90.2512 125.718 90.6397C125.636 90.9485 125.47 91.2286 125.239 91.4494C124.837 91.7879 124.325 91.9662 123.8 91.9502C123.278 91.9697 122.768 91.7908 122.372 91.4494C122.133 91.1804 121.95 90.8657 121.836 90.5241C121.721 90.1826 121.677 89.8213 121.706 89.4623V89.2066C121.67 88.8475 121.707 88.4848 121.815 88.1405C121.923 87.7961 122.1 87.4773 122.335 87.2034C122.729 86.8597 123.24 86.6804 123.763 86.7026C124.288 86.6815 124.803 86.8604 125.201 87.2034C125.659 87.5764 125.867 88.2423 125.867 89.1906ZM125.121 89.4463V89.1906C125.127 88.8902 125.1 88.5901 125.042 88.2956C125 88.0755 124.89 87.8742 124.727 87.7202C124.454 87.5226 124.126 87.4163 123.79 87.4163C123.453 87.4163 123.125 87.5226 122.852 87.7202C122.698 87.879 122.592 88.0787 122.548 88.2956C122.489 88.5901 122.462 88.8902 122.468 89.1906V89.4623C122.462 89.7626 122.489 90.0627 122.548 90.3573C122.592 90.5742 122.698 90.7739 122.852 90.9327C123.129 91.12 123.455 91.2202 123.79 91.2202C124.124 91.2202 124.45 91.12 124.727 90.9327C124.89 90.7787 125 90.5774 125.042 90.3573C125.1 90.0627 125.127 89.7626 125.121 89.4623V89.4463Z" fill="black"/>
<path d="M131.877 86.6973C131.901 86.6991 131.925 86.7056 131.947 86.7166C131.969 86.7275 131.988 86.7427 132.005 86.7613C132.023 86.7791 132.037 86.8007 132.046 86.8246C132.056 86.8486 132.06 86.8742 132.058 86.8998V87.262C132.059 87.294 132.052 87.3257 132.038 87.3545C132.024 87.3833 132.004 87.4082 131.978 87.4272C131.953 87.4449 131.924 87.4574 131.894 87.4638C131.864 87.4702 131.832 87.4704 131.802 87.4645C131.737 87.4426 131.668 87.4318 131.6 87.4325C131.357 87.4287 131.121 87.5118 130.934 87.6669C130.732 87.8184 130.552 87.9978 130.401 88.1997C130.268 88.3777 130.164 88.5755 130.092 88.7857V91.6199C130.092 91.647 130.086 91.6738 130.075 91.6985C130.064 91.7233 130.048 91.7455 130.028 91.7638C129.991 91.8004 129.941 91.8214 129.89 91.8224H129.549C129.495 91.8224 129.443 91.801 129.405 91.7631C129.367 91.7251 129.346 91.6736 129.346 91.6199V86.9957C129.346 86.969 129.351 86.9425 129.361 86.9177C129.371 86.893 129.386 86.8706 129.405 86.8518C129.423 86.8326 129.446 86.8174 129.47 86.8073C129.495 86.7972 129.522 86.7924 129.549 86.7932H129.89C129.943 86.7932 129.995 86.8146 130.033 86.8525C130.071 86.8905 130.092 86.942 130.092 86.9957V87.635C130.106 87.6045 130.124 87.5758 130.145 87.5497C130.318 87.283 130.555 87.0636 130.834 86.911C131.113 86.7585 131.426 86.6778 131.743 86.676C131.789 86.6762 131.834 86.6834 131.877 86.6973Z" fill="black"/>
<path d="M66.0183 37.5085H55.976C54.3077 37.5085 52.9553 38.861 52.9553 40.5292V46.6399C52.9553 48.3081 54.3077 49.6605 55.976 49.6605H66.0183C67.6865 49.6605 69.039 48.3081 69.039 46.6399V40.5292C69.039 38.861 67.6865 37.5085 66.0183 37.5085Z" stroke="#DBF6F0" stroke-width="4" stroke-miterlimit="10"/>
<path d="M82.1872 44.4344L97.7914 60.0705C100.759 63.0433 104.952 61.9032 107.205 58.8559L139.548 15.1705L144.125 9.01721C146.053 6.4174 144.551 2.32589 141.994 0.818208C138.946 -0.966501 135.728 0.360043 133.795 2.9492L101.451 46.6346L96.8751 52.8145L106.257 51.5945L90.6632 35.9583C85.2079 30.4923 76.7319 38.963 82.1872 44.4344Z" fill="white"/>
<path d="M83.6043 43.0226L99.2032 58.6587C101.18 60.6406 103.998 59.8787 105.479 57.849L137.822 14.1635L142.398 7.98366C143.693 6.23625 142.67 3.54054 140.965 2.51766C138.946 1.30832 136.773 2.22465 135.499 3.95075L103.156 47.6362L98.5798 53.816L104.856 53.0063L89.2514 37.3701C85.6127 33.7261 79.9656 39.3732 83.6043 43.0226Z" fill="#7CD7AF"/>
</svg>
