<svg viewBox="0 0 329 265" fill="none" xmlns="http://www.w3.org/2000/svg">
<g clip-path="url(#clip0)">
<path d="M166.412 265C256.161 265 328.918 259.316 328.918 252.304C328.918 245.292 256.161 239.608 166.412 239.608C76.6626 239.608 3.90637 245.292 3.90637 252.304C3.90637 259.316 76.6626 265 166.412 265Z" fill="#3F3D56"/>
<path d="M304.452 228.719L305.975 239.888L295.313 240.904L296.836 227.196L304.452 228.719Z" fill="#A0616A"/>
<path d="M254.189 75.3936C254.189 75.3936 255.205 89.1015 255.205 89.6092C255.205 90.1169 248.097 125.148 248.097 125.148C248.097 125.148 237.943 144.441 248.097 143.933C258.251 143.425 255.205 125.656 255.205 125.656L265.866 96.2093L261.297 75.3936L254.189 75.3936Z" fill="#A0616A"/>
<path d="M270.944 228.719L269.42 239.888L280.082 240.904L278.559 227.196L270.944 228.719Z" fill="#A0616A"/>
<path d="M259.266 124.133L256.728 127.687C256.728 127.687 255.204 142.918 256.728 147.995C258.251 153.072 261.297 176.426 261.297 177.949C261.297 179.472 261.805 180.487 261.297 180.995C260.789 181.503 259.266 181.503 260.281 182.518C261.297 183.534 261.297 186.58 261.297 186.58V189.118L267.897 226.688C267.897 226.688 263.835 231.257 266.882 231.257C269.928 231.257 281.097 231.257 280.59 226.18L279.574 225.673C279.574 225.673 278.051 192.165 278.559 190.641C279.066 189.118 278.559 186.072 278.559 186.072C278.559 186.072 277.543 184.549 278.559 184.041C279.574 183.534 279.574 179.472 279.574 179.472L284.143 148.502C284.143 148.502 288.205 169.318 290.744 171.349C293.282 173.38 292.774 178.457 292.774 178.457L294.805 223.134C294.805 223.134 292.774 228.211 294.805 229.227C296.836 230.242 305.467 233.796 305.975 228.719C306.482 223.642 309.021 179.472 309.021 177.441C309.021 175.41 308.513 174.395 309.021 172.872C309.528 171.349 308.513 171.349 309.021 171.349C309.528 171.349 308.005 169.826 308.005 168.81V143.933C308.005 143.933 308.513 138.856 309.021 137.841C309.528 136.825 308.513 135.81 309.021 134.287C309.528 132.764 308.005 127.687 308.005 127.687L285.159 121.594L259.266 124.133Z" fill="#2F2E41"/>
<path d="M277.036 237.858C277.036 237.858 279.574 235.319 276.02 235.319C273.739 235.366 271.491 235.884 269.42 236.842L266.882 245.981C266.882 245.981 256.474 254.358 268.151 253.342C279.828 252.327 278.051 253.089 278.051 253.089C278.051 253.089 281.605 252.073 282.113 251.058C282.62 250.042 281.097 235.319 281.097 235.319C281.097 235.319 279.574 239.381 277.036 237.858Z" fill="#2F2E41"/>
<path d="M298.867 237.858C298.867 237.858 296.328 235.319 299.882 235.319C302.164 235.366 304.411 235.884 306.482 236.842L309.021 245.981C309.021 245.981 319.429 254.358 307.752 253.342C296.074 252.327 296.328 253.089 296.328 253.089C296.328 253.089 292.774 252.073 292.267 251.058C291.759 250.042 294.805 235.319 294.805 235.319C294.805 235.319 296.328 239.381 298.867 237.858Z" fill="#2F2E41"/>
<path d="M265.866 35.2852C273.156 35.2852 279.066 29.3752 279.066 22.085C279.066 14.7947 273.156 8.88477 265.866 8.88477C258.576 8.88477 252.666 14.7947 252.666 22.085C252.666 29.3752 258.576 35.2852 265.866 35.2852Z" fill="#A0616A"/>
<path d="M261.297 31.7313C261.297 31.7313 263.328 41.8853 263.328 43.4084C263.328 44.9315 271.959 49.5008 271.959 49.5008L281.605 37.316C281.605 37.316 275.513 28.6851 275.513 26.6543L261.297 31.7313Z" fill="#A0616A"/>
<path d="M268.912 44.9314C268.912 44.9314 264.487 43.7536 263.146 41.804C263.146 41.804 249.112 55.5931 249.112 58.1316L260.282 77.9319C260.282 77.9319 260.282 85.0397 261.297 85.5474C262.312 86.0551 261.297 85.5474 261.297 87.5782C261.297 89.6091 258.251 102.809 259.266 104.84C260.282 106.871 261.297 105.348 260.282 108.394C259.266 111.44 256.728 127.687 256.728 127.687C256.728 127.687 265.866 124.64 279.067 129.717C292.267 134.794 308.005 127.687 308.005 127.687C308.005 127.687 303.944 118.548 304.959 115.502C305.975 112.456 302.421 106.871 302.421 106.871L299.882 60.1624C299.882 60.1624 303.436 39.3467 300.898 38.3313L295.821 36.3005L279.562 34.3022C279.562 34.3022 275.513 44.4237 268.912 44.9314Z" fill="#D0CDE1"/>
<path d="M254.189 54.5779L249.112 58.1318C249.112 58.1318 246.574 65.7473 249.112 69.3012C251.651 72.8551 252.666 77.9321 252.666 77.9321L262.82 76.9167L254.189 54.5779Z" fill="#D0CDE1"/>
<path d="M255.788 8.1346L253.498 7.21792C253.498 7.21792 258.286 1.94703 264.947 2.40538L263.073 0.342828C263.073 0.342828 267.653 -1.49051 271.816 3.32203C274.005 5.85188 276.537 8.82558 278.115 12.1754H280.567L279.544 14.4289L283.126 16.6824L279.449 16.2776C279.798 18.2231 279.678 20.2235 279.102 22.1139L279.2 23.8951C279.2 23.8951 274.938 17.3014 274.938 16.3847V18.6764C274.938 18.6764 272.649 16.6139 272.649 15.2388L271.4 16.843L270.775 14.3222L263.073 16.843L264.322 14.7805L259.535 15.468L261.408 12.9472C261.408 12.9472 255.996 15.9264 255.788 18.4472C255.58 20.9681 252.874 24.1765 252.874 24.1765L251.625 21.8848C251.625 21.8848 249.751 11.5721 255.788 8.1346Z" fill="#2F2E41"/>
<path d="M258.85 110.485H57.0994V252.208H258.85V110.485Z" fill="#F2F2F2"/>
<path d="M124.74 164.559H74.0826V252.989H124.74V164.559Z" fill="#3F3D56"/>
<path d="M97.0984 169.864H83.4528V182.585H97.0984V169.864Z" fill="#F2F2F2"/>
<path d="M115.37 169.864H101.724V182.585H115.37V169.864Z" fill="#F2F2F2"/>
<path d="M97.0984 187.21H83.4528V200.393H97.0984V187.21Z" fill="#F2F2F2"/>
<path d="M115.37 187.21H101.724V200.393H115.37V187.21Z" fill="#F2F2F2"/>
<path d="M118.298 217.949C120.077 217.949 121.519 216.506 121.519 214.728C121.519 212.949 120.077 211.507 118.298 211.507C116.519 211.507 115.077 212.949 115.077 214.728C115.077 216.506 116.519 217.949 118.298 217.949Z" fill="#DBF6F0"/>
<path d="M241.866 156.164H141.723V240.203H241.866V156.164Z" fill="#3F3D56"/>
<path d="M279.932 137.166H36.0165L52.2795 103.164L55.9191 95.5513L60.6806 85.5954L64.3202 77.9823L68.5395 69.1628H260.715L263.207 77.9823L265.359 85.5954L268.173 95.5513L270.325 103.164L279.932 137.166Z" fill="#3F3D56"/>
<path d="M148.751 191.01H145.237V212.678H148.751V191.01Z" fill="#DBF6F0"/>
<path d="M148.751 194.23H145.237V196.866H148.751V194.23Z" fill="#F2F2F2"/>
<path d="M148.751 206.822H145.237V209.457H148.751V206.822Z" fill="#F2F2F2"/>
<path d="M158.999 191.01H150.508V212.678H158.999V191.01Z" fill="#DBF6F0"/>
<path d="M158.999 194.23H150.508V196.866H158.999V194.23Z" fill="#F2F2F2"/>
<path d="M158.999 206.822H150.508V209.457H158.999V206.822Z" fill="#F2F2F2"/>
<path d="M164.563 191.01H161.049V212.678H164.563V191.01Z" fill="#DBF6F0"/>
<path d="M164.563 194.23H161.049V196.866H164.563V194.23Z" fill="#F2F2F2"/>
<path d="M164.563 206.822H161.049V209.457H164.563V206.822Z" fill="#F2F2F2"/>
<path d="M169.834 191.01H166.32V212.678H169.834V191.01Z" fill="#DBF6F0"/>
<path d="M169.834 194.23H166.32V196.866H169.834V194.23Z" fill="#F2F2F2"/>
<path d="M169.834 206.822H166.32V209.457H169.834V206.822Z" fill="#F2F2F2"/>
<path d="M173.219 191.086L169.932 192.326L177.575 212.601L180.863 211.362L173.219 191.086Z" fill="#DBF6F0"/>
<path d="M174.356 194.1L171.068 195.34L171.997 197.806L175.285 196.566L174.356 194.1Z" fill="#F2F2F2"/>
<path d="M178.797 205.882L175.509 207.121L176.438 209.587L179.726 208.348L178.797 205.882Z" fill="#F2F2F2"/>
<path d="M238.645 191.01H230.154V212.678H238.645V191.01Z" fill="#DBF6F0"/>
<path d="M238.645 194.23H230.154V196.866H238.645V194.23Z" fill="#F2F2F2"/>
<path d="M238.645 206.822H230.154V209.457H238.645V206.822Z" fill="#F2F2F2"/>
<path d="M228.104 191.01H224.59V212.678H228.104V191.01Z" fill="#DBF6F0"/>
<path d="M228.104 194.23H224.59V196.866H228.104V194.23Z" fill="#F2F2F2"/>
<path d="M228.104 206.822H224.59V209.457H228.104V206.822Z" fill="#F2F2F2"/>
<path d="M222.833 191.01H219.319V212.678H222.833V191.01Z" fill="#DBF6F0"/>
<path d="M222.833 194.23H219.319V196.866H222.833V194.23Z" fill="#F2F2F2"/>
<path d="M222.833 206.822H219.319V209.457H222.833V206.822Z" fill="#F2F2F2"/>
<path d="M215.934 191.086L208.291 211.362L211.578 212.601L219.221 192.326L215.934 191.086Z" fill="#DBF6F0"/>
<path d="M214.797 194.1L213.868 196.566L217.156 197.806L218.085 195.34L214.797 194.1Z" fill="#F2F2F2"/>
<path d="M210.356 205.882L209.427 208.348L212.715 209.587L213.644 207.121L210.356 205.882Z" fill="#F2F2F2"/>
<path d="M241.866 212.678H141.723V214.728H241.866V212.678Z" fill="#F2F2F2"/>
<path d="M203.8 191.01H185.353V212.678H203.8V191.01Z" fill="#DBF6F0"/>
<path d="M199.262 195.695H189.891V199.794H199.262V195.695Z" fill="#F2F2F2"/>
<path d="M192.673 156.164H190.916V174.905H192.673V156.164Z" fill="#F2F2F2"/>
<path d="M191.795 177.833C193.412 177.833 194.723 176.522 194.723 174.905C194.723 173.288 193.412 171.977 191.795 171.977C190.178 171.977 188.867 173.288 188.867 174.905C188.867 176.522 190.178 177.833 191.795 177.833Z" fill="#F2F2F2"/>
<path d="M265.359 85.5956H60.6807L64.3202 77.9824H263.207L265.359 85.5956Z" fill="#DBF6F0"/>
<path d="M270.325 103.164H52.2795L55.9191 95.5513H268.173L270.325 103.164Z" fill="#DBF6F0"/>
<path d="M291.759 59.1472C291.759 59.1472 288.819 66.7073 289.433 74.1872C289.545 75.5264 289.996 76.8151 290.744 77.9321L254.725 95.032C254.725 95.032 238.45 96.717 242.512 103.825C246.574 110.933 261.297 100.271 261.297 100.271C261.297 100.271 299.882 94.6862 302.928 89.1015C305.975 83.5168 308.005 60.1626 308.005 60.1626L291.759 59.1472Z" fill="#A0616A"/>
<path d="M293.282 38.3313H300.898C300.898 38.3313 306.482 39.3467 308.005 49.5007C309.528 59.6547 311.052 62.1932 309.528 62.1932C308.005 62.1932 289.728 61.6855 289.728 61.1778C289.728 60.6701 293.282 38.3313 293.282 38.3313Z" fill="#D0CDE1"/>
<path d="M39.0639 189.997C60.6382 189.997 78.1277 172.508 78.1277 150.933C78.1277 129.359 60.6382 111.87 39.0639 111.87C17.4895 111.87 0 129.359 0 150.933C0 172.508 17.4895 189.997 39.0639 189.997Z" fill="#DBF6F0"/>
<path opacity="0.1" d="M39.0639 184.528C57.6179 184.528 72.6588 169.488 72.6588 150.934C72.6588 132.38 57.6179 117.339 39.0639 117.339C20.51 117.339 5.46899 132.38 5.46899 150.934C5.46899 169.488 20.51 184.528 39.0639 184.528Z" fill="black"/>
<path d="M37.454 170.758V165.868C34.9823 165.82 32.4253 164.948 30.9338 163.738L31.9565 160.494C33.729 161.823 35.8785 162.552 38.0932 162.576C41.119 162.576 43.1646 160.591 43.1646 157.831C43.1646 155.169 41.5025 153.523 38.349 152.07C34.0021 150.134 31.3173 147.907 31.3173 143.695C31.3173 139.677 33.8317 136.627 37.7524 135.901V131.011H40.3945V135.707C42.3647 135.734 44.2865 136.322 45.9347 137.401L44.8691 140.597C43.2884 139.515 41.4152 138.94 39.4996 138.951C36.2183 138.951 34.9823 141.177 34.9823 143.114C34.9823 145.631 36.5591 146.89 40.2668 148.633C44.6561 150.666 46.8723 153.184 46.8723 157.493C46.8723 161.317 44.5283 164.9 40.1388 165.722V170.758H37.454Z" fill="#F2F2F2"/>
</g>
<defs>
<clipPath id="clip0">
<rect width="328.918" height="265" fill="white"/>
</clipPath>
</defs>
</svg>
