<svg viewBox="0 0 644 447" fill="none" xmlns="http://www.w3.org/2000/svg">
<g clip-path="url(#clip0)">
<path d="M0 0V216.442H216.234V0H0ZM109.88 211.737C108.717 211.737 107.581 211.392 106.615 210.746C105.649 210.099 104.896 209.181 104.451 208.106C104.006 207.031 103.89 205.849 104.117 204.708C104.343 203.567 104.903 202.519 105.725 201.696C106.546 200.874 107.593 200.314 108.733 200.087C109.873 199.86 111.054 199.976 112.128 200.421C113.202 200.867 114.12 201.62 114.765 202.588C115.411 203.555 115.755 204.692 115.755 205.855C115.755 207.415 115.136 208.911 114.034 210.014C112.933 211.117 111.438 211.737 109.88 211.737Z" fill="#DBF6F0"/>
<path d="M644 252.908C644 349.301 573.789 429.29 481.766 444.424C471.296 446.142 460.704 447.003 450.095 447C424.629 447.005 399.412 441.989 375.884 432.237C352.356 422.484 330.978 408.188 312.971 390.164C294.964 372.14 280.682 350.741 270.939 327.19C261.196 303.639 256.184 278.398 256.19 252.908C256.19 145.716 343.006 58.8157 450.095 58.8157C490.567 58.7536 530.036 71.4278 562.918 95.0462C612.012 130.253 644 187.84 644 252.908Z" fill="#DBF6F0"/>
<path d="M584.693 64.635L601.534 59.3792L602.986 44.5332C602.986 44.5332 562.027 29.046 548.932 56.4401C544.308 66.1125 538.481 71.9215 532.876 75.3893C525.156 80.166 515.64 80.7265 507.115 77.61C478.728 67.2326 472.043 96.7435 472.043 96.7435C472.043 96.7435 474.497 100.944 491.995 101.977C500.704 102.491 507.829 109.051 512.791 115.511C523.415 129.346 545.237 125.347 550.596 108.743C550.682 108.475 550.767 108.204 550.851 107.93C559.222 80.4824 597.33 102.336 597.33 102.336L599.763 77.4755L584.693 64.635Z" fill="#2F2E41"/>
<path d="M469.946 131.821C481.337 131.821 490.572 122.577 490.572 111.175C490.572 99.7723 481.337 90.5288 469.946 90.5288C458.554 90.5288 449.32 99.7723 449.32 111.175C449.32 122.577 458.554 131.821 469.946 131.821Z" fill="#2F2E41"/>
<path d="M459.633 221.287C490.01 221.287 514.636 196.637 514.636 166.231C514.636 135.824 490.01 111.175 459.633 111.175C429.256 111.175 404.63 135.824 404.63 166.231C404.63 196.637 429.256 221.287 459.633 221.287Z" fill="#2F2E41"/>
<path d="M457.914 224.154C478.799 224.154 495.729 207.208 495.729 186.303C495.729 165.399 478.799 148.452 457.914 148.452C437.03 148.452 420.1 165.399 420.1 186.303C420.1 207.208 437.03 224.154 457.914 224.154Z" fill="#A0616A"/>
<path d="M443.017 214.979L449.893 251.683L484.27 247.095C484.27 247.095 478.54 218.42 481.978 210.391L443.017 214.979Z" fill="#A0616A"/>
<path d="M273.425 357.206C273.425 357.206 234.465 334.266 231.027 350.324C227.589 366.382 269.987 373.264 269.987 373.264L273.425 357.206Z" fill="#A0616A"/>
<path d="M510.625 134.688C510.625 134.688 483.124 114.042 471.665 122.071C460.206 130.1 502.604 156.481 507.188 154.187C511.771 151.893 510.625 134.688 510.625 134.688Z" fill="#A0616A"/>
<path d="M484.27 227.595L443.017 234.477V252.829C443.017 252.829 404.057 265.446 404.057 271.181C404.057 276.916 393.744 298.709 393.744 298.709C393.744 298.709 368.534 317.061 389.16 338.854C389.16 338.854 397.182 351.471 391.452 352.618C385.723 353.765 373.118 357.206 378.847 361.794C384.577 366.382 470.519 397.351 477.394 395.057C484.27 392.763 536.981 311.326 536.981 290.68C536.981 270.034 515.209 240.212 515.209 240.212L489.999 236.771L484.27 227.595Z" fill="#D0CDE1"/>
<path d="M407.495 270.034C407.495 270.034 391.452 267.74 385.723 287.239C379.993 306.738 360.513 369.823 360.513 369.823C360.513 369.823 290.613 368.676 272.279 351.471L264.258 377.852C264.258 377.852 369.68 415.703 378.847 408.821C388.014 401.939 428.121 290.68 428.121 290.68L407.495 270.034Z" fill="#D0CDE1"/>
<path d="M511.771 243.653L515.209 240.212C515.209 240.212 558.753 193.185 557.607 181.715C557.607 181.715 534.689 153.04 506.042 161.069C506.042 161.069 493.437 130.1 512.917 131.247C532.397 132.394 604.589 127.806 603.443 161.069C602.297 194.332 533.543 296.415 533.543 296.415L511.771 243.653Z" fill="#D0CDE1"/>
<path d="M481.766 444.424C471.296 446.142 460.704 447.004 450.095 447C416.384 447.053 383.247 438.266 353.983 421.515L360.793 407.711L382.469 363.74L383.433 361.793L399.221 366.558L478.54 390.472L478.758 394.136L481.766 444.424Z" fill="#2F2E41"/>
<path d="M495.432 169.248C499.713 156.654 487.156 140.986 467.385 134.252C447.613 127.518 428.115 132.268 423.834 144.862C419.553 157.456 432.11 173.124 451.881 179.858C471.652 186.592 491.151 181.841 495.432 169.248Z" fill="#2F2E41"/>
<path d="M110.818 207.359C118.781 192.754 137.855 183.507 153.457 191.842C160.48 195.594 166.063 202.231 167.835 210.075C169.894 219.188 165.558 227.876 161.085 235.532C158.657 239.687 155.996 243.758 153.987 248.141C151.906 252.679 150.419 257.925 151.986 262.863C153.397 267.311 156.932 270.547 160.804 272.925C165.078 275.449 169.624 277.48 174.355 278.98C184.093 282.222 194.365 283.552 204.607 282.898C209.697 282.551 214.745 281.735 219.685 280.458C224.94 279.117 230.096 277.417 235.36 276.108C244.148 273.923 254.168 272.837 262.501 277.228C270.597 281.493 274.22 290.414 275.341 299.092C277.411 315.117 271.063 331.747 259.602 342.97C254.103 348.354 247.184 352.802 239.647 354.622C233.071 356.21 224.627 356.108 219.395 351.187C213.555 345.696 214.926 336.89 219.567 331.096C225.487 323.703 235.516 321.928 244.465 321.748C254.646 321.543 264.817 323.061 274.992 322.117C279.958 321.73 284.832 320.554 289.428 318.632C293.469 316.853 297.155 314.356 300.307 311.263C306.588 305.154 310.823 297.016 312.932 288.555C315.469 278.379 314.916 267.686 312.947 257.466C311.897 252.195 310.546 246.99 308.899 241.875C308.219 239.717 304.814 240.638 305.5 242.813C311.564 262.06 314.944 284.315 303.229 302.185C298.38 309.763 290.827 315.206 282.109 317.403C271.969 319.925 261.328 318.678 251.02 318.303C241.218 317.946 230.456 318.331 222.052 324.045C215.159 328.733 210.338 337.648 212.421 346.064C214.43 354.181 222.223 358.296 230.017 358.932C238.194 359.599 246.242 356.852 253.109 352.556C267.395 343.62 276.894 327.905 278.882 311.243C279.918 302.561 278.864 293.209 274.931 285.329C272.858 281.063 269.632 277.465 265.619 274.941C261.618 272.486 256.996 271.277 252.354 270.849C241.808 269.877 231.675 273.501 221.671 276.274C216.561 277.758 211.322 278.759 206.025 279.263C200.884 279.69 195.713 279.605 190.588 279.012C185.503 278.411 180.491 277.298 175.629 275.689C170.866 274.215 166.304 272.15 162.052 269.544C158.3 267.143 155.055 263.703 154.871 259.019C154.67 253.937 157.23 249.183 159.666 244.898C164.476 236.434 170.416 228.155 171.673 218.246C172.772 209.579 169.287 201.035 163.271 194.853C160.256 191.715 156.625 189.235 152.607 187.566C148.59 185.898 144.271 185.078 139.922 185.158C130.995 185.413 122.447 189.299 115.881 195.267C112.625 198.229 109.885 201.714 107.774 205.578C106.687 207.572 109.73 209.355 110.818 207.359Z" fill="#3F3D56"/>
<path d="M116.931 19.9976C111.336 19.9978 105.894 21.8229 101.429 25.1963C96.9638 28.5698 93.7183 33.3078 92.1843 38.693C90.6502 44.0781 90.9111 49.8169 92.9275 55.0404C94.9438 60.2638 98.6058 64.6872 103.359 67.6408C103.433 67.6873 103.513 67.7272 103.588 67.773C104.538 64.9861 106.335 62.5664 108.728 60.8531C111.121 59.1397 113.989 58.2185 116.931 58.2185C119.873 58.2185 122.741 59.1397 125.133 60.8531C127.526 62.5664 129.323 64.9861 130.273 67.773C130.349 67.7272 130.428 67.6873 130.503 67.6408C135.256 64.6872 138.917 60.2638 140.934 55.0404C142.95 49.8169 143.211 44.0781 141.677 38.693C140.143 33.3078 136.898 28.5698 132.432 25.1963C127.967 21.8229 122.525 19.9978 116.931 19.9976ZM116.931 55.7258C115.125 55.7258 113.359 55.1898 111.858 54.1855C110.356 53.1812 109.186 51.7537 108.495 50.0837C107.804 48.4136 107.623 46.5759 107.975 44.8029C108.327 43.03 109.197 41.4014 110.474 40.1232C111.751 38.845 113.378 37.9745 115.149 37.6218C116.921 37.2692 118.756 37.4502 120.425 38.1419C122.093 38.8337 123.519 40.0052 124.523 41.5082C125.526 43.0112 126.062 44.7783 126.062 46.586C126.062 49.01 125.1 51.3348 123.387 53.0488C121.675 54.7629 119.352 55.7258 116.931 55.7258Z" fill="#3F3D56"/>
<path d="M72.8614 96.4579C75.4575 96.4579 77.5621 94.3513 77.5621 91.7526C77.5621 89.154 75.4575 87.0474 72.8614 87.0474C70.2652 87.0474 68.1606 89.154 68.1606 91.7526C68.1606 94.3513 70.2652 96.4579 72.8614 96.4579Z" fill="#3F3D56"/>
<path d="M72.8614 117.632C75.4575 117.632 77.5621 115.525 77.5621 112.926C77.5621 110.328 75.4575 108.221 72.8614 108.221C70.2652 108.221 68.1606 110.328 68.1606 112.926C68.1606 115.525 70.2652 117.632 72.8614 117.632Z" fill="#3F3D56"/>
<path d="M72.8614 138.805C75.4575 138.805 77.5621 136.698 77.5621 134.1C77.5621 131.501 75.4575 129.395 72.8614 129.395C70.2652 129.395 68.1606 131.501 68.1606 134.1C68.1606 136.698 70.2652 138.805 72.8614 138.805Z" fill="#3F3D56"/>
<path d="M72.8614 159.979C75.4575 159.979 77.5621 157.872 77.5621 155.274C77.5621 152.675 75.4575 150.568 72.8614 150.568C70.2652 150.568 68.1606 152.675 68.1606 155.274C68.1606 157.872 70.2652 159.979 72.8614 159.979Z" fill="#3F3D56"/>
<path d="M143.372 129.395H90.4891C87.8929 129.395 85.7883 131.501 85.7883 134.1V134.1C85.7883 136.698 87.8929 138.805 90.4891 138.805H143.372C145.968 138.805 148.073 136.698 148.073 134.1C148.073 131.501 145.968 129.395 143.372 129.395Z" fill="#3F3D56"/>
<path d="M143.372 150.568H90.4891C87.8929 150.568 85.7883 152.675 85.7883 155.274C85.7883 157.872 87.8929 159.979 90.4891 159.979H143.372C145.968 159.979 148.073 157.872 148.073 155.274C148.073 152.675 145.968 150.568 143.372 150.568Z" fill="#3F3D56"/>
<path d="M143.372 108.221H90.4891C87.8929 108.221 85.7883 110.328 85.7883 112.926V112.926C85.7883 115.525 87.8929 117.632 90.4891 117.632H143.372C145.968 117.632 148.073 115.525 148.073 112.926C148.073 110.328 145.968 108.221 143.372 108.221Z" fill="#3F3D56"/>
<path d="M143.372 87.0474H90.4891C87.8929 87.0474 85.7883 89.154 85.7883 91.7526V91.7526C85.7883 94.3513 87.8929 96.4579 90.4891 96.4579H143.372C145.968 96.4579 148.073 94.3513 148.073 91.7526C148.073 89.154 145.968 87.0474 143.372 87.0474Z" fill="#3F3D56"/>
</g>
<defs>
<clipPath id="clip0">
<rect  fill="white"/>
</clipPath>
</defs>
</svg>
