<svg viewBox="0 0 409 139" fill="none" xmlns="http://www.w3.org/2000/svg">
  <rect width="4" height="4" fill="#7CD7AF"/>
  <rect y="60" width="4" height="4" fill="#7CD7AF"/>
  <rect y="30" width="4" height="4" fill="#7CD7AF"/>
  <rect y="90" width="4" height="4" fill="#7CD7AF"/>
  <rect y="120" width="4" height="4" fill="#7CD7AF"/>
  <rect y="15" width="4" height="4" fill="#7CD7AF"/>
  <rect y="75" width="4" height="4" fill="#7CD7AF"/>
  <rect y="45" width="4" height="4" fill="#7CD7AF"/>
  <rect y="105" width="4" height="4" fill="#7CD7AF"/>
  <rect y="135" width="4" height="4" fill="#7CD7AF"/>
  <rect x="90" width="4" height="4" fill="#7CD7AF"/>
  <rect x="90" y="60" width="4" height="4" fill="#7CD7AF"/>
  <rect x="90" y="30" width="4" height="4" fill="#7CD7AF"/>
  <rect x="90" y="90" width="4" height="4" fill="#7CD7AF"/>
  <rect x="90" y="120" width="4" height="4" fill="#7CD7AF"/>
  <rect x="90" y="15" width="4" height="4" fill="#7CD7AF"/>
  <rect x="90" y="75" width="4" height="4" fill="#7CD7AF"/>
  <rect x="90" y="45" width="4" height="4" fill="#7CD7AF"/>
  <rect x="90" y="105" width="4" height="4" fill="#7CD7AF"/>
  <rect x="90" y="135" width="4" height="4" fill="#7CD7AF"/>
  <rect x="210" width="4" height="4" fill="#7CD7AF"/>
  <rect x="330" width="4" height="4" fill="#7CD7AF"/>
  <rect x="210" y="60" width="4" height="4" fill="#7CD7AF"/>
  <rect x="330" y="60" width="4" height="4" fill="#7CD7AF"/>
  <rect x="210" y="30" width="4" height="4" fill="#7CD7AF"/>
  <rect x="330" y="30" width="4" height="4" fill="#7CD7AF"/>
  <rect x="210" y="90" width="4" height="4" fill="#7CD7AF"/>
  <rect x="210" y="120" width="4" height="4" fill="#7CD7AF"/>
  <rect x="330" y="90" width="4" height="4" fill="#7CD7AF"/>
  <rect x="330" y="120" width="4" height="4" fill="#7CD7AF"/>
  <rect x="210" y="15" width="4" height="4" fill="#7CD7AF"/>
  <rect x="330" y="15" width="4" height="4" fill="#7CD7AF"/>
  <rect x="210" y="75" width="4" height="4" fill="#7CD7AF"/>
  <rect x="330" y="75" width="4" height="4" fill="#7CD7AF"/>
  <rect x="210" y="45" width="4" height="4" fill="#7CD7AF"/>
  <rect x="330" y="45" width="4" height="4" fill="#7CD7AF"/>
  <rect x="210" y="105" width="4" height="4" fill="#7CD7AF"/>
  <rect x="210" y="135" width="4" height="4" fill="#7CD7AF"/>
  <rect x="330" y="105" width="4" height="4" fill="#7CD7AF"/>
  <rect x="330" y="135" width="4" height="4" fill="#7CD7AF"/>
  <rect x="195" width="4" height="4" fill="#7CD7AF"/>
  <rect x="315" width="4" height="4" fill="#7CD7AF"/>
  <rect x="195" y="60" width="4" height="4" fill="#7CD7AF"/>
  <rect x="315" y="60" width="4" height="4" fill="#7CD7AF"/>
  <rect x="195" y="30" width="4" height="4" fill="#7CD7AF"/>
  <rect x="315" y="30" width="4" height="4" fill="#7CD7AF"/>
  <rect x="195" y="90" width="4" height="4" fill="#7CD7AF"/>
  <rect x="195" y="120" width="4" height="4" fill="#7CD7AF"/>
  <rect x="315" y="90" width="4" height="4" fill="#7CD7AF"/>
  <rect x="315" y="120" width="4" height="4" fill="#7CD7AF"/>
  <rect x="195" y="15" width="4" height="4" fill="#7CD7AF"/>
  <rect x="315" y="15" width="4" height="4" fill="#7CD7AF"/>
  <rect x="195" y="75" width="4" height="4" fill="#7CD7AF"/>
  <rect x="315" y="75" width="4" height="4" fill="#7CD7AF"/>
  <rect x="195" y="45" width="4" height="4" fill="#7CD7AF"/>
  <rect x="315" y="45" width="4" height="4" fill="#7CD7AF"/>
  <rect x="195" y="105" width="4" height="4" fill="#7CD7AF"/>
  <rect x="195" y="135" width="4" height="4" fill="#7CD7AF"/>
  <rect x="315" y="105" width="4" height="4" fill="#7CD7AF"/>
  <rect x="315" y="135" width="4" height="4" fill="#7CD7AF"/>
  <rect x="180" width="4" height="4" fill="#7CD7AF"/>
  <rect x="300" width="4" height="4" fill="#7CD7AF"/>
  <rect x="180" y="60" width="4" height="4" fill="#7CD7AF"/>
  <rect x="300" y="60" width="4" height="4" fill="#7CD7AF"/>
  <rect x="180" y="30" width="4" height="4" fill="#7CD7AF"/>
  <rect x="300" y="30" width="4" height="4" fill="#7CD7AF"/>
  <rect x="180" y="90" width="4" height="4" fill="#7CD7AF"/>
  <rect x="180" y="120" width="4" height="4" fill="#7CD7AF"/>
  <rect x="300" y="90" width="4" height="4" fill="#7CD7AF"/>
  <rect x="300" y="120" width="4" height="4" fill="#7CD7AF"/>
  <rect x="180" y="15" width="4" height="4" fill="#7CD7AF"/>
  <rect x="300" y="15" width="4" height="4" fill="#7CD7AF"/>
  <rect x="180" y="75" width="4" height="4" fill="#7CD7AF"/>
  <rect x="300" y="75" width="4" height="4" fill="#7CD7AF"/>
  <rect x="180" y="45" width="4" height="4" fill="#7CD7AF"/>
  <rect x="300" y="45" width="4" height="4" fill="#7CD7AF"/>
  <rect x="180" y="105" width="4" height="4" fill="#7CD7AF"/>
  <rect x="180" y="135" width="4" height="4" fill="#7CD7AF"/>
  <rect x="300" y="105" width="4" height="4" fill="#7CD7AF"/>
  <rect x="300" y="135" width="4" height="4" fill="#7CD7AF"/>
  <rect x="45" width="4" height="4" fill="#7CD7AF"/>
  <rect x="45" y="60" width="4" height="4" fill="#7CD7AF"/>
  <rect x="45" y="30" width="4" height="4" fill="#7CD7AF"/>
  <rect x="45" y="90" width="4" height="4" fill="#7CD7AF"/>
  <rect x="45" y="120" width="4" height="4" fill="#7CD7AF"/>
  <rect x="45" y="15" width="4" height="4" fill="#7CD7AF"/>
  <rect x="45" y="75" width="4" height="4" fill="#7CD7AF"/>
  <rect x="45" y="45" width="4" height="4" fill="#7CD7AF"/>
  <rect x="45" y="105" width="4" height="4" fill="#7CD7AF"/>
  <rect x="45" y="135" width="4" height="4" fill="#7CD7AF"/>
  <rect x="135" width="4" height="4" fill="#7CD7AF"/>
  <rect x="135" y="60" width="4" height="4" fill="#7CD7AF"/>
  <rect x="135" y="30" width="4" height="4" fill="#7CD7AF"/>
  <rect x="135" y="90" width="4" height="4" fill="#7CD7AF"/>
  <rect x="135" y="120" width="4" height="4" fill="#7CD7AF"/>
  <rect x="135" y="15" width="4" height="4" fill="#7CD7AF"/>
  <rect x="135" y="75" width="4" height="4" fill="#7CD7AF"/>
  <rect x="135" y="45" width="4" height="4" fill="#7CD7AF"/>
  <rect x="135" y="105" width="4" height="4" fill="#7CD7AF"/>
  <rect x="135" y="135" width="4" height="4" fill="#7CD7AF"/>
  <rect x="255" width="4" height="4" fill="#7CD7AF"/>
  <rect x="375" width="4" height="4" fill="#7CD7AF"/>
  <rect x="255" y="60" width="4" height="4" fill="#7CD7AF"/>
  <rect x="375" y="60" width="4" height="4" fill="#7CD7AF"/>
  <rect x="255" y="30" width="4" height="4" fill="#7CD7AF"/>
  <rect x="375" y="30" width="4" height="4" fill="#7CD7AF"/>
  <rect x="255" y="90" width="4" height="4" fill="#7CD7AF"/>
  <rect x="255" y="120" width="4" height="4" fill="#7CD7AF"/>
  <rect x="375" y="90" width="4" height="4" fill="#7CD7AF"/>
  <rect x="375" y="120" width="4" height="4" fill="#7CD7AF"/>
  <rect x="255" y="15" width="4" height="4" fill="#7CD7AF"/>
  <rect x="375" y="15" width="4" height="4" fill="#7CD7AF"/>
  <rect x="255" y="75" width="4" height="4" fill="#7CD7AF"/>
  <rect x="375" y="75" width="4" height="4" fill="#7CD7AF"/>
  <rect x="255" y="45" width="4" height="4" fill="#7CD7AF"/>
  <rect x="375" y="45" width="4" height="4" fill="#7CD7AF"/>
  <rect x="255" y="105" width="4" height="4" fill="#7CD7AF"/>
  <rect x="255" y="135" width="4" height="4" fill="#7CD7AF"/>
  <rect x="375" y="105" width="4" height="4" fill="#7CD7AF"/>
  <rect x="375" y="135" width="4" height="4" fill="#7CD7AF"/>
  <rect x="15" width="4" height="4" fill="#7CD7AF"/>
  <rect x="15" y="60" width="4" height="4" fill="#7CD7AF"/>
  <rect x="15" y="30" width="4" height="4" fill="#7CD7AF"/>
  <rect x="15" y="90" width="4" height="4" fill="#7CD7AF"/>
  <rect x="15" y="120" width="4" height="4" fill="#7CD7AF"/>
  <rect x="15" y="15" width="4" height="4" fill="#7CD7AF"/>
  <rect x="15" y="75" width="4" height="4" fill="#7CD7AF"/>
  <rect x="15" y="45" width="4" height="4" fill="#7CD7AF"/>
  <rect x="15" y="105" width="4" height="4" fill="#7CD7AF"/>
  <rect x="15" y="135" width="4" height="4" fill="#7CD7AF"/>
  <rect x="105" width="4" height="4" fill="#7CD7AF"/>
  <rect x="105" y="60" width="4" height="4" fill="#7CD7AF"/>
  <rect x="105" y="30" width="4" height="4" fill="#7CD7AF"/>
  <rect x="105" y="90" width="4" height="4" fill="#7CD7AF"/>
  <rect x="105" y="120" width="4" height="4" fill="#7CD7AF"/>
  <rect x="105" y="15" width="4" height="4" fill="#7CD7AF"/>
  <rect x="105" y="75" width="4" height="4" fill="#7CD7AF"/>
  <rect x="105" y="45" width="4" height="4" fill="#7CD7AF"/>
  <rect x="105" y="105" width="4" height="4" fill="#7CD7AF"/>
  <rect x="105" y="135" width="4" height="4" fill="#7CD7AF"/>
  <rect x="225" width="4" height="4" fill="#7CD7AF"/>
  <rect x="345" width="4" height="4" fill="#7CD7AF"/>
  <rect x="225" y="60" width="4" height="4" fill="#7CD7AF"/>
  <rect x="345" y="60" width="4" height="4" fill="#7CD7AF"/>
  <rect x="225" y="30" width="4" height="4" fill="#7CD7AF"/>
  <rect x="345" y="30" width="4" height="4" fill="#7CD7AF"/>
  <rect x="225" y="90" width="4" height="4" fill="#7CD7AF"/>
  <rect x="225" y="120" width="4" height="4" fill="#7CD7AF"/>
  <rect x="345" y="90" width="4" height="4" fill="#7CD7AF"/>
  <rect x="345" y="120" width="4" height="4" fill="#7CD7AF"/>
  <rect x="225" y="15" width="4" height="4" fill="#7CD7AF"/>
  <rect x="345" y="15" width="4" height="4" fill="#7CD7AF"/>
  <rect x="225" y="75" width="4" height="4" fill="#7CD7AF"/>
  <rect x="345" y="75" width="4" height="4" fill="#7CD7AF"/>
  <rect x="225" y="45" width="4" height="4" fill="#7CD7AF"/>
  <rect x="345" y="45" width="4" height="4" fill="#7CD7AF"/>
  <rect x="225" y="105" width="4" height="4" fill="#7CD7AF"/>
  <rect x="225" y="135" width="4" height="4" fill="#7CD7AF"/>
  <rect x="345" y="105" width="4" height="4" fill="#7CD7AF"/>
  <rect x="345" y="135" width="4" height="4" fill="#7CD7AF"/>
  <rect x="60" width="4" height="4" fill="#7CD7AF"/>
  <rect x="60" y="60" width="4" height="4" fill="#7CD7AF"/>
  <rect x="60" y="30" width="4" height="4" fill="#7CD7AF"/>
  <rect x="60" y="90" width="4" height="4" fill="#7CD7AF"/>
  <rect x="60" y="120" width="4" height="4" fill="#7CD7AF"/>
  <rect x="60" y="15" width="4" height="4" fill="#7CD7AF"/>
  <rect x="60" y="75" width="4" height="4" fill="#7CD7AF"/>
  <rect x="60" y="45" width="4" height="4" fill="#7CD7AF"/>
  <rect x="60" y="105" width="4" height="4" fill="#7CD7AF"/>
  <rect x="60" y="135" width="4" height="4" fill="#7CD7AF"/>
  <rect x="150" width="4" height="4" fill="#7CD7AF"/>
  <rect x="150" y="60" width="4" height="4" fill="#7CD7AF"/>
  <rect x="150" y="30" width="4" height="4" fill="#7CD7AF"/>
  <rect x="150" y="90" width="4" height="4" fill="#7CD7AF"/>
  <rect x="150" y="120" width="4" height="4" fill="#7CD7AF"/>
  <rect x="150" y="15" width="4" height="4" fill="#7CD7AF"/>
  <rect x="150" y="75" width="4" height="4" fill="#7CD7AF"/>
  <rect x="150" y="45" width="4" height="4" fill="#7CD7AF"/>
  <rect x="150" y="105" width="4" height="4" fill="#7CD7AF"/>
  <rect x="150" y="135" width="4" height="4" fill="#7CD7AF"/>
  <rect x="270" width="4" height="4" fill="#7CD7AF"/>
  <rect x="390" width="4" height="4" fill="#7CD7AF"/>
  <rect x="270" y="60" width="4" height="4" fill="#7CD7AF"/>
  <rect x="390" y="60" width="4" height="4" fill="#7CD7AF"/>
  <rect x="270" y="30" width="4" height="4" fill="#7CD7AF"/>
  <rect x="390" y="30" width="4" height="4" fill="#7CD7AF"/>
  <rect x="270" y="90" width="4" height="4" fill="#7CD7AF"/>
  <rect x="270" y="120" width="4" height="4" fill="#7CD7AF"/>
  <rect x="390" y="90" width="4" height="4" fill="#7CD7AF"/>
  <rect x="390" y="120" width="4" height="4" fill="#7CD7AF"/>
  <rect x="270" y="15" width="4" height="4" fill="#7CD7AF"/>
  <rect x="390" y="15" width="4" height="4" fill="#7CD7AF"/>
  <rect x="270" y="75" width="4" height="4" fill="#7CD7AF"/>
  <rect x="390" y="75" width="4" height="4" fill="#7CD7AF"/>
  <rect x="270" y="45" width="4" height="4" fill="#7CD7AF"/>
  <rect x="390" y="45" width="4" height="4" fill="#7CD7AF"/>
  <rect x="270" y="105" width="4" height="4" fill="#7CD7AF"/>
  <rect x="270" y="135" width="4" height="4" fill="#7CD7AF"/>
  <rect x="390" y="105" width="4" height="4" fill="#7CD7AF"/>
  <rect x="390" y="135" width="4" height="4" fill="#7CD7AF"/>
  <rect x="30" width="4" height="4" fill="#7CD7AF"/>
  <rect x="30" y="60" width="4" height="4" fill="#7CD7AF"/>
  <rect x="30" y="30" width="4" height="4" fill="#7CD7AF"/>
  <rect x="30" y="90" width="4" height="4" fill="#7CD7AF"/>
  <rect x="30" y="120" width="4" height="4" fill="#7CD7AF"/>
  <rect x="30" y="15" width="4" height="4" fill="#7CD7AF"/>
  <rect x="30" y="75" width="4" height="4" fill="#7CD7AF"/>
  <rect x="30" y="45" width="4" height="4" fill="#7CD7AF"/>
  <rect x="30" y="105" width="4" height="4" fill="#7CD7AF"/>
  <rect x="30" y="135" width="4" height="4" fill="#7CD7AF"/>
  <rect x="120" width="4" height="4" fill="#7CD7AF"/>
  <rect x="120" y="60" width="4" height="4" fill="#7CD7AF"/>
  <rect x="120" y="30" width="4" height="4" fill="#7CD7AF"/>
  <rect x="120" y="90" width="4" height="4" fill="#7CD7AF"/>
  <rect x="120" y="120" width="4" height="4" fill="#7CD7AF"/>
  <rect x="120" y="15" width="4" height="4" fill="#7CD7AF"/>
  <rect x="120" y="75" width="4" height="4" fill="#7CD7AF"/>
  <rect x="120" y="45" width="4" height="4" fill="#7CD7AF"/>
  <rect x="120" y="105" width="4" height="4" fill="#7CD7AF"/>
  <rect x="120" y="135" width="4" height="4" fill="#7CD7AF"/>
  <rect x="240" width="4" height="4" fill="#7CD7AF"/>
  <rect x="360" width="4" height="4" fill="#7CD7AF"/>
  <rect x="240" y="60" width="4" height="4" fill="#7CD7AF"/>
  <rect x="360" y="60" width="4" height="4" fill="#7CD7AF"/>
  <rect x="240" y="30" width="4" height="4" fill="#7CD7AF"/>
  <rect x="360" y="30" width="4" height="4" fill="#7CD7AF"/>
  <rect x="240" y="90" width="4" height="4" fill="#7CD7AF"/>
  <rect x="240" y="120" width="4" height="4" fill="#7CD7AF"/>
  <rect x="360" y="90" width="4" height="4" fill="#7CD7AF"/>
  <rect x="360" y="120" width="4" height="4" fill="#7CD7AF"/>
  <rect x="240" y="15" width="4" height="4" fill="#7CD7AF"/>
  <rect x="360" y="15" width="4" height="4" fill="#7CD7AF"/>
  <rect x="240" y="75" width="4" height="4" fill="#7CD7AF"/>
  <rect x="360" y="75" width="4" height="4" fill="#7CD7AF"/>
  <rect x="240" y="45" width="4" height="4" fill="#7CD7AF"/>
  <rect x="360" y="45" width="4" height="4" fill="#7CD7AF"/>
  <rect x="240" y="105" width="4" height="4" fill="#7CD7AF"/>
  <rect x="240" y="135" width="4" height="4" fill="#7CD7AF"/>
  <rect x="360" y="105" width="4" height="4" fill="#7CD7AF"/>
  <rect x="360" y="135" width="4" height="4" fill="#7CD7AF"/>
  <rect x="75" width="4" height="4" fill="#7CD7AF"/>
  <rect x="75" y="60" width="4" height="4" fill="#7CD7AF"/>
  <rect x="75" y="30" width="4" height="4" fill="#7CD7AF"/>
  <rect x="75" y="90" width="4" height="4" fill="#7CD7AF"/>
  <rect x="75" y="120" width="4" height="4" fill="#7CD7AF"/>
  <rect x="75" y="15" width="4" height="4" fill="#7CD7AF"/>
  <rect x="75" y="75" width="4" height="4" fill="#7CD7AF"/>
  <rect x="75" y="45" width="4" height="4" fill="#7CD7AF"/>
  <rect x="75" y="105" width="4" height="4" fill="#7CD7AF"/>
  <rect x="75" y="135" width="4" height="4" fill="#7CD7AF"/>
  <rect x="165" width="4" height="4" fill="#7CD7AF"/>
  <rect x="165" y="60" width="4" height="4" fill="#7CD7AF"/>
  <rect x="165" y="30" width="4" height="4" fill="#7CD7AF"/>
  <rect x="165" y="90" width="4" height="4" fill="#7CD7AF"/>
  <rect x="165" y="120" width="4" height="4" fill="#7CD7AF"/>
  <rect x="165" y="15" width="4" height="4" fill="#7CD7AF"/>
  <rect x="165" y="75" width="4" height="4" fill="#7CD7AF"/>
  <rect x="165" y="45" width="4" height="4" fill="#7CD7AF"/>
  <rect x="165" y="105" width="4" height="4" fill="#7CD7AF"/>
  <rect x="165" y="135" width="4" height="4" fill="#7CD7AF"/>
  <rect x="285" width="4" height="4" fill="#7CD7AF"/>
  <rect x="405" width="4" height="4" fill="#7CD7AF"/>
  <rect x="285" y="60" width="4" height="4" fill="#7CD7AF"/>
  <rect x="405" y="60" width="4" height="4" fill="#7CD7AF"/>
  <rect x="285" y="30" width="4" height="4" fill="#7CD7AF"/>
  <rect x="405" y="30" width="4" height="4" fill="#7CD7AF"/>
  <rect x="285" y="90" width="4" height="4" fill="#7CD7AF"/>
  <rect x="285" y="120" width="4" height="4" fill="#7CD7AF"/>
  <rect x="405" y="90" width="4" height="4" fill="#7CD7AF"/>
  <rect x="405" y="120" width="4" height="4" fill="#7CD7AF"/>
  <rect x="285" y="15" width="4" height="4" fill="#7CD7AF"/>
  <rect x="405" y="15" width="4" height="4" fill="#7CD7AF"/>
  <rect x="285" y="75" width="4" height="4" fill="#7CD7AF"/>
  <rect x="405" y="75" width="4" height="4" fill="#7CD7AF"/>
  <rect x="285" y="45" width="4" height="4" fill="#7CD7AF"/>
  <rect x="405" y="45" width="4" height="4" fill="#7CD7AF"/>
  <rect x="285" y="105" width="4" height="4" fill="#7CD7AF"/>
  <rect x="285" y="135" width="4" height="4" fill="#7CD7AF"/>
  <rect x="405" y="105" width="4" height="4" fill="#7CD7AF"/>
  <rect x="405" y="135" width="4" height="4" fill="#7CD7AF"/>
</svg>
