<svg  viewBox="0 0 891 721" fill="none" xmlns="http://www.w3.org/2000/svg">
<g clip-path="url(#clip0)">
<path opacity="0.1" d="M540.114 114.022C480.518 111.952 423.759 92.7403 369.551 71.7165C315.343 50.6926 261.668 27.4064 203.5 16.2599C166.088 9.09561 123.306 8.08396 93.1589 28.1146C64.1532 47.4278 54.7793 80.6742 49.7332 111.557C45.9487 134.788 43.7203 159.242 54.1071 180.993C61.3171 196.094 74.1256 208.785 82.9839 223.243C113.794 273.567 92.0171 335.664 58.6375 384.766C42.9837 407.822 24.8068 429.83 12.7164 454.349C0.626141 478.867 -4.9632 507 5.60776 532.034C16.0958 556.865 41.0776 575.479 68.1404 588.585C123.095 615.255 187.846 622.824 251.024 627.138C390.822 636.693 531.375 632.555 671.542 628.416C723.42 626.88 775.52 625.326 826.561 617.316C854.894 612.873 884.158 605.81 904.729 588.806C930.843 567.165 937.317 530.525 919.821 503.386C890.466 457.871 809.323 446.568 788.78 397.724C777.481 370.833 789.084 340.888 805.493 315.946C840.705 262.458 899.72 215.527 902.832 154.386C904.968 112.394 876.598 70.337 832.73 50.4627C786.745 29.6412 722.988 32.2623 689.083 66.7318C654.111 102.185 592.711 115.861 540.114 114.022Z" fill="#DBF6F0"/>
<path opacity="0.1" d="M533.88 693.584C722.543 693.584 875.484 682.228 875.484 668.22C875.484 654.211 722.543 642.855 533.88 642.855C345.217 642.855 192.276 654.211 192.276 668.22C192.276 682.228 345.217 693.584 533.88 693.584Z" fill="#DBF6F0"/>
<path d="M269.744 586.065C269.744 586.065 289.081 582.975 300.683 596.632C300.683 596.632 292.175 603.327 273.869 594.057L269.744 586.065Z" fill="#DBF6F0"/>
<path d="M267.663 585.816C267.663 585.816 255.333 601.01 261.383 617.867C261.383 617.867 271.438 613.839 272.534 593.367L267.663 585.816Z" fill="#DBF6F0"/>
<path d="M256.613 560.829C256.613 560.829 264.348 546.666 295.287 566.494C295.287 566.494 291.162 576.022 277.497 575.249C263.832 574.477 260.204 568.343 256.613 560.829Z" fill="#DBF6F0"/>
<path d="M254.596 559.808C254.596 559.808 238.547 557.969 236.99 594.673C236.99 594.673 247.165 596.779 254.394 585.173C261.622 573.566 258.639 567.055 254.596 559.808Z" fill="#DBF6F0"/>
<path d="M245.25 530.544C245.25 530.544 254.274 505.566 287.018 523.334C287.018 523.334 279.541 546.252 248.602 539.042L245.25 530.544Z" fill="#DBF6F0"/>
<path d="M235.186 493.205C235.186 493.205 252.211 467.96 282.377 491.366C282.377 491.366 271.806 515.057 237.764 502.181L235.186 493.205Z" fill="#DBF6F0"/>
<path d="M231.576 457.659C231.576 457.659 251.438 434.484 281.346 457.659C281.346 457.659 262.525 478.003 231.576 463.582V457.659Z" fill="#DBF6F0"/>
<path d="M228.482 423.153C228.482 423.153 248.602 398.947 277.221 421.866C277.221 421.866 254.532 443.239 228.482 428.818V423.153Z" fill="#DBF6F0"/>
<path d="M230.287 392.509C230.287 392.509 251.466 361.342 278.252 382.467C278.252 382.467 255.563 409.248 230.287 398.432V392.509Z" fill="#DBF6F0"/>
<path d="M235.186 356.706C235.186 356.706 257.626 325.805 283.667 349.496C283.667 349.496 257.11 376.286 235.186 362.372V356.706Z" fill="#DBF6F0"/>
<path d="M242.672 324.711C242.672 324.711 269.228 295.677 292.396 307.237C292.396 307.237 264.716 338.074 241.512 332.408L242.672 324.711Z" fill="#DBF6F0"/>
<path d="M251.954 294.389C251.954 294.389 282.635 258.853 300.425 270.698C300.425 270.698 277.847 298.288 249.78 301.047L251.954 294.389Z" fill="#DBF6F0"/>
<path d="M265.351 259.211C265.351 259.211 292.175 230.168 311.77 237.378C311.77 237.378 288.823 267.507 261.751 268.279L265.351 259.211Z" fill="#DBF6F0"/>
<path d="M277.479 226.305C277.479 226.305 307.129 198.485 320.02 203.378C320.02 203.378 298.621 234.288 276.189 232.485L277.479 226.305Z" fill="#DBF6F0"/>
<path d="M289.339 195.873C289.339 195.873 314.864 162.654 328.786 165.229C328.786 165.229 313.317 194.843 289.339 199.257V195.873Z" fill="#DBF6F0"/>
<path d="M302.212 154.947C302.212 154.947 324.772 129.472 336.954 129.537C336.954 129.537 319.146 163.565 301.282 163.252L302.212 154.947Z" fill="#DBF6F0"/>
<path d="M309.836 127.67L331.623 74.6135C331.623 74.6135 332.718 122.575 307.064 137.51L309.836 127.67Z" fill="#DBF6F0"/>
<path d="M318.685 69.1598C318.685 69.1598 322.295 24.8681 319.974 21.263C319.974 21.263 335.555 58.0501 318.529 88.7306L318.685 69.1598Z" fill="#DBF6F0"/>
<path d="M244.403 529.946C244.403 529.946 221.806 515.958 207.174 550.179C207.174 550.179 227.285 563.505 247.055 538.674L244.403 529.946Z" fill="#DBF6F0"/>
<path d="M234.513 491.779C234.513 491.779 206.797 479.152 193.344 514.882C193.344 514.882 214.762 529.597 237.036 500.811L234.513 491.779Z" fill="#DBF6F0"/>
<path d="M230.287 459.821C230.287 459.821 210.434 436.645 180.563 459.821C180.563 459.821 199.384 480.164 230.287 465.743V459.821Z" fill="#DBF6F0"/>
<path d="M227.81 423.153C227.81 423.153 207.699 398.947 179.071 421.866C179.071 421.866 201.769 443.239 227.81 428.818V423.153Z" fill="#DBF6F0"/>
<path d="M230.287 393.392C230.287 393.392 216.18 358.445 185.517 373.5C185.517 373.5 202.091 404.447 229.044 399.177L230.287 393.392Z" fill="#DBF6F0"/>
<path d="M236.963 356.532C236.963 356.532 222.948 321.023 191.843 337.494C191.843 337.494 210.885 370.042 235.581 362.022L236.963 356.532Z" fill="#DBF6F0"/>
<path d="M245.655 324.895C245.655 324.895 240.13 285.965 214.347 282.479C214.347 282.479 219.808 323.534 242.175 331.912L245.655 324.895Z" fill="#DBF6F0"/>
<path d="M252.607 294.453C252.607 294.453 250.453 247.55 229.136 245.922C229.136 245.922 229.854 281.523 250.204 301.103L252.607 294.453Z" fill="#DBF6F0"/>
<path d="M267.561 257.869C267.561 257.869 261.199 218.865 240.858 214.092C240.858 214.092 243.381 251.872 265.554 267.433L267.561 257.869Z" fill="#DBF6F0"/>
<path d="M279.891 226.581C279.891 226.581 279.67 185.959 267.248 179.981C267.248 179.981 259.532 216.768 276.291 231.768L279.891 226.581Z" fill="#DBF6F0"/>
<path d="M290.287 195.459C290.287 195.459 288.547 153.623 275.674 147.728C275.674 147.728 271.263 180.836 288.353 198.2L290.287 195.459Z" fill="#DBF6F0"/>
<path d="M304.007 158.277C304.007 158.277 303.924 124.249 294.744 116.275C294.744 116.275 285.6 153.549 299.21 165.128L304.007 158.277Z" fill="#DBF6F0"/>
<path d="M308.75 125.977L299.818 69.3345C299.818 69.3345 287.672 115.741 309.182 136.186L308.75 125.977Z" fill="#DBF6F0"/>
<path d="M310.499 69.7024C310.499 69.7024 287.552 31.6277 288.022 27.3972C288.022 27.3972 290.462 67.302 319.33 87.1763L310.499 69.7024Z" fill="#DBF6F0"/>
<path d="M313.188 58.4547C313.188 58.4547 291.53 4.37766 281.733 -0.0184021C281.733 -0.0184021 312.672 15.6897 314.993 56.8913L313.188 58.4547Z" fill="#DBF6F0"/>
<path d="M301.162 163.574L299.689 163.114C317.967 103.593 322.525 65.6282 312.525 56.1188L313.593 54.9967C324.192 65.0396 319.891 102.581 301.162 163.574Z" fill="#444053"/>
<path d="M250.839 302.914L248.648 302.142C250.582 296.688 252.681 291.152 254.873 285.698C273.952 238.178 290.186 194.034 300.6 160.107L302.506 159.187C292.074 193.114 276.125 239.006 257.027 286.562C254.845 291.989 252.764 297.488 250.839 302.914Z" fill="#444053"/>
<path d="M296.954 630.623C296.659 630.292 267.027 596.981 246.383 540.09C234.276 506.792 227.532 471.786 226.401 436.378C224.992 392.114 234.283 342.681 250.222 297.792L251.954 299.815C216.189 400.575 230.397 486.924 249.246 538.913C269.679 595.28 298.97 628.232 299.256 628.563L296.954 630.623Z" fill="#444053"/>
<path d="M167.846 623.358C167.846 623.358 132.809 621.252 136.944 645.77C136.944 645.77 136.124 650.102 140.056 652.07C140.056 652.07 140.111 650.231 143.647 650.865C144.903 651.076 146.18 651.138 147.45 651.049C149.17 650.934 150.806 650.262 152.11 649.136C152.11 649.136 161.953 645.071 165.784 628.995C165.784 628.995 168.62 625.491 168.5 624.59L162.588 627.11C162.588 627.11 164.614 631.368 163.021 634.909C163.021 634.909 162.828 627.266 161.695 627.441C161.465 627.441 158.62 628.922 158.62 628.922C158.62 628.922 162.1 636.344 159.476 641.733C159.476 641.733 160.471 632.591 157.542 629.455L153.38 631.883C153.38 631.883 157.441 639.544 154.688 645.798C154.688 645.798 155.388 636.206 152.505 632.472L148.73 635.415C148.73 635.415 152.542 642.965 150.222 648.152C150.222 648.152 149.918 636.987 147.911 636.141C147.911 636.141 144.614 639.048 144.108 640.243C144.108 640.243 146.723 645.761 145.102 648.621C145.102 648.621 144.108 641.181 143.261 641.144C143.261 641.144 139.973 646.074 139.633 649.421C139.792 646.301 140.766 643.276 142.459 640.648C140.565 641.006 138.817 641.911 137.432 643.25C137.432 643.25 137.938 639.765 143.27 639.461C143.27 639.461 146.032 635.718 146.714 635.488C146.714 635.488 141.41 635.047 138.196 636.472C138.196 636.472 141.023 633.189 147.69 634.633L151.373 631.598C151.373 631.598 144.393 630.678 141.428 631.699C141.428 631.699 144.835 628.793 152.377 630.908L156.428 628.49C156.428 628.49 150.48 627.211 146.925 627.671C146.925 627.671 150.673 625.657 157.616 627.837L160.517 626.54C160.517 626.54 156.152 625.685 154.881 625.547C153.61 625.409 153.528 625.059 153.528 625.059C156.292 624.6 159.13 624.918 161.723 625.979C161.723 625.979 167.948 623.744 167.846 623.358Z" fill="#DBF6F0"/>
<path d="M66.0041 634.734C66.0041 634.734 31.0131 632.628 35.1107 657.147C35.1107 657.147 34.282 661.478 38.2138 663.446C38.2138 663.446 38.2783 661.607 41.8142 662.242C43.0697 662.457 44.3468 662.519 45.6172 662.426C47.3348 662.312 48.968 661.64 50.2673 660.513C50.2673 660.513 60.1201 656.448 63.9506 640.372C63.9506 640.372 66.7776 636.868 66.7131 635.967L60.8015 638.487C60.8015 638.487 62.8273 642.745 61.2342 646.285C61.2342 646.285 61.0409 638.643 59.9083 638.818C59.6781 638.818 56.8327 640.298 56.8327 640.298C56.8327 640.298 60.3134 647.72 57.6891 653.109C57.6891 653.109 58.6836 643.968 55.7462 640.832L51.5841 643.26C51.5841 643.26 55.6449 650.921 52.8916 657.174C52.8916 657.174 53.6007 647.582 50.7093 643.848L46.9432 646.791C46.9432 646.791 50.7554 654.342 48.4349 659.529C48.4349 659.529 48.131 648.364 46.1237 647.518C46.1237 647.518 42.8271 650.424 42.3207 651.619C42.3207 651.619 44.9358 657.137 43.3152 659.998C43.3152 659.998 42.3207 652.558 41.4735 652.521C41.4735 652.521 38.1954 657.45 37.8455 660.798C38.01 657.677 38.9876 654.652 40.6816 652.024C38.7846 652.383 37.034 653.288 35.6448 654.627C35.6448 654.627 36.1604 651.141 41.492 650.838C41.492 650.838 44.2544 647.095 44.9358 646.874C44.9358 646.874 39.6319 646.423 36.4183 647.849C36.4183 647.849 39.2452 644.566 45.9119 646.009L49.5951 642.975C49.5951 642.975 42.6153 642.055 39.6503 643.076C39.6503 643.076 43.0573 640.17 50.5988 642.285L54.6504 639.866C54.6504 639.866 48.6927 638.588 45.1476 639.048C45.1476 639.048 48.8953 637.033 55.8383 639.213L58.7388 637.916C58.7388 637.916 54.3742 637.061 53.0942 636.923C51.8143 636.785 51.7498 636.436 51.7498 636.436C54.5143 635.982 57.3504 636.3 59.9451 637.355C59.9451 637.355 66.0777 635.12 66.0041 634.734Z" fill="#DBF6F0"/>
<path d="M122.763 661.442C122.763 661.442 87.7722 659.336 91.8606 683.854C91.8606 683.854 91.0411 688.186 94.9729 690.154C94.9729 690.154 95.0374 688.315 98.5641 688.949C99.8231 689.161 101.103 689.222 102.376 689.133C104.093 689.016 105.725 688.345 107.026 687.22C107.026 687.22 116.87 683.155 120.701 667.079C120.701 667.079 123.537 663.575 123.463 662.674L117.551 665.194C117.551 665.194 119.568 669.452 117.984 672.993C117.984 672.993 117.791 665.35 116.649 665.525C116.419 665.525 113.583 667.006 113.583 667.006C113.583 667.006 117.054 674.418 114.43 679.817C114.43 679.817 115.424 670.675 112.496 667.539L108.334 669.967C108.334 669.967 112.395 677.628 109.642 683.882C109.642 683.882 110.351 674.29 107.459 670.556L103.684 673.499C103.684 673.499 107.505 681.049 105.176 686.236C105.176 686.236 104.872 675.071 102.874 674.225C102.874 674.225 99.5678 677.131 99.0706 678.327C99.0706 678.327 101.686 683.845 100.056 686.705C100.056 686.705 99.0614 679.265 98.2142 679.228C98.2142 679.228 94.9269 684.158 94.5862 687.505C94.7454 684.385 95.72 681.36 97.4131 678.732C95.5185 679.09 93.7705 679.995 92.3854 681.334C92.3854 681.334 92.8919 677.849 98.2326 677.545C98.2326 677.545 100.94 673.802 101.667 673.572C101.667 673.572 96.3634 673.131 93.1497 674.556C93.1497 674.556 95.9858 671.273 102.643 672.763L106.327 669.728C106.327 669.728 99.3468 668.808 96.3818 669.829C96.3818 669.829 99.798 666.923 107.33 669.038L111.391 666.619C111.391 666.619 105.47 665.369 101.916 665.829C101.916 665.829 105.654 663.814 112.607 665.994L115.498 664.697C115.498 664.697 111.142 663.842 109.863 663.704C108.583 663.566 108.518 663.217 108.518 663.217C111.282 662.757 114.12 663.076 116.713 664.136C116.713 664.136 122.864 661.828 122.763 661.442Z" fill="#DBF6F0"/>
<path opacity="0.1" d="M95.4517 696.914C109.147 696.914 120.249 695.04 120.249 692.729C120.249 690.418 109.147 688.545 95.4517 688.545C81.7564 688.545 70.6542 690.418 70.6542 692.729C70.6542 695.04 81.7564 696.914 95.4517 696.914Z" fill="#DBF6F0"/>
<path opacity="0.1" d="M881.994 696.914C895.689 696.914 906.792 695.04 906.792 692.729C906.792 690.418 895.689 688.545 881.994 688.545C868.299 688.545 857.197 690.418 857.197 692.729C857.197 695.04 868.299 696.914 881.994 696.914Z" fill="#DBF6F0"/>
<path opacity="0.1" d="M644.525 721C658.22 721 669.322 719.127 669.322 716.815C669.322 714.504 658.22 712.631 644.525 712.631C630.83 712.631 619.728 714.504 619.728 716.815C619.728 719.127 630.83 721 644.525 721Z" fill="#DBF6F0"/>
<path opacity="0.1" d="M143.712 658.03C157.407 658.03 168.509 656.156 168.509 653.845C168.509 651.534 157.407 649.661 143.712 649.661C130.016 649.661 118.914 651.534 118.914 653.845C118.914 656.156 130.016 658.03 143.712 658.03Z" fill="#DBF6F0"/>
<path opacity="0.1" d="M41.8419 669.774C55.5372 669.774 66.6394 667.9 66.6394 665.589C66.6394 663.278 55.5372 661.405 41.8419 661.405C28.1465 661.405 17.0443 663.278 17.0443 665.589C17.0443 667.9 28.1465 669.774 41.8419 669.774Z" fill="#DBF6F0"/>
<path d="M666.938 73.3351H287.792C282.808 73.3351 278.768 77.3703 278.768 82.348V654.185C278.768 659.163 282.808 663.198 287.792 663.198H666.938C671.921 663.198 675.962 659.163 675.962 654.185V82.348C675.962 77.3703 671.921 73.3351 666.938 73.3351Z" fill="#3A3768"/>
<path opacity="0.1" d="M617.628 124.037H342.019C327.164 124.037 315.122 136.064 315.122 150.901V213.135C315.122 227.972 327.164 239.999 342.019 239.999H617.628C632.483 239.999 644.525 227.972 644.525 213.135V150.901C644.525 136.064 632.483 124.037 617.628 124.037Z" fill="black"/>
<path d="M632.26 126.299H326.632C321.445 126.299 317.239 130.499 317.239 135.68V229.073C317.239 234.254 321.445 238.454 326.632 238.454H632.26C637.447 238.454 641.652 234.254 641.652 229.073V135.68C641.652 130.499 637.447 126.299 632.26 126.299Z" fill="#E6E8EC"/>
<path opacity="0.1" d="M382.166 288.301H336.531C331.043 288.301 326.595 292.743 326.595 298.224V351.069C326.595 356.549 331.043 360.992 336.531 360.992H382.166C387.653 360.992 392.102 356.549 392.102 351.069V298.224C392.102 292.743 387.653 288.301 382.166 288.301Z" fill="black"/>
<path opacity="0.1" d="M462.231 288.301H416.595C411.108 288.301 406.66 292.743 406.66 298.224V351.069C406.66 356.549 411.108 360.992 416.595 360.992H462.231C467.718 360.992 472.167 356.549 472.167 351.069V298.224C472.167 292.743 467.718 288.301 462.231 288.301Z" fill="black"/>
<path opacity="0.1" d="M542.296 288.301H496.66C491.173 288.301 486.725 292.743 486.725 298.224V351.069C486.725 356.549 491.173 360.992 496.66 360.992H542.296C547.783 360.992 552.232 356.549 552.232 351.069V298.224C552.232 292.743 547.783 288.301 542.296 288.301Z" fill="black"/>
<path opacity="0.1" d="M605.74 289.846H593.346C578.679 289.846 566.79 301.721 566.79 316.369V336.014C566.79 350.662 578.679 362.537 593.346 362.537H605.74C620.407 362.537 632.296 350.662 632.296 336.014V316.369C632.296 301.721 620.407 289.846 605.74 289.846Z" fill="black"/>
<path d="M622.361 288.301H576.725C571.238 288.301 566.79 292.743 566.79 298.224V351.069C566.79 356.549 571.238 360.992 576.725 360.992H622.361C627.848 360.992 632.296 356.549 632.296 351.069V298.224C632.296 292.743 627.848 288.301 622.361 288.301Z" fill="#DBF6F0"/>
<path opacity="0.1" d="M382.166 368.267H336.531C331.043 368.267 326.595 372.71 326.595 378.19V431.035C326.595 436.515 331.043 440.958 336.531 440.958H382.166C387.653 440.958 392.102 436.515 392.102 431.035V378.19C392.102 372.71 387.653 368.267 382.166 368.267Z" fill="black"/>
<path opacity="0.1" d="M462.231 368.267H416.595C411.108 368.267 406.66 372.71 406.66 378.19V431.035C406.66 436.515 411.108 440.958 416.595 440.958H462.231C467.718 440.958 472.167 436.515 472.167 431.035V378.19C472.167 372.71 467.718 368.267 462.231 368.267Z" fill="black"/>
<path opacity="0.1" d="M542.296 368.267H496.66C491.173 368.267 486.725 372.71 486.725 378.19V431.035C486.725 436.515 491.173 440.958 496.66 440.958H542.296C547.783 440.958 552.232 436.515 552.232 431.035V378.19C552.232 372.71 547.783 368.267 542.296 368.267Z" fill="black"/>
<path opacity="0.1" d="M382.166 456.537H336.531C331.043 456.537 326.595 460.98 326.595 466.461V519.305C326.595 524.786 331.043 529.229 336.531 529.229H382.166C387.653 529.229 392.102 524.786 392.102 519.305V466.461C392.102 460.98 387.653 456.537 382.166 456.537Z" fill="black"/>
<path opacity="0.1" d="M462.231 456.537H416.595C411.108 456.537 406.66 460.98 406.66 466.461V519.305C406.66 524.786 411.108 529.229 416.595 529.229H462.231C467.718 529.229 472.167 524.786 472.167 519.305V466.461C472.167 460.98 467.718 456.537 462.231 456.537Z" fill="black"/>
<path opacity="0.1" d="M542.296 456.537H496.66C491.173 456.537 486.725 460.98 486.725 466.461V519.305C486.725 524.786 491.173 529.229 496.66 529.229H542.296C547.783 529.229 552.232 524.786 552.232 519.305V466.461C552.232 460.98 547.783 456.537 542.296 456.537Z" fill="black"/>
<path opacity="0.1" d="M542.296 544.808H496.66C491.173 544.808 486.725 549.251 486.725 554.731V607.576C486.725 613.057 491.173 617.499 496.66 617.499H542.296C547.783 617.499 552.232 613.057 552.232 607.576V554.731C552.232 549.251 547.783 544.808 542.296 544.808Z" fill="black"/>
<path opacity="0.1" d="M605.74 369.812H593.346C578.679 369.812 566.79 381.687 566.79 396.335V415.98C566.79 430.628 578.679 442.503 593.346 442.503H605.74C620.407 442.503 632.296 430.628 632.296 415.98V396.335C632.296 381.687 620.407 369.812 605.74 369.812Z" fill="black"/>
<path d="M621.891 368.267H577.195C571.448 368.267 566.79 372.92 566.79 378.659V430.566C566.79 436.305 571.448 440.958 577.195 440.958H621.891C627.638 440.958 632.296 436.305 632.296 430.566V378.659C632.296 372.92 627.638 368.267 621.891 368.267Z" fill="#DBF6F0"/>
<path opacity="0.2" d="M621.891 368.267H577.195C571.448 368.267 566.79 372.92 566.79 378.659V430.566C566.79 436.305 571.448 440.958 577.195 440.958H621.891C627.638 440.958 632.296 436.305 632.296 430.566V378.659C632.296 372.92 627.638 368.267 621.891 368.267Z" fill="black"/>
<path opacity="0.1" d="M462.922 544.808H335.84C330.734 544.808 326.595 548.942 326.595 554.042V608.266C326.595 613.365 330.734 617.499 335.84 617.499H462.922C468.028 617.499 472.167 613.365 472.167 608.266V554.042C472.167 548.942 468.028 544.808 462.922 544.808Z" fill="black"/>
<path opacity="0.1" d="M621.551 456.537H571.283C565.354 456.537 560.547 461.338 560.547 467.261V606.785C560.547 612.708 565.354 617.509 571.283 617.509H621.551C627.48 617.509 632.287 612.708 632.287 606.785V467.261C632.287 461.338 627.48 456.537 621.551 456.537Z" fill="black"/>
<path d="M627.085 218.865H598.411V221.964H627.085V218.865Z" fill="#DBF6F0"/>
<path d="M585.105 218.865H556.431V221.964H585.105V218.865Z" fill="#DBF6F0"/>
<path d="M543.116 218.865H514.441V221.964H543.116V218.865Z" fill="#DBF6F0"/>
<path d="M501.136 218.865H472.461V221.964H501.136V218.865Z" fill="#DBF6F0"/>
<path d="M810.198 436.424C813.154 426.491 810.198 416.559 810.198 416.559V407.187C810.198 407.187 813.578 388.867 798.495 377.114L788.495 368.303C788.495 368.303 782.887 363.494 781.257 363.19C780.953 363.125 780.646 363.079 780.336 363.052L780.041 362.877C779.182 361.409 778.449 359.871 777.85 358.279C778.497 358.363 779.155 358.297 779.773 358.086C780.391 357.876 780.952 357.526 781.413 357.065C781.775 356.65 782.059 356.173 782.251 355.658C782.832 354.361 782.933 352.788 783.421 351.409C783.849 350.29 784.472 349.257 785.262 348.356C785.161 348.521 785.051 348.678 784.959 348.852C786.377 347.086 788.227 345.578 789.563 343.72C789.828 343.352 790.071 342.968 790.29 342.571C790.235 342.654 790.161 342.727 790.097 342.81C791.938 339.858 792.5 336.28 793.034 332.832C793.291 331.658 793.31 330.444 793.089 329.263C792.831 328.479 792.498 327.722 792.095 327.001C789.922 322.522 789.959 316.884 786.487 313.307C783.872 310.63 779.912 309.812 776.183 309.352C772.454 308.892 768.531 308.626 765.327 306.676C764.432 305.998 763.442 305.456 762.389 305.066C761.86 304.882 761.282 304.887 760.756 305.082C760.23 305.277 759.789 305.648 759.507 306.133C759.441 306.42 759.308 306.688 759.12 306.915C758.954 307.01 758.767 307.065 758.576 307.076C758.384 307.087 758.192 307.054 758.016 306.979L753.052 305.655L753.108 305.903H752.979L753.163 306.685C753.26 306.668 753.36 306.685 753.446 306.734C753.531 306.783 753.597 306.86 753.632 306.952L752.831 308.184C751.296 308.156 749.778 307.844 748.356 307.264C748.347 307.344 748.347 307.424 748.356 307.504H748.282C748.19 308.901 749.783 309.812 750.271 311.127C750.467 311.703 750.467 312.327 750.271 312.902C750.072 313.436 749.758 313.919 749.351 314.318C747.592 316.057 745.336 315.716 743.31 316.811C743.135 316.885 742.978 316.997 742.851 317.139C742.724 317.28 742.629 317.447 742.573 317.629C742.493 317.765 742.47 317.927 742.509 318.08C742.589 318.291 742.734 318.471 742.923 318.595C743.513 319.071 744.159 319.473 744.848 319.79C744.645 319.974 744.452 320.158 744.268 320.351C741.697 322.961 739.813 326.166 738.785 329.681C737.757 333.195 737.616 336.909 738.376 340.49C739.136 344.072 740.772 347.41 743.139 350.206C745.505 353.002 748.528 355.169 751.938 356.513C752.012 356.899 752.067 357.295 752.122 357.709C752.122 357.755 752.122 357.782 752.122 357.828L752.178 358.362L745.492 361.204C744.484 361.196 743.499 360.902 742.651 360.357C741.803 359.811 741.128 359.036 740.704 358.123C739.148 354.913 733.651 358.123 733.651 358.123C733.651 358.123 716.883 356.872 710.63 359.962C710.63 359.962 700.621 355.768 699.212 355.483C697.803 355.198 695.695 354.085 694.709 354.37C693.724 354.655 692.453 352.531 691.744 352.687C691.035 352.844 690.759 351.289 688.503 350.728C686.247 350.167 685.4 350.876 682.868 348.356C680.335 345.836 659.746 335.903 659.746 335.903L650.501 328.307L640.639 320.471L640.464 320.793C640.4 320.563 640.335 320.324 640.271 320.066C639.29 316.163 638.059 312.326 636.587 308.58C635.952 307.062 635.667 305.149 634.81 306.161C634.285 306.768 633.392 305.434 632.048 304.533C631.763 304.336 631.437 304.206 631.096 304.15C630.754 304.095 630.404 304.117 630.071 304.214C629.738 304.311 629.432 304.48 629.173 304.711C628.915 304.941 628.711 305.226 628.576 305.545C620.897 317.574 618.144 318.42 622.591 322.844C626.56 326.771 629.193 330.201 632.425 331.286L632.812 331.406C632.743 331.424 632.67 331.424 632.6 331.406L651.348 353.791C651.348 353.791 664.875 365.544 674.184 369.315C683.494 373.086 682.776 374.217 682.776 374.217C682.776 374.217 710.971 388.481 715.336 388.205C719.7 387.929 718.862 417.442 717.03 422.233C715.198 427.025 712.242 461.402 712.242 461.402C712.242 461.402 709.415 468.677 712.38 473.708C712.38 473.708 713.034 483.346 712.444 485.664C709.875 489.618 706.21 496.332 705.612 503.239C705.612 503.607 705.538 503.947 705.501 504.305C705.313 504.523 705.089 504.707 704.838 504.848L705.465 504.664C705.198 507.543 704.58 510.378 703.623 513.107C702.132 516.939 701.343 521.007 701.293 525.118V547.337L699.452 561.132C699.452 561.132 697.196 571.571 699.452 574.008C700.403 575.223 700.845 576.759 700.685 578.294C700.591 580.075 701.097 581.836 702.122 583.297C702.514 583.724 702.801 584.236 702.961 584.793C703.12 585.35 703.148 585.937 703.043 586.506C702.297 588.925 704.148 614.667 704.148 614.667C704.148 614.667 703.604 621.758 702.859 622.135C702.113 622.512 704.148 630.338 704.148 630.338C704.148 630.338 696.533 636.684 698.476 640.041L700.418 643.021L699.903 643.526L699.59 643.848C699.002 643.51 698.317 643.38 697.647 643.48C695.253 645.926 692.694 648.203 689.986 650.295C686.551 652.769 677.205 656.356 677.205 656.356L669.838 656.954H669.7C669.7 656.954 666.173 656.622 668.153 662.076C670.133 667.53 687.831 665.856 687.831 665.856L698.162 664.228C698.162 664.228 716.579 664.32 721.855 663.152C724.056 662.665 724.617 661.488 724.433 660.301L724.378 660.246C724.125 659.115 723.607 658.059 722.868 657.165C722.83 657.106 722.787 657.051 722.739 657L723.071 653.229C730.888 648.732 720.861 639.884 720.861 639.884C720.861 639.884 724.295 632.426 726.054 630.007C727.813 627.588 727.813 591.951 727.813 591.951C727.813 591.951 728.734 579.075 726.312 576.096C726.27 575.125 726.493 574.162 726.957 573.308C727.421 572.454 728.108 571.743 728.945 571.249C730.686 570.062 735.944 553.72 740.069 540.154L742.665 556.138C742.665 556.138 742.104 563.79 743.789 566.025C744.106 566.446 744.331 566.929 744.452 567.442C744.572 567.954 744.585 568.487 744.489 569.005C744.089 571.149 744.219 573.359 744.866 575.443C745.064 576.336 745.545 577.143 746.238 577.742C747.739 578.487 747.831 581.145 748.393 581.706C748.955 582.267 752.435 580.915 752.619 582.966C752.725 584.767 752.725 586.572 752.619 588.373L753.752 621.574C753.752 621.574 751.91 624.333 751.496 631.69C751.34 634.826 750.75 636.61 750.142 637.631C749.805 638.179 749.65 638.819 749.7 639.46C749.75 640.101 750.001 640.71 750.419 641.199L750.741 641.577L749.351 642.643C748.792 643.077 748.4 643.69 748.243 644.379C748.085 645.068 748.17 645.79 748.485 646.423C748.037 646.813 747.715 647.328 747.563 647.902C747.41 648.475 747.433 649.082 747.629 649.642C747.686 649.826 747.766 650.003 747.868 650.166C746.812 650.332 745.832 650.816 745.06 651.555C743.671 653.461 741.997 655.142 740.096 656.54C737.338 658.651 734.698 660.91 732.187 663.309C731.003 664.918 729.415 666.187 727.582 666.987C727.133 667.169 726.668 667.308 726.192 667.401C722.509 668.155 723.66 672 726.662 672.634C729.664 673.269 739.627 676.313 747.38 674.538C747.38 674.538 749.682 675.458 753.062 673.747C756.441 672.036 763.982 669.939 763.982 669.939C763.982 669.939 768.209 669.939 768.78 668.266C768.928 667.732 769.009 667.182 769.019 666.629L769.139 666.509L769.028 666.408C769.039 665.154 768.943 663.902 768.743 662.665C768.632 662.021 768.513 661.451 768.402 660.991C768.043 659.593 767.371 657.781 767.086 657.018C767.134 656.957 767.177 656.893 767.214 656.825C768.826 654.066 766.146 647.518 766.146 647.518C767.026 646.123 768.095 644.857 769.323 643.756C770.824 642.634 774.774 613.536 774.774 613.536C774.774 613.536 774.581 606.077 776.616 602.72C778.651 599.363 773.798 579.038 773.798 579.038C773.798 579.038 771.726 574.376 772.481 572.693C773.237 571.01 771.726 564.857 771.726 564.857V557.5C771.722 556.624 771.576 555.754 771.294 554.925C770.714 553.196 769.857 549.876 770.787 547.494C772.104 544.137 775.106 523.435 775.106 523.435C775.106 523.435 772.758 514.302 776.202 507.028C776.47 506.447 776.778 505.884 777.122 505.345C779.673 501.344 778.909 494.235 777.647 488.505C777.463 487.586 777.251 486.758 777.04 485.958C776.957 485.608 776.865 485.277 776.773 484.946L777.178 484.781C777.178 484.781 777.178 484.238 777.307 483.309C778.697 483.034 780.016 482.477 781.182 481.671C782.348 480.866 783.335 479.83 784.084 478.628C784.084 478.628 792.684 468.971 800.29 464.916C807.896 460.86 808.467 454.983 808.467 454.983C807.344 453.024 810.484 445.051 810.484 445.051L810.198 436.424ZM785.391 449.299L777.251 458.726V458.671C775.133 455.728 779.222 449.152 779.222 449.152L785.99 434.07C785.935 436.001 785.695 437.748 785.069 438.512C783.227 441.032 788.458 445.235 788.458 445.235C785.668 445.244 785.391 449.299 785.391 449.299Z" fill="url(#paint0_linear)"/>
<path d="M642.076 325.704L637.628 334.321C636.22 334.201 634.832 333.911 633.494 333.457C631.373 332.824 629.41 331.75 627.736 330.304C626.061 328.858 624.712 327.074 623.779 325.069C619.81 316.314 626.376 310.658 629.433 308.984C632.49 307.31 635.335 305.407 637.628 310.897C639.067 314.622 640.27 318.434 641.228 322.31C641.763 324.325 642.076 325.704 642.076 325.704Z" fill="#CC818C"/>
<path d="M783.32 370.529L776.22 381.087C776.22 381.087 742.675 397.071 749.084 378.328C751.901 370.051 752.233 364.009 751.726 359.824C751.726 359.778 751.726 359.751 751.726 359.705C751.063 354.472 749.093 352.2 749.093 352.2C749.093 352.2 781.791 335.48 776.92 346.912C775.926 349.288 775.531 351.871 775.769 354.435C776.17 358.128 777.371 361.689 779.286 364.873C780.438 366.888 781.789 368.783 783.32 370.529Z" fill="#CC818C"/>
<path d="M773.108 579.673C773.108 579.673 777.933 599.906 775.87 603.208C773.807 606.509 774.028 613.959 774.028 613.959C774.028 613.959 770.133 642.873 768.651 643.977C767.434 645.052 766.371 646.29 765.492 647.656C765.492 647.656 768.144 654.204 766.551 656.908C766.306 657.319 765.935 657.641 765.492 657.827C763.006 658.876 753.817 654.222 748.586 651.389C748.165 651.159 747.806 650.831 747.539 650.433C747.272 650.034 747.105 649.577 747.052 649.101C747 648.624 747.063 648.142 747.237 647.695C747.412 647.248 747.691 646.85 748.052 646.534C747.738 645.907 747.65 645.19 747.805 644.506C747.959 643.822 748.346 643.213 748.899 642.781L750.281 641.715L749.958 641.337C749.545 640.85 749.296 640.244 749.246 639.607C749.197 638.97 749.349 638.333 749.682 637.787C750.281 636.785 750.861 635.028 751.017 631.892C751.395 624.664 753.246 621.886 753.246 621.886L752.131 588.888C752.237 587.099 752.237 585.306 752.131 583.517C751.947 581.485 748.513 582.828 747.96 582.267C747.408 581.706 747.306 579.075 745.824 578.33C745.141 577.731 744.669 576.928 744.479 576.04C743.824 573.958 743.694 571.747 744.102 569.603C744.197 569.088 744.185 568.559 744.066 568.05C743.947 567.54 743.724 567.061 743.411 566.641C741.745 564.416 742.297 556.828 742.297 556.828L739.737 540.936C735.658 554.419 730.474 570.66 728.752 571.837C727.926 572.331 727.248 573.039 726.791 573.886C726.334 574.732 726.115 575.686 726.155 576.647C728.568 579.618 727.638 592.411 727.638 592.411C727.638 592.411 727.638 627.8 725.897 630.219C724.157 632.637 720.787 640.077 720.787 640.077C720.787 640.077 730.732 648.916 722.905 653.376H722.822C714.838 657.827 698.328 645.412 698.328 645.412L700.05 643.692L700.557 643.186L698.604 640.28C696.689 636.941 704.203 630.642 704.203 630.642C704.203 630.642 702.196 622.852 702.932 622.484C703.669 622.116 704.203 615.071 704.203 615.071C704.203 615.071 702.361 589.495 703.116 587.086C703.217 586.519 703.186 585.936 703.027 585.383C702.867 584.83 702.583 584.321 702.196 583.894C701.182 582.443 700.683 580.695 700.778 578.928C700.938 577.404 700.499 575.877 699.553 574.67C697.325 572.26 699.553 561.886 699.553 561.886L701.395 548.165V526.378C701.419 522.172 702.209 518.006 703.724 514.082C704.849 510.901 705.531 507.58 705.75 504.214C706.358 497.187 710.142 490.363 712.684 486.473C714.028 484.413 715.032 483.181 715.032 483.181L774.406 480.863C774.406 480.863 775.327 483.502 776.321 487.172C776.524 487.972 776.726 488.818 776.92 489.701C778.163 495.403 778.909 502.466 776.395 506.439C776.054 506.978 775.746 507.537 775.474 508.113C772.076 515.342 774.397 524.419 774.397 524.419C774.397 524.419 771.432 544.983 770.133 548.33C769.213 550.694 770.06 553.996 770.64 555.688C770.911 556.516 771.051 557.382 771.054 558.254V565.584C771.054 565.584 772.546 571.699 771.8 573.373C771.054 575.047 773.108 579.673 773.108 579.673Z" fill="#444053"/>
<path opacity="0.1" d="M775.842 507.028C775.498 507.561 775.191 508.117 774.922 508.692L771.579 508.508C771.901 506.789 769.627 490.667 769.627 490.667L776.358 490.29C777.601 495.982 778.356 503.046 775.842 507.028Z" fill="black"/>
<path d="M776.395 506.467C776.054 507.005 775.747 507.564 775.474 508.141L772.132 507.947C772.454 506.237 770.179 490.106 770.179 490.106L776.911 489.729C778.163 495.431 778.909 502.494 776.395 506.467Z" fill="#444053"/>
<path opacity="0.05" d="M776.395 506.467C776.054 507.005 775.747 507.564 775.474 508.141L772.132 507.947C772.454 506.237 770.179 490.106 770.179 490.106L776.911 489.729C778.163 495.431 778.909 502.494 776.395 506.467Z" fill="black"/>
<path opacity="0.1" d="M766.561 656.944C766.315 657.356 765.944 657.678 765.502 657.864C763.016 658.913 753.826 654.259 748.596 651.426C747.943 651.066 747.447 650.476 747.205 649.771C750.189 649.228 752.141 652.53 752.141 652.53C752.638 652.219 753.193 652.01 753.772 651.915C754.352 651.821 754.944 651.844 755.515 651.982C756.085 652.12 756.623 652.37 757.095 652.719C757.567 653.067 757.964 653.507 758.264 654.011C760.815 657.763 766.284 656.181 766.284 656.181L766.561 656.944Z" fill="black"/>
<path d="M768.098 668.302C767.546 669.976 763.365 669.976 763.365 669.976C763.365 669.976 755.897 672.11 752.555 673.775C749.212 675.439 746.947 674.566 746.947 674.566C739.295 676.322 729.452 673.269 726.487 672.662C723.522 672.055 722.361 668.22 726.026 667.475C726.496 667.378 726.956 667.237 727.398 667.052C729.234 666.258 730.824 664.988 732.002 663.373C734.483 660.991 737.093 658.747 739.82 656.65C741.697 655.258 743.349 653.586 744.719 651.693C749.083 647.849 752.187 653.128 752.187 653.128C752.685 652.817 753.24 652.608 753.82 652.515C754.399 652.421 754.992 652.445 755.563 652.583C756.133 652.722 756.67 652.974 757.142 653.323C757.614 653.672 758.011 654.113 758.31 654.618C760.861 658.37 766.33 656.779 766.33 656.779C766.33 656.779 767.316 659.29 767.776 661.092C767.886 661.552 768.006 662.122 768.117 662.766C768.365 664.633 768.522 667.052 768.098 668.302Z" fill="#FF748F"/>
<path d="M755.336 656.586C755.616 656.586 755.842 656.359 755.842 656.08C755.842 655.801 755.616 655.574 755.336 655.574C755.056 655.574 754.829 655.801 754.829 656.08C754.829 656.359 755.056 656.586 755.336 656.586Z" fill="#575988"/>
<path d="M750.98 660.66C751.26 660.66 751.487 660.434 751.487 660.154C751.487 659.875 751.26 659.648 750.98 659.648C750.701 659.648 750.474 659.875 750.474 660.154C750.474 660.434 750.701 660.66 750.98 660.66Z" fill="#575988"/>
<path d="M746.551 664.32C746.831 664.32 747.058 664.094 747.058 663.814C747.058 663.535 746.831 663.309 746.551 663.309C746.272 663.309 746.045 663.535 746.045 663.814C746.045 664.094 746.272 664.32 746.551 664.32Z" fill="#575988"/>
<path d="M748.844 662.683C749.124 662.683 749.351 662.457 749.351 662.177C749.351 661.898 749.124 661.672 748.844 661.672C748.565 661.672 748.338 661.898 748.338 662.177C748.338 662.457 748.565 662.683 748.844 662.683Z" fill="#575988"/>
<path d="M753.255 658.499C753.535 658.499 753.761 658.272 753.761 657.993C753.761 657.714 753.535 657.487 753.255 657.487C752.975 657.487 752.748 657.714 752.748 657.993C752.748 658.272 752.975 658.499 753.255 658.499Z" fill="#575988"/>
<path d="M768.098 668.302C767.546 669.976 763.365 669.976 763.365 669.976C763.365 669.976 755.898 672.11 752.555 673.775C749.212 675.439 746.947 674.566 746.947 674.566C739.295 676.322 729.452 673.269 726.487 672.662C723.522 672.055 722.361 668.22 726.026 667.475C726.496 667.378 726.956 667.237 727.398 667.052C730.635 668.165 734.015 668.806 737.435 668.955C744.995 669.277 750.98 668.955 750.98 668.955L758.632 666.5C760.081 665.622 761.69 665.041 763.365 664.789C765.059 664.444 766.662 663.749 768.071 662.748C768.365 664.633 768.522 667.052 768.098 668.302Z" fill="#DCE6F2"/>
<path opacity="0.5" d="M749.056 673.094C748.629 673.097 748.204 673.057 747.785 672.974L747.896 672.432C749.46 672.671 751.061 672.447 752.5 671.788C753.181 671.521 753.863 671.199 754.526 670.868C755.189 670.537 756.119 670.123 756.947 669.82L757.702 669.562C758.117 669.415 758.54 669.277 758.946 669.103C759.176 669.011 759.406 668.9 759.627 668.79C760.17 668.506 760.745 668.287 761.34 668.137C761.644 668.08 761.952 668.04 762.26 668.017C762.544 667.998 762.827 667.965 763.108 667.916C763.665 667.776 764.205 667.575 764.719 667.318C765.269 667.036 765.85 666.82 766.45 666.675L766.855 666.61C767.292 666.599 767.713 666.444 768.052 666.169L768.467 666.546C768.044 666.916 767.509 667.133 766.947 667.162L766.561 667.226C766.002 667.363 765.462 667.563 764.949 667.824C764.397 668.098 763.817 668.311 763.218 668.459C762.914 668.519 762.607 668.555 762.297 668.569C762.007 668.591 761.718 668.627 761.432 668.679C760.879 668.822 760.344 669.029 759.839 669.296L759.139 669.618C758.715 669.792 758.273 669.939 757.85 670.087L757.113 670.344C756.303 670.638 755.511 671.016 754.737 671.374C753.964 671.733 753.375 672.018 752.675 672.294C751.529 672.782 750.301 673.054 749.056 673.094Z" fill="#575988"/>
<path opacity="0.1" d="M750.842 581.016C750.842 581.016 754.691 575.498 761.284 575.498C767.877 575.498 770.695 574.753 770.695 574.753C770.695 574.753 766.478 577.254 763.559 577.576C760.64 577.898 750.842 581.016 750.842 581.016Z" fill="black"/>
<path opacity="0.1" d="M753.071 582.313C753.071 582.313 756.551 579.903 758.54 579.811C760.529 579.719 762.224 579.535 762.224 579.535C761.291 580.189 760.258 580.689 759.167 581.016C757.537 581.476 753.071 582.313 753.071 582.313Z" fill="black"/>
<path opacity="0.1" d="M753.853 583.977C753.853 583.977 759.093 584.391 759.139 585.816L753.853 583.977Z" fill="black"/>
<path opacity="0.1" d="M704.986 505.805C705.262 505.851 709.949 500.939 710.271 498.999C710.527 497.77 711.258 496.693 712.306 496.001C712.306 496.001 715.327 497.206 712.638 500.903C709.949 504.6 704.986 505.805 704.986 505.805Z" fill="black"/>
<path opacity="0.1" d="M776.874 346.893C775.806 349.413 774.867 349.652 775.032 352.053C773.789 353.368 772.359 354.493 770.787 355.391C767.472 357.359 763.863 361.213 759.737 361.213C756.973 361.215 754.234 360.697 751.662 359.686C750.999 354.453 749.028 352.182 749.028 352.182C749.028 352.182 781.736 335.462 776.874 346.893Z" fill="black"/>
<path d="M781.883 338C781.883 342.366 780.587 346.633 778.159 350.263C775.73 353.893 772.279 356.722 768.241 358.392C764.202 360.063 759.759 360.5 755.472 359.648C751.185 358.797 747.247 356.694 744.157 353.608C741.066 350.521 738.961 346.588 738.108 342.306C737.256 338.025 737.693 333.587 739.366 329.553C741.039 325.52 743.871 322.073 747.506 319.648C751.14 317.222 755.413 315.928 759.784 315.928C765.645 315.928 771.266 318.253 775.41 322.393C779.555 326.532 781.883 332.146 781.883 338Z" fill="#CC818C"/>
<path opacity="0.1" d="M783.32 370.529L776.22 381.087C776.22 381.087 742.675 397.071 749.084 378.328C751.901 370.051 752.233 364.009 751.726 359.824H751.782C752.178 361.211 752.404 362.641 752.454 364.082C752.555 366.97 752.629 370.621 759.82 371.826C771.791 373.831 778.181 366.363 779.305 364.901C780.452 366.906 781.797 368.791 783.32 370.529Z" fill="black"/>
<path opacity="0.1" d="M642.076 325.704L637.628 334.321C636.22 334.201 634.832 333.911 633.494 333.457L633.107 332.997C634.948 333.696 641.035 322.154 641.035 322.154L641.228 322.31C641.763 324.324 642.076 325.704 642.076 325.704Z" fill="black"/>
<path opacity="0.1" d="M776.321 487.199C761.993 493.416 712.435 488.119 712.435 488.119C712.583 487.592 712.667 487.048 712.684 486.5C714.028 484.44 715.032 483.208 715.032 483.208L774.406 480.89C774.406 480.89 775.373 483.53 776.321 487.199Z" fill="black"/>
<path d="M751.745 360.339L745.133 363.162C744.136 363.154 743.161 362.862 742.324 362.319C741.488 361.777 740.823 361.007 740.41 360.1C738.872 356.909 733.448 360.1 733.448 360.1C733.448 360.1 716.873 358.849 710.759 361.939C710.759 361.939 700.879 357.764 699.488 357.488C698.098 357.212 696.008 356.099 695.032 356.375C694.056 356.651 692.813 354.536 692.113 354.711C691.413 354.885 691.137 353.322 688.908 352.761C686.68 352.2 685.851 352.899 683.383 350.397C680.916 347.896 660.556 338.028 660.556 338.028L651.348 330.523L641.606 322.743C641.606 322.743 635.483 334.275 633.669 333.576L652.177 355.823C652.177 355.823 665.538 367.494 674.728 371.246C683.917 374.999 683.218 376.112 683.218 376.112C683.218 376.112 711.054 390.293 715.363 390.017C719.673 389.741 718.862 419.033 717.021 423.76C715.179 428.487 712.297 462.681 712.297 462.681C712.297 462.681 709.535 469.909 712.435 474.913C712.435 474.913 713.126 485.204 712.435 487.006C712.435 487.006 762.297 492.331 776.45 486.031C776.45 486.031 778.54 462.957 776.45 460.041C774.36 457.126 778.402 450.624 778.402 450.624L787.307 430.75L809.019 408.926C809.019 408.926 812.353 390.716 797.463 379.045L787.583 370.281C787.583 370.281 782.058 365.508 780.437 365.204C778.817 364.901 779.415 365.204 779.415 365.204C779.415 365.204 772.97 374.594 759.747 372.368C752.583 371.164 752.509 367.513 752.38 364.634C752.342 363.182 752.129 361.74 751.745 360.339Z" fill="#67647E"/>
<path opacity="0.1" d="M778.955 435.164C778.955 435.164 748.329 436.415 742.214 446.025C742.214 446.025 750.152 442.264 757.242 443.377C764.332 444.49 778.955 435.164 778.955 435.164Z" fill="black"/>
<path opacity="0.1" d="M745.133 468.659C745.133 468.659 759.609 469.634 762.675 466.571C765.741 463.509 765.75 461.706 765.75 461.706L745.133 468.659Z" fill="black"/>
<path opacity="0.1" d="M781.883 405.688C781.883 405.688 769.627 420.146 784.526 426.4L781.883 405.688Z" fill="black"/>
<path opacity="0.1" d="M709.369 377.758C709.369 377.758 713.825 386.835 716.054 387.433L709.369 377.758Z" fill="black"/>
<path opacity="0.1" d="M694.341 373.858C694.341 373.858 705.474 383.874 707.564 384.839C707.564 384.839 696.008 373.858 694.341 373.858Z" fill="black"/>
<path opacity="0.1" d="M738.734 364.275C738.734 364.275 728.015 380.259 734.977 390.026C734.977 389.989 731.082 378.448 738.734 364.275Z" fill="black"/>
<path d="M765.75 485.342L762.472 488.423L762.012 488.846L758.218 492.432C757.951 492.635 757.684 492.837 757.408 493.021C741.966 504.057 738.872 487.282 738.872 487.282C738.872 487.282 732.058 491.733 731.082 488.119C730.106 484.505 746.947 479.364 749.498 479.64C749.721 479.662 749.947 479.662 750.17 479.64C751.387 479.438 752.559 479.024 753.632 478.416L754.378 478.021C755.236 477.539 756.069 477.014 756.874 476.448L765.75 485.342Z" fill="#CC818C"/>
<path opacity="0.1" d="M782.399 338C782.407 341.828 781.418 345.593 779.529 348.924C777.641 352.255 774.917 355.039 771.625 357.001C771.317 356.484 771.046 355.946 770.815 355.391C770.023 353.552 769.535 351.565 768.734 349.717C767.858 347.699 766.608 345.864 765.051 344.309C764.787 344.001 764.447 343.766 764.065 343.629C763.707 343.579 763.343 343.604 762.994 343.7C762.646 343.796 762.321 343.963 762.04 344.19C761.102 344.824 760.057 345.282 758.955 345.541C758.403 345.668 757.829 345.65 757.287 345.488C756.744 345.327 756.253 345.029 755.861 344.622C754.995 343.592 755.115 342.083 755.364 340.768C755.907 337.89 756.809 335.057 756.818 332.133C756.828 329.208 755.704 326.063 753.135 324.61C750.888 323.331 748.098 323.69 745.603 322.973C745.216 322.871 744.838 322.742 744.47 322.586C747.538 319.441 751.476 317.282 755.779 316.384C760.082 315.486 764.556 315.89 768.628 317.545C772.7 319.2 776.186 322.03 778.639 325.674C781.092 329.317 782.401 333.609 782.399 338Z" fill="black"/>
<path d="M742.96 319.055C742.564 319.266 742.122 319.653 742.242 320.094C742.318 320.304 742.46 320.485 742.647 320.609C743.678 321.44 744.869 322.051 746.146 322.402C748.642 323.083 751.441 322.761 753.688 324.039C756.229 325.483 757.371 328.638 757.371 331.562C757.371 334.487 756.45 337.32 755.925 340.189C755.677 341.513 755.548 343.022 756.413 344.052C756.807 344.456 757.299 344.753 757.84 344.914C758.382 345.075 758.956 345.095 759.507 344.971C760.609 344.717 761.655 344.262 762.592 343.629C762.875 343.401 763.201 343.233 763.551 343.135C763.901 343.037 764.267 343.011 764.627 343.058C765.006 343.202 765.344 343.436 765.612 343.739C767.171 345.297 768.42 347.134 769.296 349.156C770.106 350.995 770.585 352.972 771.377 354.83C772.067 356.725 773.361 358.34 775.06 359.429C776.828 360.403 779.277 360.348 780.64 358.84C782.003 357.332 781.892 355.262 782.537 353.451C783.642 350.296 786.727 348.319 788.66 345.597C790.824 342.534 791.423 338.69 792.012 334.984C792.274 333.817 792.293 332.608 792.067 331.434C791.815 330.656 791.488 329.905 791.091 329.19C788.937 324.738 788.983 319.138 785.566 315.588C782.988 312.921 779.075 312.111 775.391 311.651C771.708 311.192 767.841 310.934 764.682 308.993C763.797 308.325 762.82 307.786 761.782 307.393C761.256 307.209 760.682 307.214 760.161 307.409C759.639 307.604 759.202 307.976 758.927 308.46C758.862 308.743 758.733 309.007 758.55 309.233C758.385 309.328 758.2 309.383 758.009 309.394C757.819 309.405 757.629 309.372 757.454 309.297L752.555 307.982L753.117 310.447C751.336 310.521 749.561 310.207 747.914 309.527C747.822 310.925 749.397 311.826 749.885 313.132C750.061 313.726 750.068 314.357 749.905 314.955C749.742 315.552 749.417 316.093 748.964 316.516C747.187 318.301 744.968 317.96 742.96 319.055Z" fill="#585268"/>
<path opacity="0.1" d="M723.107 651.169L722.905 653.385H722.822C714.838 657.837 698.328 645.421 698.328 645.421L700.05 643.701C700.333 644.014 700.546 644.383 700.676 644.784C700.806 645.185 700.85 645.609 700.805 646.028L704.175 646.212L708.209 650.562C708.209 650.562 719.12 651.822 722.076 651.123L723.107 651.169Z" fill="black"/>
<path d="M721.708 663.253C716.514 664.412 698.328 664.329 698.328 664.329L688.126 665.939C688.126 665.939 670.63 667.613 668.687 662.187C666.744 656.76 670.216 657.101 670.216 657.101H670.354L677.637 656.512C677.637 656.512 686.846 652.944 690.262 650.488C692.935 648.409 695.461 646.147 697.822 643.719C697.822 643.719 700.86 643.131 700.805 646.644L704.175 646.828L708.209 651.187C708.209 651.187 719.12 652.447 722.076 651.739H723.107L722.638 657.119L722.767 657.276C723.466 658.122 726.349 662.223 721.708 663.253Z" fill="#FF748F"/>
<path d="M702.877 650.277C703.157 650.277 703.383 650.05 703.383 649.771C703.383 649.492 703.157 649.265 702.877 649.265C702.597 649.265 702.371 649.492 702.371 649.771C702.371 650.05 702.597 650.277 702.877 650.277Z" fill="#575988"/>
<path d="M689.792 655.942C690.072 655.942 690.299 655.716 690.299 655.436C690.299 655.157 690.072 654.93 689.792 654.93C689.513 654.93 689.286 655.157 689.286 655.436C689.286 655.716 689.513 655.942 689.792 655.942Z" fill="#575988"/>
<path d="M683.052 657.984C683.332 657.984 683.558 657.757 683.558 657.478C683.558 657.199 683.332 656.972 683.052 656.972C682.772 656.972 682.545 657.199 682.545 657.478C682.545 657.757 682.772 657.984 683.052 657.984Z" fill="#575988"/>
<path d="M693.227 654.857C693.507 654.857 693.733 654.63 693.733 654.351C693.733 654.072 693.507 653.845 693.227 653.845C692.947 653.845 692.72 654.072 692.72 654.351C692.72 654.63 692.947 654.857 693.227 654.857Z" fill="#575988"/>
<path d="M686.413 656.963C686.693 656.963 686.919 656.736 686.919 656.457C686.919 656.178 686.693 655.951 686.413 655.951C686.133 655.951 685.906 656.178 685.906 656.457C685.906 656.736 686.133 656.963 686.413 656.963Z" fill="#575988"/>
<path d="M696.698 653.247C696.978 653.247 697.205 653.021 697.205 652.742C697.205 652.462 696.978 652.236 696.698 652.236C696.419 652.236 696.192 652.462 696.192 652.742C696.192 653.021 696.419 653.247 696.698 653.247Z" fill="#575988"/>
<path d="M700.133 651.757C700.413 651.757 700.64 651.531 700.64 651.252C700.64 650.972 700.413 650.746 700.133 650.746C699.853 650.746 699.627 650.972 699.627 651.252C699.627 651.531 699.853 651.757 700.133 651.757Z" fill="#575988"/>
<path d="M721.708 663.253C716.514 664.412 698.328 664.33 698.328 664.33L688.126 665.939C688.126 665.939 670.63 667.613 668.687 662.187C666.744 656.761 670.216 657.101 670.216 657.101H670.354C671.468 658.545 673.706 660.182 678.098 660.265L690.676 660.77L703.706 659.851C703.706 659.851 715.916 659.492 717.905 659.069C719.575 658.62 721.202 658.023 722.767 657.285C723.466 658.122 726.349 662.223 721.708 663.253Z" fill="#DCE6F2"/>
<path opacity="0.5" d="M689.111 664.716C688.415 664.725 687.721 664.639 687.048 664.458L687.196 663.925C688.912 664.293 690.694 664.214 692.371 663.695C692.987 663.529 693.595 663.355 694.212 663.171C695.327 662.818 696.461 662.532 697.61 662.315C699.466 662.074 701.342 662.019 703.209 662.15H703.605C709.183 662.443 714.778 662.193 720.308 661.405C721.621 661.314 722.871 660.812 723.881 659.97L724.277 660.366C723.185 661.292 721.828 661.849 720.4 661.957C714.833 662.749 709.202 662.999 703.586 662.702H703.181C701.338 662.573 699.488 662.628 697.656 662.867C696.532 663.077 695.421 663.356 694.332 663.704C693.715 663.888 693.098 664.072 692.49 664.228C691.388 664.528 690.253 664.692 689.111 664.716Z" fill="#575988"/>
<path opacity="0.1" d="M765.75 485.342L762.472 488.423L754.332 478.012C755.19 477.53 756.023 477.005 756.828 476.439L765.75 485.342Z" fill="black"/>
<path d="M802.657 400.042L809.102 408.935V418.251C809.102 418.251 812.021 428.119 809.102 437.988L809.415 446.605C809.415 446.605 806.312 454.523 807.426 456.473C807.426 456.473 806.874 462.313 799.36 466.341C791.846 470.369 783.319 479.916 783.319 479.916C783.319 479.916 780.115 486.031 771.487 484.643L763.273 488.119L753.817 476.025L766.616 469.073C766.616 469.073 771.073 463.104 773.715 463.38L784.572 450.725C784.572 450.725 784.848 446.697 787.629 446.697C787.629 446.697 782.482 442.531 784.286 440.029C786.091 437.528 784.572 426.4 784.572 426.4L802.657 400.042Z" fill="#67647E"/>
<path opacity="0.1" d="M790.686 440.581C790.686 440.581 805.299 440.305 807.104 444.057C808.909 447.81 795.097 438.493 790.686 440.581Z" fill="black"/>
<path opacity="0.1" d="M762.076 488.119C762.078 488.363 762.057 488.606 762.012 488.846C761.844 489.965 761.294 490.992 760.455 491.753C759.616 492.513 758.539 492.961 757.408 493.021H757.15C755.846 493.021 754.595 492.504 753.673 491.583C752.751 490.662 752.233 489.412 752.233 488.11C752.234 487.568 752.327 487.03 752.509 486.519C750.189 484.68 750.06 481.295 750.124 479.621C751.341 479.419 752.513 479.005 753.586 478.398C754.192 480.136 755.005 481.794 756.008 483.337C756.382 483.249 756.765 483.202 757.15 483.199C757.797 483.199 758.438 483.326 759.035 483.573C759.633 483.821 760.176 484.183 760.633 484.64C761.091 485.097 761.454 485.639 761.701 486.236C761.949 486.833 762.076 487.473 762.076 488.119Z" fill="black"/>
<path d="M754.028 477.295C754.028 477.295 750.732 478.039 750.732 478.637C750.732 479.235 749.986 484.661 753.605 486.914C757.223 489.168 756.855 483.806 756.855 483.806C756.855 483.806 753.743 479.042 754.028 477.295Z" fill="#575988"/>
<path d="M757.702 493.03C760.418 493.03 762.62 490.831 762.62 488.119C762.62 485.407 760.418 483.208 757.702 483.208C754.987 483.208 752.785 485.407 752.785 488.119C752.785 490.831 754.987 493.03 757.702 493.03Z" fill="#E4AAB4"/>
<path d="M757.702 492.331C760.032 492.331 761.92 490.445 761.92 488.119C761.92 485.793 760.032 483.907 757.702 483.907C755.373 483.907 753.485 485.793 753.485 488.119C753.485 490.445 755.373 492.331 757.702 492.331Z" fill="#DCE6F2"/>
<path opacity="0.1" d="M738.549 490.023C738.549 490.023 748.945 498.631 762.297 493.168V497.344C762.297 497.344 753.393 503.459 745.327 499.753C737.26 496.047 738.549 490.023 738.549 490.023Z" fill="black"/>
<path opacity="0.1" d="M738.549 488.91C738.549 488.91 748.945 497.527 762.297 492.055V496.231C762.297 496.231 753.393 502.347 745.327 498.64C737.26 494.934 738.549 488.91 738.549 488.91Z" fill="black"/>
<path d="M738.549 488.91C738.549 488.91 748.945 497.527 762.297 492.055V496.231C762.297 496.231 753.393 502.347 745.327 498.64C737.26 494.934 738.549 488.91 738.549 488.91Z" fill="#444053"/>
<path opacity="0.05" d="M738.826 488.91C738.826 488.91 749.222 497.527 762.583 492.055V496.231C762.583 496.231 753.678 502.347 745.603 498.64C737.527 494.934 738.826 488.91 738.826 488.91Z" fill="black"/>
<path opacity="0.1" d="M705.888 643.701C705.888 643.701 719.811 646.258 721.846 646.81C723.881 647.361 721.293 648.336 721.293 648.336C721.293 648.336 708.586 646.065 705.888 643.701Z" fill="black"/>
<path opacity="0.1" d="M705.566 636.335C705.796 636.335 715.032 633.741 717.021 629.299L705.566 636.335Z" fill="black"/>
<path opacity="0.1" d="M719.037 583.149C719.037 583.149 722.776 588.061 725.188 587.923C727.601 587.785 721.229 582.965 719.037 583.149Z" fill="black"/>
<path opacity="0.1" d="M721.109 591.335C721.109 591.335 722.684 594.802 725.004 593.689L721.109 591.335Z" fill="black"/>
<path opacity="0.05" d="M729.912 515.001L739.783 541.001C739.783 541.001 741.174 524.272 738.236 519.269C737.401 517.838 736.174 516.676 734.699 515.919C733.224 515.163 731.563 514.845 729.912 515.001Z" fill="black"/>
<g opacity="0.1">
<path opacity="0.1" d="M754.167 308.993L754.084 308.616L752.5 308.193L752.675 308.966C753.171 309.003 753.669 309.012 754.167 308.993Z" fill="black"/>
<path opacity="0.1" d="M749.811 315.266L749.977 315.119C750.43 314.696 750.757 314.155 750.92 313.557C751.082 312.959 751.075 312.328 750.898 311.734C750.706 311.273 750.438 310.847 750.106 310.474C749.326 310.321 748.561 310.096 747.822 309.803C747.73 311.192 749.295 312.093 749.783 313.399C750.01 313.999 750.019 314.659 749.811 315.266Z" fill="black"/>
<path opacity="0.1" d="M776.137 358.003C774.421 356.922 773.11 355.306 772.408 353.405C771.625 351.565 771.137 349.579 770.336 347.739C769.461 345.718 768.211 343.88 766.653 342.323C766.387 342.017 766.048 341.782 765.667 341.642C765.309 341.595 764.945 341.62 764.597 341.717C764.249 341.813 763.924 341.978 763.642 342.203C762.704 342.837 761.659 343.295 760.557 343.555C760.006 343.679 759.431 343.66 758.89 343.499C758.348 343.338 757.856 343.041 757.463 342.635C756.597 341.605 756.717 340.088 756.966 338.773C757.509 335.903 758.411 333.061 758.421 330.146C758.43 327.231 757.306 324.067 754.737 322.623C752.491 321.345 749.701 321.703 747.205 320.986C745.925 320.634 744.731 320.024 743.697 319.193C743.631 319.139 743.569 319.081 743.513 319.018C743.303 319.098 743.1 319.193 742.905 319.303C742.5 319.515 742.067 319.901 742.177 320.342C742.261 320.552 742.405 320.731 742.592 320.857C743.622 321.69 744.813 322.301 746.091 322.651C748.586 323.331 751.376 323.009 753.623 324.288C756.165 325.732 757.306 328.886 757.306 331.811C757.306 334.735 756.386 337.568 755.852 340.437C755.603 341.762 755.483 343.27 756.349 344.3C756.742 344.705 757.234 345.003 757.775 345.164C758.317 345.325 758.891 345.344 759.443 345.22C760.545 344.965 761.591 344.51 762.527 343.877C762.809 343.649 763.133 343.481 763.482 343.383C763.83 343.285 764.195 343.259 764.553 343.307C764.933 343.448 765.272 343.682 765.539 343.987C767.094 345.548 768.343 347.385 769.222 349.404C770.032 351.243 770.511 353.221 771.303 355.078C771.993 356.973 773.287 358.589 774.986 359.677C776.745 360.652 779.203 360.596 780.511 359.088C780.873 358.679 781.154 358.204 781.34 357.69C780.597 358.243 779.71 358.567 778.785 358.623C777.861 358.678 776.941 358.463 776.137 358.003Z" fill="black"/>
<path opacity="0.1" d="M784.093 350.931C785.483 349.174 787.316 347.675 788.623 345.836C788.881 345.468 789.121 345.082 789.342 344.695C787.657 346.838 785.345 348.54 784.093 350.931Z" fill="black"/>
</g>
</g>
<defs>
<linearGradient id="paint0_linear" x1="715.989" y1="675.099" x2="715.989" y2="304.119" gradientUnits="userSpaceOnUse">
<stop stop-color="#808080" stop-opacity="0.25"/>
<stop offset="0.54" stop-color="#808080" stop-opacity="0.12"/>
<stop offset="1" stop-color="#808080" stop-opacity="0.1"/>
</linearGradient>
<clipPath id="clip0">
<rect width="946" height="721" fill="white"/>
</clipPath>
</defs>
</svg>
