<svg width="145" height="92" viewBox="0 0 145 92" fill="none" xmlns="http://www.w3.org/2000/svg">
<path d="M16.5419 81.5616C16.549 81.6483 16.5375 81.7354 16.5081 81.8172C16.4787 81.899 16.4321 81.9735 16.3714 82.0358C16.3129 82.0987 16.2419 82.1487 16.1631 82.1826C16.0842 82.2165 15.9991 82.2337 15.9132 82.2329H12.9245C12.7635 82.2332 12.6084 82.1723 12.4906 82.0625C12.3729 81.9527 12.3013 81.8022 12.2905 81.6415C11.9655 78.0988 9.72267 75.0035 8.64119 73.6929H4.24601V81.5936C4.24784 81.7625 4.18272 81.9253 4.06487 82.0464C4.00553 82.106 3.93493 82.1531 3.85719 82.1852C3.77944 82.2172 3.69611 82.2334 3.61204 82.2329H0.639298C0.555597 82.2336 0.472585 82.2177 0.395052 82.1862C0.317519 82.1546 0.247 82.108 0.187565 82.0491C0.12813 81.9902 0.0809553 81.92 0.0487627 81.8428C0.01657 81.7655 -2.95511e-06 81.6826 3.95229e-10 81.5989V58.9997C3.95228e-10 58.8302 0.0673545 58.6676 0.187246 58.5477C0.307138 58.4278 0.469746 58.3604 0.639298 58.3604H8.9928C10.9709 58.3604 12.868 59.1462 14.2667 60.545C15.6655 61.9437 16.4513 63.8408 16.4513 65.8189V66.2877C16.4445 67.5297 16.1275 68.7504 15.5293 69.8389C14.9311 70.9274 14.0705 71.8493 13.0257 72.5209C14.4695 74.6359 16.2701 77.9389 16.5419 81.5616ZM12.1786 65.7976C12.1786 64.9498 11.8419 64.1368 11.2424 63.5373C10.6429 62.9379 9.82991 62.6011 8.98215 62.6011H4.24068V69.4416H8.98215C9.82991 69.4416 10.6429 69.1048 11.2424 68.5054C11.8419 67.9059 12.1786 67.0929 12.1786 66.2451V65.7976Z" fill="black"/>
<path d="M36.5199 78.6315V81.6042C36.5199 81.6882 36.5034 81.7713 36.4713 81.8489C36.4391 81.9264 36.392 81.9969 36.3327 82.0563C36.2733 82.1156 36.2028 82.1627 36.1253 82.1949C36.0477 82.227 35.9646 82.2435 35.8806 82.2435H22.5033C22.3337 82.2435 22.1711 82.1762 22.0512 82.0563C21.9314 81.9364 21.864 81.7738 21.864 81.6042V58.9997C21.8654 58.8311 21.9334 58.6698 22.0531 58.5511C22.1729 58.4323 22.3347 58.3657 22.5033 58.3657H35.0016C35.1697 58.3657 35.331 58.4325 35.4499 58.5514C35.5688 58.6703 35.6356 58.8316 35.6356 58.9997V61.9778C35.6356 62.1459 35.5688 62.3072 35.4499 62.426C35.331 62.5449 35.1697 62.6117 35.0016 62.6117H26.1153V67.9392H33.2329C33.3169 67.9387 33.4003 67.955 33.478 67.987C33.5558 68.019 33.6263 68.0661 33.6857 68.1257C33.8037 68.2449 33.8706 68.4054 33.8722 68.5732V71.5513C33.8706 71.719 33.8037 71.8795 33.6857 71.9988C33.6263 72.0583 33.5558 72.1055 33.478 72.1375C33.4003 72.1695 33.3169 72.1857 33.2329 72.1852H26.1153V77.9815H35.8806C36.0502 77.9815 36.2128 78.0489 36.3327 78.1688C36.4526 78.2887 36.5199 78.4513 36.5199 78.6208V78.6315Z" fill="black"/>
<path d="M59.3162 58.9997V81.6043C59.3163 81.688 59.2997 81.7709 59.2675 81.8481C59.2353 81.9254 59.1881 81.9955 59.1287 82.0545C59.0692 82.1134 58.9987 82.16 58.9212 82.1915C58.8437 82.2231 58.7607 82.239 58.677 82.2382H54.5801C54.4699 82.233 54.3629 82.1994 54.2696 82.1406C54.1762 82.0818 54.0997 81.9998 54.0474 81.9026L45.598 66.2558V81.6043C45.598 81.688 45.5814 81.7709 45.5492 81.8481C45.517 81.9254 45.4698 81.9955 45.4104 82.0545C45.351 82.1134 45.2805 82.16 45.2029 82.1915C45.1254 82.2231 45.0424 82.239 44.9587 82.2382H41.9859C41.9022 82.239 41.8192 82.2231 41.7417 82.1915C41.6642 82.16 41.5936 82.1134 41.5342 82.0545C41.4748 81.9955 41.4276 81.9254 41.3954 81.8481C41.3632 81.7709 41.3466 81.688 41.3466 81.6043V58.9997C41.3466 58.8302 41.414 58.6676 41.5339 58.5477C41.6538 58.4278 41.8164 58.3604 41.9859 58.3604H45.9496C46.0598 58.3657 46.1668 58.3993 46.2601 58.4581C46.3535 58.5169 46.43 58.5989 46.4823 58.6961C47.7343 60.9922 55.0383 74.4281 55.0383 74.4281V58.9784C55.0383 58.8089 55.1056 58.6463 55.2255 58.5264C55.3454 58.4065 55.508 58.3391 55.6776 58.3391H58.6503C58.7383 58.3354 58.8261 58.3499 58.9082 58.3817C58.9904 58.4135 59.065 58.462 59.1276 58.524C59.1901 58.586 59.2391 58.6603 59.2716 58.7422C59.3041 58.824 59.3193 58.9117 59.3162 58.9997Z" fill="black"/>
<path d="M83.3113 58.9997V61.9724C83.31 62.1418 83.2431 62.3041 83.1248 62.4253C83.0658 62.4853 82.9953 62.5328 82.9175 62.5648C82.8396 62.5969 82.7561 62.6128 82.672 62.6117H75.4213V81.6042C75.4213 81.7724 75.3545 81.9336 75.2356 82.0525C75.1167 82.1714 74.9554 82.2382 74.7873 82.2382H71.8146C71.7308 82.2389 71.6478 82.223 71.5703 82.1915C71.4928 82.16 71.4223 82.1134 71.3628 82.0544C71.3034 81.9955 71.2562 81.9254 71.224 81.8481C71.1918 81.7708 71.1752 81.6879 71.1752 81.6042V62.6117H63.9245C63.7568 62.6102 63.5963 62.5433 63.477 62.4253C63.4175 62.3659 63.3703 62.2953 63.3383 62.2176C63.3063 62.1399 63.2901 62.0565 63.2906 61.9724V58.9997C63.2899 58.916 63.3057 58.833 63.3373 58.7555C63.3688 58.6779 63.4154 58.6074 63.4744 58.548C63.5333 58.4885 63.6034 58.4414 63.6807 58.4092C63.758 58.377 63.8408 58.3604 63.9245 58.3604H82.6773C82.761 58.3604 82.8439 58.377 82.9211 58.4092C82.9984 58.4414 83.0685 58.4885 83.1275 58.548C83.1864 58.6074 83.233 58.6779 83.2645 58.7555C83.2961 58.833 83.312 58.916 83.3113 58.9997Z" fill="black"/>
<path d="M91.5103 58.9997V81.5989C91.5103 81.7685 91.4429 81.9311 91.323 82.051C91.2031 82.1709 91.0405 82.2382 90.871 82.2382H87.8982C87.7301 82.2382 87.5688 82.1714 87.4499 82.0525C87.3311 81.9336 87.2643 81.7724 87.2643 81.6042V58.9997C87.2636 58.916 87.2794 58.833 87.311 58.7555C87.3425 58.6779 87.3891 58.6074 87.448 58.548C87.507 58.4885 87.5771 58.4414 87.6544 58.4092C87.7316 58.377 87.8145 58.3604 87.8982 58.3604H90.871C91.0406 58.3606 91.2033 58.4276 91.3238 58.5469C91.3834 58.6062 91.4305 58.6768 91.4625 58.7546C91.4945 58.8323 91.5108 58.9156 91.5103 58.9997Z" fill="black"/>
<path d="M43.4723 53.4751V24.744C43.4723 22.7178 44.2772 20.7747 45.7099 19.342C47.1426 17.9093 49.0858 17.1044 51.1119 17.1044H122.42C123.424 17.1044 124.417 17.302 125.344 17.6859C126.271 18.0698 127.113 18.6326 127.822 19.342C128.532 20.0514 129.095 20.8936 129.478 21.8204C129.862 22.7473 130.06 23.7407 130.06 24.744V62.9474C130.061 63.9507 129.863 64.9444 129.479 65.8713C129.095 66.7983 128.532 67.6404 127.822 68.3495C126.437 69.7293 124.53 70.0596 122.42 70.0596H96.5128" stroke="black" stroke-width="7.97" stroke-linejoin="round"/>
<path d="M6.09997 91.556C6.11011 91.587 6.11299 91.62 6.10837 91.6523C6.10375 91.6846 6.09176 91.7155 6.07333 91.7424C6.05506 91.7709 6.02979 91.7942 5.99993 91.81C5.97008 91.8259 5.93665 91.8338 5.90285 91.833H5.56722C5.52642 91.8351 5.48608 91.8237 5.4524 91.8006C5.41871 91.7775 5.39354 91.7439 5.38076 91.7052L4.72015 90.0217H1.42243C1.0868 90.8634 0.863045 91.4281 0.761823 91.7052C0.747315 91.7439 0.720986 91.7771 0.686565 91.8C0.652144 91.823 0.611375 91.8345 0.570033 91.833H0.202437C0.169537 91.8329 0.13719 91.8245 0.108343 91.8087C0.0794965 91.7929 0.0550678 91.7701 0.0372844 91.7424C0.0231518 91.7134 0.0158081 91.6815 0.0158081 91.6492C0.0158081 91.6169 0.0231518 91.585 0.0372844 91.556C0.548723 90.2596 1.41355 88.0718 2.63177 84.9925C2.64655 84.9529 2.6737 84.919 2.7092 84.896C2.7447 84.873 2.78666 84.862 2.82889 84.8646H3.36164C3.40298 84.8631 3.44375 84.8747 3.47817 84.8976C3.51259 84.9206 3.53892 84.9538 3.55343 84.9925C4.11459 86.4629 4.96344 88.6507 6.09997 91.556ZM1.69946 89.2758H4.38984L3.05264 85.8662L1.69946 89.2758Z" fill="black"/>
<path d="M13.3507 84.7421C13.3697 84.7609 13.3847 84.7833 13.3948 84.808C13.4048 84.8328 13.4098 84.8593 13.4093 84.886V91.6306C13.4085 91.6842 13.3876 91.7355 13.3507 91.7744C13.3102 91.8121 13.2569 91.8331 13.2015 91.833H12.8659C12.8105 91.8331 12.7572 91.8121 12.7167 91.7744C12.6813 91.735 12.6622 91.6836 12.6634 91.6306V91.0605C12.4218 91.3528 12.1169 91.5862 11.7716 91.7431C11.4264 91.9001 11.05 91.9763 10.671 91.9662C10.4223 91.9679 10.1778 91.9019 9.96379 91.7752C9.74979 91.6485 9.57434 91.4659 9.45629 91.247C9.12332 90.6206 8.96853 89.9148 9.00878 89.2066C8.97405 88.5723 9.11802 87.941 9.42433 87.3846C9.5541 87.1716 9.73759 86.9965 9.95639 86.8768C10.1752 86.7571 10.4216 86.697 10.671 86.7026C11.063 86.6873 11.4524 86.7734 11.8014 86.9526C12.1505 87.1318 12.4474 87.398 12.6634 87.7255V84.902C12.6619 84.8756 12.6659 84.8492 12.6751 84.8245C12.6842 84.7997 12.6984 84.7771 12.7167 84.7581C12.7361 84.7384 12.7594 84.7231 12.7851 84.713C12.8108 84.7029 12.8383 84.6983 12.8659 84.6995H13.2015C13.228 84.6961 13.2548 84.6982 13.2805 84.7055C13.3061 84.7128 13.33 84.7253 13.3507 84.7421ZM12.6634 90.2348V88.6046C12.6214 88.4973 12.564 88.3968 12.493 88.3062C12.3943 88.1674 12.2818 88.0389 12.1573 87.9226C12.0016 87.774 11.8213 87.6532 11.6246 87.5657C11.398 87.4676 11.1521 87.422 10.9054 87.4325C10.7339 87.4275 10.5645 87.4702 10.4159 87.5558C10.2673 87.6414 10.1454 87.7666 10.0636 87.9173C9.85362 88.3076 9.75415 88.7479 9.77594 89.1906C9.77016 89.5502 9.81499 89.9089 9.90913 90.2561C9.97333 90.5184 10.1057 90.7592 10.2927 90.954C10.4546 91.109 10.6705 91.195 10.8947 91.1937C11.1357 91.193 11.3749 91.1534 11.6033 91.0765C11.794 91.0072 11.9735 90.9103 12.136 90.7888C12.2593 90.693 12.375 90.5879 12.4823 90.4745C12.5514 90.4016 12.6121 90.3212 12.6634 90.2348Z" fill="black"/>
<path d="M17.8205 87.5604C18.0015 87.3087 18.225 87.0905 18.4811 86.9157C18.7504 86.7529 19.0617 86.6732 19.3761 86.6867C19.5582 86.684 19.7391 86.7165 19.9088 86.7826C20.0541 86.837 20.1879 86.9183 20.3031 87.0223C20.399 87.1182 20.4895 87.2087 20.5695 87.3046C20.6315 87.3753 20.6835 87.4542 20.724 87.5391L20.7826 87.6456C20.7901 87.6245 20.8009 87.6048 20.8145 87.587L20.937 87.4485C21.001 87.3792 21.0702 87.3153 21.1342 87.2567C21.2186 87.1837 21.3076 87.1161 21.4005 87.0543C21.5077 86.9824 21.6198 86.9183 21.7362 86.8625C21.8642 86.8038 21.9981 86.7591 22.1357 86.7293C22.2836 86.6918 22.4363 86.6775 22.5886 86.6867C22.827 86.6881 23.0608 86.753 23.2659 86.8747C23.4709 86.9964 23.6398 87.1706 23.7553 87.3792C24.0631 87.9314 24.209 88.5592 24.1762 89.1906V91.6306C24.1774 91.6836 24.1583 91.735 24.1229 91.7744C24.084 91.8113 24.0327 91.8323 23.979 91.833H23.6434C23.5907 91.8316 23.5405 91.8097 23.5037 91.7719C23.4669 91.734 23.4463 91.6834 23.4463 91.6306V89.1906C23.4463 88.9562 23.4463 88.7786 23.4463 88.6578C23.4394 88.5199 23.4215 88.3827 23.393 88.2476C23.3654 88.113 23.3169 87.9836 23.2492 87.864C23.1795 87.7323 23.0752 87.622 22.9476 87.545C22.8199 87.468 22.6737 87.4273 22.5246 87.4272C22.2835 87.4159 22.0439 87.4712 21.8321 87.587C21.6235 87.6804 21.4406 87.823 21.2993 88.0025C21.165 88.1814 21.0573 88.3788 20.9797 88.5886V91.6359C20.9808 91.6789 20.9655 91.7208 20.937 91.7531C20.9036 91.7796 20.8625 91.7946 20.8198 91.7957H20.4522C20.4112 91.7946 20.3718 91.7796 20.3404 91.7531C20.3116 91.7194 20.2914 91.6792 20.2818 91.6359V89.1852C20.2818 88.9508 20.2818 88.775 20.2818 88.6525C20.2795 88.5145 20.2635 88.3771 20.2338 88.2423C20.2062 88.1077 20.1577 87.9783 20.09 87.8587C20.0189 87.7281 19.9144 87.6187 19.787 87.5419C19.6597 87.4651 19.5141 87.4237 19.3654 87.4218C19.1226 87.411 18.8814 87.4662 18.6675 87.5817C18.4594 87.6758 18.2767 87.8182 18.1348 87.9972C18.0019 88.1753 17.8976 88.373 17.8258 88.5832V91.6199C17.827 91.6729 17.808 91.7244 17.7725 91.7638C17.7337 91.8007 17.6823 91.8216 17.6287 91.8224H17.2344C17.1791 91.8224 17.1258 91.8015 17.0853 91.7638C17.0483 91.7249 17.0274 91.6735 17.0267 91.6199V86.9956C17.0267 86.9686 17.0321 86.9418 17.0426 86.9169C17.0531 86.892 17.0685 86.8695 17.0878 86.8506C17.1072 86.8317 17.1302 86.8169 17.1553 86.8071C17.1805 86.7972 17.2074 86.7925 17.2344 86.7932H17.5754C17.6013 86.7931 17.6268 86.7983 17.6506 86.8084C17.6744 86.8184 17.696 86.8332 17.7139 86.8518C17.7329 86.8706 17.7479 86.893 17.758 86.9177C17.7681 86.9424 17.773 86.969 17.7725 86.9956V87.635C17.7858 87.6085 17.8019 87.5835 17.8205 87.5604Z" fill="black"/>
<path d="M28.2677 84.9073C28.3209 84.9087 28.3716 84.9304 28.4093 84.9681C28.447 85.0058 28.4688 85.0565 28.4701 85.1098V85.6425C28.4691 85.6679 28.4629 85.6928 28.4519 85.7157C28.4409 85.7386 28.4253 85.759 28.4062 85.7757C28.3692 85.8123 28.3196 85.8333 28.2677 85.8343H27.9427C27.8891 85.8336 27.8377 85.8126 27.7988 85.7757C27.7635 85.7401 27.7426 85.6926 27.7402 85.6425V85.1098C27.7398 85.0831 27.7447 85.0566 27.7548 85.0318C27.7648 85.0071 27.7798 84.9847 27.7988 84.9659C27.8174 84.9467 27.8398 84.9315 27.8646 84.9214C27.8893 84.9113 27.9159 84.9065 27.9427 84.9073H28.2677ZM28.2677 86.7932C28.3209 86.7946 28.3716 86.8164 28.4093 86.854C28.447 86.8917 28.4688 86.9424 28.4701 86.9957V91.62C28.4699 91.647 28.4641 91.6738 28.4531 91.6985C28.4421 91.7233 28.4261 91.7455 28.4062 91.7638C28.3692 91.8004 28.3196 91.8214 28.2677 91.8224H27.9427C27.889 91.8224 27.8375 91.8011 27.7995 91.7631C27.7616 91.7251 27.7402 91.6736 27.7402 91.62V86.9957C27.7398 86.969 27.7447 86.9425 27.7548 86.9178C27.7648 86.893 27.7798 86.8706 27.7988 86.8519C27.8179 86.8336 27.8405 86.8194 27.8652 86.8102C27.89 86.801 27.9163 86.7971 27.9427 86.7986L28.2677 86.7932Z" fill="black"/>
<path d="M34.5008 86.6866C34.7333 86.6869 34.9613 86.7505 35.1603 86.8707C35.3593 86.9908 35.5218 87.163 35.6303 87.3686C35.9237 87.9292 36.0599 88.5588 36.0245 89.1906V91.6306C36.0253 91.6573 36.0205 91.6839 36.0104 91.7087C36.0003 91.7334 35.9851 91.7558 35.9659 91.7744C35.9471 91.7934 35.9247 91.8084 35.9 91.8185C35.8753 91.8285 35.8487 91.8335 35.822 91.833H35.4811C35.4274 91.833 35.3759 91.8117 35.3379 91.7737C35.3 91.7357 35.2786 91.6843 35.2786 91.6306V88.791C35.2855 88.681 35.2855 88.5707 35.2786 88.4607C35.2717 88.3466 35.2502 88.2338 35.2147 88.1251C35.191 88.0336 35.1513 87.947 35.0975 87.8693C35.0274 87.738 34.923 87.628 34.7954 87.5511C34.6679 87.4742 34.5219 87.4332 34.373 87.4325C34.2062 87.4237 34.0394 87.4491 33.8828 87.5071C33.7314 87.5575 33.5878 87.6292 33.4566 87.7202C33.3434 87.8007 33.2429 87.8977 33.1583 88.0079C33.0293 88.1884 32.9254 88.3855 32.8493 88.5939V91.6306C32.8491 91.6576 32.8433 91.6844 32.8323 91.7091C32.8213 91.7339 32.8053 91.7561 32.7854 91.7744C32.7484 91.811 32.6988 91.832 32.6469 91.833H32.3059C32.2522 91.833 32.2007 91.8117 32.1628 91.7737C32.1248 91.7357 32.1035 91.6843 32.1035 91.6306V87.0063C32.103 86.9796 32.1079 86.9531 32.118 86.9284C32.1281 86.9036 32.1431 86.8812 32.1621 86.8625C32.1806 86.8432 32.203 86.828 32.2278 86.8179C32.2526 86.8078 32.2792 86.803 32.3059 86.8039H32.6469C32.7006 86.8039 32.752 86.8252 32.79 86.8631C32.828 86.9011 32.8493 86.9526 32.8493 87.0063V87.6456C32.8636 87.6152 32.8815 87.5865 32.9026 87.5604C33.0757 87.2937 33.3124 87.0742 33.5914 86.9217C33.8703 86.7692 34.1829 86.6884 34.5008 86.6866Z" fill="black"/>
<path d="M40.1053 84.9073C40.1586 84.9087 40.2093 84.9304 40.247 84.9681C40.2847 85.0058 40.3064 85.0565 40.3078 85.1098V85.6425C40.3068 85.6679 40.3006 85.6928 40.2896 85.7157C40.2786 85.7386 40.263 85.759 40.2439 85.7757C40.2069 85.8123 40.1573 85.8333 40.1053 85.8343H39.7644C39.7108 85.8336 39.6594 85.8126 39.6205 85.7757C39.5852 85.7401 39.5643 85.6926 39.5619 85.6425V85.1098C39.5615 85.0831 39.5664 85.0566 39.5765 85.0318C39.5865 85.0071 39.6015 84.9847 39.6205 84.9659C39.6391 84.9467 39.6615 84.9315 39.6863 84.9214C39.711 84.9113 39.7376 84.9065 39.7644 84.9073H40.1053ZM40.1053 86.7932C40.1586 86.7946 40.2093 86.8164 40.247 86.854C40.2847 86.8917 40.3064 86.9424 40.3078 86.9957V91.62C40.3076 91.647 40.3018 91.6738 40.2908 91.6985C40.2798 91.7233 40.2638 91.7455 40.2439 91.7638C40.2069 91.8004 40.1573 91.8214 40.1053 91.8224H39.7644C39.7107 91.8224 39.6592 91.8011 39.6212 91.7631C39.5833 91.7251 39.5619 91.6736 39.5619 91.62V86.9957C39.5615 86.969 39.5664 86.9425 39.5765 86.9178C39.5865 86.893 39.6015 86.8706 39.6205 86.8519C39.6391 86.8326 39.6615 86.8174 39.6863 86.8073C39.711 86.7972 39.7376 86.7924 39.7644 86.7932H40.1053Z" fill="black"/>
<path d="M46.8393 89.6062C46.9769 89.6993 47.0897 89.8247 47.1677 89.9714C47.2457 90.1181 47.2866 90.2817 47.2868 90.4479C47.286 90.6545 47.2375 90.8582 47.145 91.043C47.0526 91.2278 46.9188 91.3888 46.754 91.5134C46.3977 91.8153 45.9423 91.9747 45.4754 91.9609C45.1951 91.9536 44.9171 91.907 44.6497 91.8224C44.3542 91.7332 44.0753 91.5964 43.8239 91.4175C43.8016 91.4013 43.783 91.3806 43.7693 91.3567C43.7555 91.3329 43.7469 91.3064 43.744 91.279C43.7428 91.2253 43.7597 91.1728 43.7919 91.1298C43.8878 91.0233 43.9624 90.938 44.0264 90.8741C44.0398 90.852 44.058 90.8333 44.0798 90.8193C44.1015 90.8053 44.1261 90.7964 44.1518 90.7933C44.1774 90.7902 44.2034 90.793 44.2279 90.8015C44.2523 90.81 44.2745 90.8239 44.2927 90.8421C44.639 91.0855 45.0522 91.2158 45.4754 91.2151C45.657 91.2171 45.8375 91.1864 46.0082 91.1245C46.1591 91.0716 46.2932 90.9797 46.3971 90.8581C46.4911 90.7463 46.5421 90.6046 46.5409 90.4586C46.5409 90.3414 46.4557 90.2348 46.2852 90.1283C45.9909 89.9839 45.6842 89.8662 45.3689 89.7766C44.9943 89.6641 44.6361 89.5029 44.3034 89.2972C44.1174 89.1807 43.9642 89.0189 43.8579 88.8269C43.7517 88.6349 43.696 88.4191 43.696 88.1997C43.6981 87.9933 43.7471 87.7901 43.8394 87.6055C43.9317 87.4208 44.0649 87.2597 44.2288 87.1342C44.5859 86.8336 45.0408 86.6744 45.5074 86.6867C45.7881 86.691 46.0664 86.7377 46.3332 86.8252C46.6307 86.9088 46.9106 87.046 47.1589 87.2301C47.1836 87.2437 47.2041 87.2638 47.2182 87.2882C47.2323 87.3126 47.2394 87.3404 47.2388 87.3686C47.2415 87.3954 47.2386 87.4225 47.2303 87.4482C47.2221 87.4738 47.2086 87.4975 47.1909 87.5178L46.9458 87.7842C46.917 87.8231 46.8743 87.8492 46.8266 87.8572C46.7789 87.8651 46.7299 87.8542 46.6901 87.8268C46.3395 87.5877 45.9309 87.4478 45.5074 87.4219C45.2419 87.4134 44.9805 87.4899 44.7615 87.6403C44.6703 87.697 44.5944 87.7752 44.5406 87.8681C44.4867 87.961 44.4565 88.0658 44.4525 88.1731C44.4623 88.2979 44.5063 88.4176 44.5796 88.5191C44.6529 88.6206 44.7527 88.6999 44.8681 88.7484L45.2091 88.9029L45.6779 89.0681L46.0508 89.196C46.333 89.2916 46.599 89.4299 46.8393 89.6062Z" fill="black"/>
<path d="M53.1151 91.4601C53.1361 91.5131 53.1361 91.5722 53.1151 91.6252C53.1052 91.6515 53.0895 91.6752 53.0692 91.6946C53.0489 91.7139 53.0245 91.7285 52.9978 91.7371C52.7016 91.878 52.3776 91.9508 52.0496 91.9502C51.7281 91.931 51.4248 91.7945 51.1972 91.5666C50.997 91.3368 50.8905 91.0402 50.8988 90.7356V87.4645H50.5046C50.4509 87.4645 50.3994 87.4431 50.3614 87.4052C50.3235 87.3672 50.3021 87.3157 50.3021 87.262V86.9317C50.3017 86.905 50.3066 86.8785 50.3167 86.8538C50.3267 86.8291 50.3417 86.8066 50.3607 86.7879C50.3793 86.7686 50.4017 86.7535 50.4265 86.7434C50.4512 86.7333 50.4778 86.7285 50.5046 86.7293H50.8988V85.4187C50.8983 85.392 50.9033 85.3655 50.9134 85.3408C50.9234 85.3161 50.9384 85.2936 50.9574 85.2749C50.976 85.2556 50.9984 85.2405 51.0231 85.2304C51.0479 85.2203 51.0745 85.2155 51.1013 85.2163H51.4316C51.4853 85.2163 51.5368 85.2376 51.5747 85.2756C51.6127 85.3135 51.634 85.365 51.634 85.4187V86.7293H52.838C52.8917 86.7293 52.9432 86.7506 52.9812 86.7886C53.0191 86.8265 53.0405 86.878 53.0405 86.9317V87.262C53.0413 87.2888 53.0365 87.3154 53.0264 87.3401C53.0163 87.3649 53.0011 87.3873 52.9819 87.4059C52.9631 87.4249 52.9407 87.4399 52.916 87.4499C52.8912 87.46 52.8647 87.465 52.838 87.4645H51.634V90.7356C51.6271 90.8518 51.6653 90.9663 51.7406 91.0552C51.8421 91.1494 51.975 91.2025 52.1135 91.2044C52.3208 91.1983 52.5244 91.1474 52.7102 91.0552C52.7336 91.0446 52.759 91.0391 52.7847 91.0391C52.8105 91.0391 52.8359 91.0446 52.8593 91.0552C52.8841 91.0619 52.9068 91.0747 52.9254 91.0923C52.944 91.11 52.9579 91.132 52.9659 91.1564C53.0085 91.2363 53.0618 91.3376 53.1151 91.4601Z" fill="black"/>
<path d="M58.922 86.6973C58.9465 86.6991 58.9704 86.7056 58.9923 86.7166C59.0143 86.7275 59.0338 86.7427 59.0499 86.7613C59.0683 86.7791 59.0826 86.8007 59.0919 86.8246C59.1011 86.8486 59.1049 86.8742 59.1032 86.8998V87.262C59.1042 87.294 59.0975 87.3257 59.0836 87.3545C59.0697 87.3833 59.049 87.4082 59.0232 87.4272C58.998 87.4449 58.9694 87.4574 58.9392 87.4638C58.9089 87.4702 58.8777 87.4704 58.8474 87.4645C58.7822 87.4426 58.7138 87.4318 58.645 87.4325C58.4022 87.4287 58.1659 87.5118 57.9791 87.6669C57.7771 87.8184 57.5978 87.9978 57.4463 88.1997C57.3134 88.3777 57.2091 88.5755 57.1373 88.7857V91.6199C57.1371 91.647 57.1313 91.6738 57.1203 91.6985C57.1093 91.7233 57.0933 91.7455 57.0734 91.7638C57.0365 91.8004 56.9869 91.8214 56.9349 91.8224H56.5939C56.5402 91.8224 56.4887 91.801 56.4508 91.7631C56.4128 91.7251 56.3915 91.6736 56.3915 91.6199V86.9957C56.391 86.969 56.3959 86.9425 56.406 86.9177C56.4161 86.893 56.4311 86.8706 56.4501 86.8518C56.4686 86.8326 56.491 86.8174 56.5158 86.8073C56.5406 86.7972 56.5672 86.7924 56.5939 86.7932H56.9349C56.9886 86.7932 57.0401 86.8146 57.078 86.8525C57.116 86.8905 57.1373 86.942 57.1373 86.9957V87.635C57.1515 87.6045 57.1694 87.5758 57.1906 87.5497C57.3637 87.283 57.6004 87.0636 57.8794 86.911C58.1584 86.7585 58.4709 86.6778 58.7888 86.676C58.8341 86.6762 58.879 86.6834 58.922 86.6973Z" fill="black"/>
<path d="M65.7945 91.1192C65.7966 91.298 65.8144 91.4762 65.8477 91.6519C65.8534 91.6742 65.8535 91.6976 65.8479 91.7199C65.8424 91.7422 65.8313 91.7628 65.8158 91.7798C65.8017 91.7972 65.7838 91.811 65.7635 91.8203C65.7431 91.8295 65.7209 91.8339 65.6986 91.8331H65.283C65.2409 91.8346 65.1999 91.82 65.1682 91.7923C65.1365 91.7646 65.1166 91.7258 65.1125 91.6839C65.0702 91.4842 65.0488 91.2807 65.0486 91.0765V91.0126C64.852 91.2957 64.5912 91.5282 64.2874 91.6912C63.9837 91.8541 63.6458 91.9429 63.3012 91.9503C62.9144 91.9589 62.5371 91.8306 62.2357 91.588C62.0744 91.4423 61.9476 91.2624 61.8646 91.0615C61.7817 90.8606 61.7446 90.6437 61.7562 90.4266C61.7471 90.0786 61.8558 89.7377 62.0647 89.4593C62.2736 89.1808 62.5704 88.981 62.907 88.8923C63.057 88.8362 63.2099 88.7882 63.3651 88.7484C63.5269 88.7038 63.693 88.677 63.8606 88.6685C64.0417 88.6685 64.1749 88.6685 64.2548 88.6685C64.3347 88.6685 64.4839 88.6685 64.6917 88.6685H65.0699V88.0612C65.0712 87.9749 65.0516 87.8895 65.0126 87.8125C64.9736 87.7355 64.9165 87.6691 64.8462 87.619C64.6559 87.4976 64.4321 87.4398 64.2069 87.4539C63.9202 87.4503 63.6357 87.5047 63.3705 87.6137C63.1405 87.7034 62.9422 87.8591 62.8004 88.0612C62.7898 88.0827 62.7749 88.1018 62.7566 88.1173C62.7383 88.1329 62.717 88.1445 62.694 88.1515C62.671 88.1584 62.6469 88.1607 62.6231 88.158C62.5992 88.1553 62.5762 88.1477 62.5554 88.1358L62.2357 87.9973C62.21 87.9865 62.1868 87.9705 62.1675 87.9503C62.1483 87.9302 62.1334 87.9062 62.1238 87.8801C62.1024 87.8252 62.1024 87.7644 62.1238 87.7096C62.3318 87.3967 62.6209 87.1463 62.9602 86.985C63.3424 86.7955 63.7644 86.7005 64.1909 86.708C64.6192 86.6835 65.0412 86.8203 65.3736 87.0916C65.5135 87.2103 65.6246 87.3593 65.6985 87.5273C65.7723 87.6952 65.807 87.8778 65.7998 88.0612L65.7945 91.1192ZM65.0486 90.3094V89.18C64.5313 89.1594 64.0133 89.1951 63.5036 89.2865C63.2253 89.338 62.9711 89.4781 62.7791 89.6861C62.5874 89.8849 62.4805 90.1504 62.4808 90.4266C62.471 90.5355 62.4851 90.6453 62.5218 90.7483C62.5586 90.8513 62.6173 90.9451 62.6939 91.0233C62.8692 91.1523 63.0839 91.2164 63.3012 91.2044C63.6371 91.197 63.9668 91.1132 64.2655 90.9593C64.5752 90.8091 64.8439 90.5861 65.0486 90.3094Z" fill="black"/>
<path d="M71.7826 91.4601C71.8036 91.5131 71.8036 91.5722 71.7826 91.6252C71.7727 91.6515 71.7571 91.6752 71.7368 91.6946C71.7165 91.7139 71.6921 91.7285 71.6654 91.7371C71.3691 91.878 71.0451 91.9508 70.7171 91.9502C70.3956 91.931 70.0923 91.7945 69.8647 91.5666C69.6645 91.3368 69.558 91.0402 69.5664 90.7356V87.4645H69.1721C69.1184 87.4645 69.0669 87.4431 69.029 87.4052C68.991 87.3672 68.9697 87.3157 68.9697 87.262V86.9317C68.9692 86.905 68.9741 86.8785 68.9842 86.8538C68.9943 86.8291 69.0093 86.8066 69.0283 86.7879C69.0468 86.7686 69.0692 86.7535 69.094 86.7434C69.1188 86.7333 69.1454 86.7285 69.1721 86.7293H69.5664V85.4187C69.5659 85.392 69.5708 85.3655 69.5809 85.3408C69.591 85.3161 69.606 85.2936 69.625 85.2749C69.6435 85.2556 69.6659 85.2405 69.6907 85.2304C69.7155 85.2203 69.7421 85.2155 69.7688 85.2163H70.0991C70.1528 85.2163 70.2043 85.2376 70.2422 85.2756C70.2802 85.3135 70.3015 85.365 70.3015 85.4187V86.7293H71.5056C71.5592 86.7293 71.6107 86.7506 71.6487 86.7886C71.6867 86.8265 71.708 86.878 71.708 86.9317V87.262C71.7088 87.2888 71.704 87.3154 71.6939 87.3401C71.6838 87.3649 71.6687 87.3873 71.6494 87.4059C71.6306 87.4249 71.6082 87.4399 71.5835 87.4499C71.5588 87.46 71.5323 87.465 71.5056 87.4645H70.3015V90.7356C70.2946 90.8518 70.3328 90.9663 70.4081 91.0552C70.5097 91.1494 70.6425 91.2025 70.781 91.2044C70.9883 91.1983 71.1919 91.1474 71.3777 91.0552C71.4011 91.0446 71.4266 91.0391 71.4523 91.0391C71.478 91.0391 71.5034 91.0446 71.5269 91.0552C71.5516 91.0619 71.5743 91.0747 71.5929 91.0923C71.6115 91.11 71.6255 91.132 71.6334 91.1564C71.676 91.2363 71.7293 91.3376 71.7826 91.4601Z" fill="black"/>
<path d="M75.5864 84.9073C75.6397 84.9087 75.6904 84.9304 75.7281 84.9681C75.7657 85.0058 75.7875 85.0565 75.7888 85.1098V85.6425C75.7878 85.6679 75.7816 85.6928 75.7706 85.7157C75.7596 85.7386 75.7441 85.759 75.7249 85.7757C75.688 85.8123 75.6384 85.8333 75.5864 85.8343H75.2454C75.1918 85.8336 75.1405 85.8126 75.1016 85.7757C75.0662 85.7401 75.0454 85.6926 75.043 85.6425V85.1098C75.0425 85.0831 75.0475 85.0566 75.0575 85.0318C75.0676 85.0071 75.0826 84.9847 75.1016 84.9659C75.1202 84.9467 75.1426 84.9315 75.1673 84.9214C75.1921 84.9113 75.2187 84.9065 75.2454 84.9073H75.5864ZM75.5864 86.7932C75.6397 86.7946 75.6904 86.8164 75.7281 86.854C75.7657 86.8917 75.7875 86.9424 75.7888 86.9957V91.62C75.7886 91.647 75.7829 91.6738 75.7719 91.6985C75.7609 91.7233 75.7449 91.7455 75.7249 91.7638C75.688 91.8004 75.6384 91.8214 75.5864 91.8224H75.2454C75.1917 91.8224 75.1403 91.8011 75.1023 91.7631C75.0643 91.7251 75.043 91.6736 75.043 91.62V86.9957C75.0425 86.969 75.0475 86.9425 75.0575 86.9178C75.0676 86.893 75.0826 86.8706 75.1016 86.8519C75.1202 86.8326 75.1426 86.8174 75.1673 86.8073C75.1921 86.7972 75.2187 86.7924 75.2454 86.7932H75.5864Z" fill="black"/>
<path d="M83.4072 89.0734V89.489C83.407 89.516 83.4012 89.5428 83.3902 89.5675C83.3792 89.5923 83.3632 89.6145 83.3432 89.6328C83.3063 89.6694 83.2567 89.6904 83.2047 89.6914H79.9656C79.9582 90.1271 80.1229 90.5482 80.4238 90.8634C80.795 91.1187 81.2425 91.239 81.6917 91.2044C82.031 91.2047 82.3621 91.1005 82.64 90.9061C82.6553 90.8851 82.6754 90.8681 82.6985 90.8564C82.7217 90.8447 82.7473 90.8386 82.7732 90.8386C82.7991 90.8386 82.8247 90.8447 82.8479 90.8564C82.871 90.8681 82.891 90.8851 82.9064 90.9061C82.949 90.9487 83.0289 91.0339 83.1408 91.1618C83.1596 91.1825 83.1736 91.207 83.1819 91.2337C83.1901 91.2604 83.1925 91.2886 83.1887 91.3163C83.1886 91.345 83.1813 91.3733 83.1673 91.3985C83.1533 91.4236 83.1332 91.4448 83.1088 91.4601C82.6998 91.7659 82.2024 91.9305 81.6917 91.9289C81.0642 91.9667 80.444 91.7776 79.9443 91.3962C79.6734 91.1163 79.4672 90.7805 79.3402 90.4123C79.2131 90.0441 79.1684 89.6525 79.2091 89.2652C79.1387 88.5254 79.352 87.7866 79.8058 87.1981C80.0039 87.0092 80.2396 86.8641 80.4976 86.7723C80.7555 86.6806 81.0299 86.6441 81.3028 86.6654C81.5774 86.6443 81.8533 86.6807 82.1129 86.7725C82.3726 86.8642 82.6102 87.0092 82.8105 87.1981C83.2381 87.7259 83.4512 88.3955 83.4072 89.0734ZM79.9656 89.0734H82.672C82.7054 88.5997 82.5652 88.1301 82.2777 87.7522C82.1511 87.6313 81.9999 87.5392 81.8344 87.4822C81.6689 87.4251 81.493 87.4046 81.3188 87.4219C81.1431 87.4061 80.966 87.4274 80.799 87.4843C80.632 87.5412 80.4788 87.6324 80.3492 87.7522C80.0659 88.1318 79.9297 88.6011 79.9656 89.0734Z" fill="black"/>
<path d="M90.8071 91.524C90.8279 91.5536 90.8391 91.589 90.8391 91.6252C90.8391 91.6615 90.8279 91.6968 90.8071 91.7265C90.7914 91.7595 90.7664 91.7872 90.7352 91.8062C90.7039 91.8251 90.6678 91.8344 90.6312 91.833H90.2264C90.1921 91.8332 90.1583 91.8245 90.1284 91.8077C90.0985 91.7909 90.0735 91.7666 90.0559 91.7371L88.2658 88.9988L87.6265 89.6274V91.6306C87.6263 91.6577 87.6206 91.6844 87.6096 91.7091C87.5986 91.7339 87.5826 91.7561 87.5626 91.7744C87.5257 91.811 87.4761 91.832 87.4241 91.833H87.0778C87.0241 91.833 86.9726 91.8117 86.9347 91.7737C86.8967 91.7358 86.8754 91.6843 86.8754 91.6306V84.886C86.8749 84.8593 86.8798 84.8328 86.8899 84.808C86.9 84.7833 86.915 84.7609 86.934 84.7421C86.9511 84.72 86.9728 84.7018 86.9976 84.6889C87.0225 84.676 87.0498 84.6687 87.0778 84.6675H87.4188C87.4725 84.6675 87.524 84.6889 87.5619 84.7268C87.5999 84.7648 87.6212 84.8163 87.6212 84.87V88.5992C88.5908 87.6456 89.1768 87.0649 89.3899 86.8625C89.4082 86.8446 89.4298 86.8306 89.4537 86.8215C89.4775 86.8123 89.503 86.8081 89.5285 86.8092H90.0079C90.0486 86.8093 90.0883 86.8214 90.1222 86.8439C90.1561 86.8664 90.1826 86.8984 90.1984 86.9358C90.2143 86.9733 90.2189 87.0145 90.2115 87.0545C90.2042 87.0945 90.1853 87.1315 90.1571 87.1608L88.7933 88.482C89.7416 89.9471 90.4288 90.9593 90.8071 91.524Z" fill="black"/>
<path d="M97.7807 91.1192C97.7829 91.298 97.8007 91.4762 97.834 91.6519C97.8397 91.6742 97.8398 91.6976 97.8342 91.7199C97.8286 91.7422 97.8176 91.7628 97.802 91.7798C97.788 91.7972 97.7701 91.811 97.7497 91.8203C97.7294 91.8295 97.7072 91.8339 97.6848 91.8331H97.2693C97.2272 91.8346 97.1861 91.82 97.1544 91.7923C97.1227 91.7646 97.1028 91.7258 97.0988 91.6839C97.0565 91.4842 97.035 91.2807 97.0349 91.0765V91.0126C96.8382 91.2957 96.5774 91.5282 96.2737 91.6912C95.97 91.8541 95.632 91.9429 95.2875 91.9503C94.9007 91.9589 94.5233 91.8306 94.222 91.588C94.0606 91.4423 93.9338 91.2624 93.8509 91.0615C93.7679 90.8606 93.7309 90.6437 93.7425 90.4266C93.7334 90.0786 93.8421 89.7377 94.0509 89.4593C94.2598 89.1808 94.5566 88.981 94.8932 88.8923C95.0433 88.8362 95.1962 88.7882 95.3514 88.7484C95.5131 88.7038 95.6793 88.677 95.8468 88.6685C96.028 88.6685 96.1612 88.6685 96.2411 88.6685C96.321 88.6685 96.4702 88.6685 96.6779 88.6685H97.0562V88.0612C97.0575 87.9749 97.0378 87.8895 96.9989 87.8125C96.9599 87.7355 96.9028 87.6691 96.8324 87.619C96.6422 87.4976 96.4183 87.4398 96.1931 87.4539C95.9064 87.4503 95.6219 87.5047 95.3567 87.6137C95.1267 87.7034 94.9284 87.8591 94.7867 88.0612C94.776 88.0827 94.7611 88.1018 94.7428 88.1173C94.7245 88.1329 94.7032 88.1445 94.6803 88.1515C94.6573 88.1584 94.6332 88.1607 94.6093 88.158C94.5855 88.1553 94.5624 88.1477 94.5416 88.1358L94.222 87.9973C94.1962 87.9865 94.173 87.9705 94.1538 87.9503C94.1345 87.9302 94.1197 87.9062 94.1101 87.8801C94.0887 87.8252 94.0887 87.7644 94.1101 87.7096C94.3181 87.3967 94.6072 87.1463 94.9465 86.985C95.3286 86.7955 95.7507 86.7005 96.1771 86.708C96.6055 86.6835 97.0275 86.8203 97.3599 87.0916C97.4998 87.2103 97.6109 87.3593 97.6847 87.5273C97.7586 87.6952 97.7932 87.8778 97.7861 88.0612L97.7807 91.1192ZM97.0349 90.3094V89.18C96.5175 89.1594 95.9995 89.1951 95.4899 89.2865C95.2116 89.338 94.9574 89.4781 94.7654 89.6861C94.5737 89.8849 94.4667 90.1504 94.467 90.4266C94.4573 90.5355 94.4713 90.6453 94.5081 90.7483C94.5449 90.8513 94.6036 90.9451 94.6801 91.0233C94.8554 91.1523 95.0701 91.2164 95.2875 91.2044C95.6233 91.197 95.9531 91.1132 96.2517 90.9593C96.5614 90.8091 96.8302 90.5861 97.0349 90.3094Z" fill="black"/>
<path d="M103.811 86.6866C104.044 86.6869 104.272 86.7505 104.471 86.8707C104.67 86.9908 104.832 87.163 104.941 87.3686C105.234 87.9292 105.371 88.5588 105.335 89.1906V91.6306C105.336 91.6573 105.331 91.6839 105.321 91.7087C105.311 91.7334 105.296 91.7558 105.276 91.7744C105.258 91.7934 105.235 91.8084 105.211 91.8185C105.186 91.8285 105.159 91.8335 105.133 91.833H104.792C104.738 91.833 104.687 91.8117 104.649 91.7737C104.611 91.7357 104.589 91.6843 104.589 91.6306V88.791C104.596 88.681 104.596 88.5707 104.589 88.4607C104.582 88.3466 104.561 88.2338 104.525 88.1251C104.502 88.0336 104.462 87.947 104.408 87.8693C104.338 87.738 104.234 87.628 104.106 87.5511C103.978 87.4742 103.833 87.4332 103.684 87.4325C103.517 87.4237 103.35 87.4491 103.193 87.5071C103.042 87.5575 102.898 87.6292 102.767 87.7202C102.654 87.8007 102.553 87.8977 102.469 88.0079C102.34 88.1884 102.236 88.3855 102.16 88.5939V91.6306C102.16 91.6576 102.154 91.6844 102.143 91.7091C102.132 91.7339 102.116 91.7561 102.096 91.7744C102.059 91.811 102.009 91.832 101.957 91.833H101.617C101.563 91.833 101.511 91.8117 101.473 91.7737C101.435 91.7357 101.414 91.6843 101.414 91.6306V87.0063C101.414 86.9796 101.419 86.9531 101.429 86.9284C101.439 86.9036 101.454 86.8812 101.473 86.8625C101.491 86.8432 101.514 86.828 101.538 86.8179C101.563 86.8078 101.59 86.803 101.617 86.8039H101.957C102.011 86.8039 102.063 86.8252 102.101 86.8631C102.139 86.9011 102.16 86.9526 102.16 87.0063V87.6456C102.174 87.6152 102.192 87.5865 102.213 87.5604C102.386 87.2937 102.623 87.0742 102.902 86.9217C103.181 86.7692 103.493 86.6884 103.811 86.6866Z" fill="black"/>
<path d="M111.249 91.4601C111.27 91.5131 111.27 91.5722 111.249 91.6252C111.239 91.6515 111.223 91.6752 111.203 91.6946C111.182 91.7139 111.158 91.7285 111.131 91.7371C110.835 91.878 110.511 91.9508 110.183 91.9502C109.862 91.931 109.558 91.7945 109.331 91.5666C109.131 91.3368 109.024 91.0402 109.032 90.7356V87.4645H108.638C108.584 87.4645 108.533 87.4431 108.495 87.4052C108.457 87.3672 108.436 87.3157 108.436 87.262V86.9317C108.435 86.905 108.44 86.8785 108.45 86.8538C108.46 86.8291 108.475 86.8066 108.494 86.7879C108.513 86.7686 108.535 86.7535 108.56 86.7434C108.585 86.7333 108.611 86.7285 108.638 86.7293H109.032V85.4187C109.032 85.392 109.037 85.3655 109.047 85.3408C109.057 85.3161 109.072 85.2936 109.091 85.2749C109.11 85.2556 109.132 85.2405 109.157 85.2304C109.181 85.2203 109.208 85.2155 109.235 85.2163H109.565C109.619 85.2163 109.67 85.2376 109.708 85.2756C109.746 85.3135 109.768 85.365 109.768 85.4187V86.7293H110.972C111.025 86.7293 111.077 86.7506 111.115 86.7886C111.153 86.8265 111.174 86.878 111.174 86.9317V87.262C111.175 87.2888 111.17 87.3154 111.16 87.3401C111.15 87.3649 111.135 87.3873 111.115 87.4059C111.097 87.4249 111.074 87.4399 111.05 87.4499C111.025 87.46 110.998 87.465 110.972 87.4645H109.768V90.7356C109.761 90.8518 109.799 90.9663 109.874 91.0552C109.976 91.1494 110.109 91.2025 110.247 91.2044C110.454 91.1983 110.658 91.1474 110.844 91.0552C110.867 91.0446 110.893 91.0391 110.918 91.0391C110.944 91.0391 110.969 91.0446 110.993 91.0552C111.018 91.0619 111.04 91.0747 111.059 91.0923C111.078 91.11 111.091 91.132 111.099 91.1564C111.142 91.2363 111.195 91.3376 111.249 91.4601Z" fill="black"/>
<path d="M118.409 89.1906C118.413 89.2331 118.413 89.2759 118.409 89.3184C118.414 89.3609 118.414 89.4038 118.409 89.4463C118.417 89.8492 118.367 90.2512 118.26 90.6397C118.177 90.9485 118.011 91.2286 117.78 91.4494C117.379 91.7879 116.866 91.9662 116.342 91.9502C115.82 91.9697 115.309 91.7908 114.914 91.4494C114.674 91.1804 114.492 90.8657 114.377 90.5241C114.263 90.1826 114.219 89.8213 114.248 89.4623V89.2066C114.212 88.8475 114.249 88.4848 114.357 88.1405C114.465 87.7961 114.642 87.4773 114.877 87.2034C115.271 86.8597 115.782 86.6804 116.304 86.7026C116.83 86.6815 117.344 86.8604 117.743 87.2034C118.201 87.5764 118.409 88.2423 118.409 89.1906ZM117.663 89.4463V89.1906C117.669 88.8902 117.642 88.5901 117.583 88.2956C117.541 88.0755 117.431 87.8742 117.269 87.7202C116.996 87.5226 116.668 87.4163 116.331 87.4163C115.994 87.4163 115.666 87.5226 115.393 87.7202C115.239 87.879 115.134 88.0787 115.09 88.2956C115.031 88.5901 115.004 88.8902 115.01 89.1906V89.4623C115.004 89.7626 115.031 90.0627 115.09 90.3573C115.134 90.5742 115.239 90.7739 115.393 90.9327C115.67 91.12 115.997 91.2202 116.331 91.2202C116.665 91.2202 116.992 91.12 117.269 90.9327C117.431 90.7787 117.541 90.5774 117.583 90.3573C117.642 90.0627 117.669 89.7626 117.663 89.4623V89.4463Z" fill="black"/>
<path d="M125.867 89.1906C125.872 89.2331 125.872 89.2759 125.867 89.3184C125.872 89.3609 125.872 89.4038 125.867 89.4463C125.875 89.8492 125.825 90.2512 125.718 90.6397C125.636 90.9485 125.47 91.2286 125.239 91.4494C124.837 91.7879 124.325 91.9662 123.8 91.9502C123.278 91.9697 122.768 91.7908 122.372 91.4494C122.133 91.1804 121.95 90.8657 121.836 90.5241C121.721 90.1826 121.677 89.8213 121.706 89.4623V89.2066C121.67 88.8475 121.707 88.4848 121.815 88.1405C121.923 87.7961 122.1 87.4773 122.335 87.2034C122.729 86.8597 123.24 86.6804 123.763 86.7026C124.288 86.6815 124.803 86.8604 125.201 87.2034C125.659 87.5764 125.867 88.2423 125.867 89.1906ZM125.121 89.4463V89.1906C125.127 88.8902 125.1 88.5901 125.041 88.2956C125 88.0755 124.89 87.8742 124.727 87.7202C124.454 87.5226 124.126 87.4163 123.79 87.4163C123.453 87.4163 123.125 87.5226 122.852 87.7202C122.698 87.879 122.592 88.0787 122.548 88.2956C122.489 88.5901 122.462 88.8902 122.468 89.1906V89.4623C122.462 89.7626 122.489 90.0627 122.548 90.3573C122.592 90.5742 122.698 90.7739 122.852 90.9327C123.129 91.12 123.455 91.2202 123.79 91.2202C124.124 91.2202 124.45 91.12 124.727 90.9327C124.89 90.7787 125 90.5774 125.041 90.3573C125.1 90.0627 125.127 89.7626 125.121 89.4623V89.4463Z" fill="black"/>
<path d="M131.877 86.6973C131.901 86.6991 131.925 86.7056 131.947 86.7166C131.969 86.7275 131.988 86.7427 132.005 86.7613C132.023 86.7791 132.037 86.8007 132.046 86.8246C132.056 86.8486 132.06 86.8742 132.058 86.8998V87.262C132.059 87.294 132.052 87.3257 132.038 87.3545C132.024 87.3833 132.004 87.4082 131.978 87.4272C131.953 87.4449 131.924 87.4574 131.894 87.4638C131.864 87.4702 131.832 87.4704 131.802 87.4645C131.737 87.4426 131.668 87.4318 131.6 87.4325C131.357 87.4287 131.121 87.5118 130.934 87.6669C130.732 87.8184 130.552 87.9978 130.401 88.1997C130.268 88.3777 130.164 88.5755 130.092 88.7857V91.6199C130.092 91.647 130.086 91.6738 130.075 91.6985C130.064 91.7233 130.048 91.7455 130.028 91.7638C129.991 91.8004 129.941 91.8214 129.889 91.8224H129.549C129.495 91.8224 129.443 91.801 129.405 91.7631C129.367 91.7251 129.346 91.6736 129.346 91.6199V86.9957C129.346 86.969 129.351 86.9425 129.361 86.9177C129.371 86.893 129.386 86.8706 129.405 86.8518C129.423 86.8326 129.446 86.8174 129.47 86.8073C129.495 86.7972 129.522 86.7924 129.549 86.7932H129.889C129.943 86.7932 129.995 86.8146 130.033 86.8525C130.071 86.8905 130.092 86.942 130.092 86.9957V87.635C130.106 87.6045 130.124 87.5758 130.145 87.5497C130.318 87.283 130.555 87.0636 130.834 86.911C131.113 86.7585 131.426 86.6778 131.743 86.676C131.789 86.6762 131.834 86.6834 131.877 86.6973Z" fill="black"/>
<path d="M66.0182 37.5086H55.9759C54.3076 37.5086 52.9552 38.861 52.9552 40.5293V46.6399C52.9552 48.3082 54.3076 49.6606 55.9759 49.6606H66.0182C67.6865 49.6606 69.0389 48.3082 69.0389 46.6399V40.5293C69.0389 38.861 67.6865 37.5086 66.0182 37.5086Z" stroke="black" stroke-width="4" stroke-miterlimit="10"/>
<path d="M82.1872 44.4344L97.7914 60.0705C100.759 63.0433 104.952 61.9032 107.205 58.8559L139.548 15.1705L144.125 9.01721C146.053 6.4174 144.551 2.32589 141.994 0.818207C138.946 -0.966501 135.728 0.360043 133.795 2.9492L101.451 46.6346L96.875 52.8145L106.257 51.5945L90.6632 35.9583C85.2078 30.4923 76.7318 38.963 82.1872 44.4344Z" fill="white"/>
<path d="M83.6043 43.0226L99.2032 58.6588C101.18 60.6406 103.998 59.8788 105.479 57.849L137.822 14.1636L142.398 7.98369C143.693 6.23628 142.67 3.54057 140.965 2.51769C138.946 1.30835 136.773 2.22468 135.499 3.95078L103.156 47.6362L98.5798 53.8161L104.856 53.0063L89.2514 37.3701C85.6127 33.7261 79.9656 39.3733 83.6043 43.0226Z" fill="black"/>
</svg>
