<svg viewBox="0 0 326 265" fill="none" xmlns="http://www.w3.org/2000/svg">
<g clip-path="url(#clip0)">
<path d="M95.3466 249.725C96.5881 250.905 98.1124 251.744 99.7726 252.164C101.433 252.583 103.173 252.567 104.826 252.119C109.061 250.917 111.935 247.095 114.487 243.507L122.036 232.896L115.674 234.062C111.098 234.901 106.41 235.782 102.425 238.182C98.441 240.583 95.2497 244.868 95.502 249.513" fill="#E6E6E6"/>
<path d="M89.433 264.02C90.5487 260.215 91.6709 256.359 93.6408 252.892C95.3904 249.813 97.7809 247.111 100.935 245.431C102.607 244.542 104.423 243.952 106.298 243.687C106.787 243.618 106.867 244.379 106.38 244.448C103.133 244.912 100.116 246.395 97.7662 248.684C95.161 251.233 93.4521 254.519 92.1887 257.902C91.4237 259.947 90.8065 262.042 90.1922 264.137C90.174 264.236 90.1186 264.324 90.0373 264.384C89.9561 264.443 89.8552 264.469 89.7552 264.457C89.655 264.441 89.5652 264.386 89.5052 264.304C89.4452 264.223 89.4199 264.12 89.4349 264.02L89.433 264.02Z" fill="#F2F2F2"/>
<path d="M212.285 110.802C213.011 110.627 213.765 110.614 214.496 110.762C215.227 110.91 215.917 111.217 216.516 111.661C217.116 112.105 217.61 112.675 217.966 113.33C218.321 113.986 218.529 114.712 218.574 115.456L236.027 120.363L228.906 126.531L213.423 120.926C212.167 120.918 210.958 120.45 210.024 119.61C209.091 118.77 208.498 117.617 208.358 116.369C208.217 115.121 208.54 113.865 209.264 112.839C209.988 111.813 211.063 111.088 212.285 110.802L212.285 110.802Z" fill="#FFB7B7"/>
<path d="M257.137 259.419L252.049 259.418L249.629 239.795L257.138 239.795L257.137 259.419Z" fill="#FFB7B7"/>
<path d="M258.434 264.35L242.03 264.35V264.142C242.03 262.449 242.703 260.825 243.9 259.627C245.097 258.43 246.721 257.757 248.415 257.757H248.415L258.434 257.758L258.434 264.35Z" fill="#2F2E41"/>
<path d="M286.948 259.419L281.861 259.418L279.44 239.795L286.949 239.795L286.948 259.419Z" fill="#FFB7B7"/>
<path d="M288.245 264.35L271.841 264.35V264.142C271.841 262.449 272.514 260.825 273.711 259.627C274.909 258.43 276.533 257.757 278.226 257.757H278.227L288.246 257.757L288.245 264.35Z" fill="#2F2E41"/>
<path d="M252.98 146.79L245.486 198.699L247.353 253.39L258.606 254.287L262.125 205.239L271.083 177.89L276.35 216.875L276.566 253.39L288.187 254.287L292.24 177.519L289.259 144.133L252.98 146.79Z" fill="#2F2E41"/>
<path d="M274.655 77.29C281.203 77.29 286.511 71.9821 286.511 65.4344C286.511 58.8868 281.203 53.5789 274.655 53.5789C268.108 53.5789 262.8 58.8868 262.8 65.4344C262.8 71.9821 268.108 77.29 274.655 77.29Z" fill="#FFB7B7"/>
<path d="M267.348 83.7384L254.26 149.675C254.26 149.675 276.295 156 285.949 150.161C295.602 144.323 291.277 126.299 291.277 126.299L289.509 95.6295L286.242 87.8738L283.469 81.4717L267.348 83.7384Z" fill="#CBCBCB"/>
<path d="M263.517 130.542L268.038 82.4583L264.422 85.0981L251.78 89.2039L250.915 123.057L242.071 167.574C242.071 167.574 248.392 179.908 256.226 159.502L263.517 130.542Z" fill="#2F2E41"/>
<path d="M257.864 94.267L251.78 89.2039L238.106 118.909L222.846 115.567L222.125 124.579L244.234 133.328L259.3 112.354L257.864 94.267Z" fill="#2F2E41"/>
<path d="M281.534 120.017L283.238 80.8838L289.509 85.7399L300.708 88.8615L299.066 120.017L301.429 168.361L289.687 172.08L286.392 141.575L281.534 120.017Z" fill="#2F2E41"/>
<path d="M282.287 151.519C282.419 150.785 282.709 150.089 283.139 149.479C283.569 148.869 284.127 148.361 284.774 147.991C285.421 147.62 286.142 147.396 286.885 147.334C287.628 147.272 288.376 147.373 289.076 147.632L300.583 133.621L303.369 142.621L292.015 154.546C291.503 155.693 290.589 156.612 289.444 157.129C288.3 157.647 287.006 157.727 285.807 157.353C284.608 156.98 283.587 156.18 282.939 155.105C282.29 154.03 282.058 152.754 282.287 151.519V151.519Z" fill="#FFB7B7"/>
<path d="M293.21 93.2053L300.708 88.8613L319.574 126.119L301.18 151.661L290.689 143.272L303.428 126.659L291.817 108.815L293.21 93.2053Z" fill="#2F2E41"/>
<path d="M285.806 55.9565L286.38 54.7997L283.488 53.3628C283.488 53.3628 280.298 48.1718 274.525 49.6306C268.752 51.0894 266.155 51.9624 266.155 51.9624L263.27 53.4139L264.718 54.8544L262.12 55.7275L263.856 56.5896L261.837 57.7501L262.924 63.6989C262.924 63.6989 264.729 59.187 268.199 60.9112C271.669 62.6354 278.017 60.0199 278.017 60.0199L283.532 70.6929C283.532 70.6929 284.67 66.9515 286.698 67.9491C286.698 67.9491 291.881 59.696 285.806 55.9565Z" fill="#2F2E41"/>
<path d="M213.791 73.3499H213.716L170.238 91.9151L110.751 117.316C110.519 117.414 110.269 117.465 110.017 117.466C109.765 117.468 109.515 117.419 109.282 117.324L47.9091 91.862L3.36317 73.3801L3.29513 73.3499H3.21929C2.51643 73.3506 1.84258 73.6302 1.34558 74.1272C0.848577 74.6242 0.56902 75.2981 0.568237 76.0009V191.134C0.569021 191.837 0.848577 192.511 1.34558 193.008C1.84258 193.505 2.51643 193.784 3.21929 193.785H213.791C214.494 193.784 215.168 193.505 215.665 193.008C216.162 192.511 216.442 191.837 216.443 191.134V76.0009C216.442 75.2981 216.162 74.6242 215.665 74.1272C215.168 73.6302 214.494 73.3506 213.791 73.3499Z" fill="white"/>
<path d="M213.98 74.1073C213.903 74.1074 213.828 74.0837 213.764 74.0395L109.024 1.0953C108.705 0.874341 108.326 0.756259 107.939 0.75692C107.551 0.757581 107.172 0.876951 106.854 1.09899L2.86862 74.0387C2.78637 74.0962 2.68464 74.1188 2.58578 74.1014C2.48693 74.0839 2.39903 74.028 2.34139 73.9458C2.28375 73.8636 2.26108 73.7619 2.27837 73.6631C2.29565 73.5642 2.35148 73.4762 2.43358 73.4185L106.42 0.478777C106.865 0.167975 107.394 0.000895908 107.937 3.59291e-06C108.48 -0.000888723 109.011 0.164447 109.457 0.473784L214.197 73.4177C214.263 73.4639 214.313 73.5299 214.339 73.6062C214.365 73.6825 214.366 73.7652 214.342 73.8421C214.318 73.919 214.27 73.9862 214.205 74.0339C214.14 74.0816 214.061 74.1073 213.98 74.1073L213.98 74.1073Z" fill="#3F3D56"/>
<path d="M8.81055 76.6931L108.041 3.15063L208.026 81.9259L113.154 138.167L61.6473 126.426L8.81055 76.6931Z" fill="#E6E6E6"/>
<path d="M65.9953 172.904H16.9727C16.6717 172.905 16.3734 172.847 16.095 172.732C15.8166 172.618 15.5635 172.449 15.3502 172.237C15.1369 172.025 14.9675 171.772 14.8518 171.494C14.7361 171.216 14.6763 170.918 14.6759 170.617C14.6755 170.316 14.7344 170.018 14.8493 169.74C14.9641 169.462 15.1327 169.209 15.3454 168.996C15.5581 168.783 15.8107 168.614 16.0888 168.498C16.3669 168.383 16.6649 168.324 16.966 168.324H65.9953C66.2963 168.323 66.5945 168.381 66.8729 168.496C67.1513 168.61 67.4044 168.779 67.6177 168.991C67.8311 169.203 68.0004 169.456 68.1161 169.734C68.2318 170.012 68.2916 170.31 68.2921 170.611C68.2925 170.912 68.2336 171.21 68.1187 171.488C68.0038 171.766 67.8352 172.019 67.6225 172.232C67.4098 172.445 67.1572 172.614 66.8792 172.73C66.6011 172.845 66.3031 172.904 66.002 172.904H65.9953Z" fill="#DBF6F0"/>
<path d="M34.5609 163.058H16.9727C16.6717 163.058 16.3734 163 16.095 162.885C15.8166 162.771 15.5635 162.603 15.3502 162.39C15.1369 162.178 14.9676 161.926 14.8518 161.648C14.7361 161.37 14.6763 161.072 14.6759 160.771C14.6755 160.47 14.7344 160.172 14.8493 159.893C14.9641 159.615 15.1327 159.362 15.3454 159.149C15.5581 158.936 15.8107 158.767 16.0888 158.652C16.3669 158.536 16.6649 158.477 16.966 158.477H34.5609C35.1678 158.477 35.7499 158.718 36.1794 159.147C36.6089 159.575 36.8506 160.157 36.8515 160.764C36.8524 161.371 36.6124 161.953 36.1842 162.383C35.756 162.813 35.1746 163.056 34.5677 163.058H34.5609Z" fill="#DBF6F0"/>
<path d="M109.437 117.655C109.064 117.656 108.695 117.583 108.35 117.442L47.1516 92.0491V12.5642C47.1524 11.8613 47.432 11.1875 47.929 10.6905C48.426 10.1935 49.0998 9.91392 49.8027 9.91309H167.208C167.911 9.91391 168.585 10.1935 169.082 10.6905C169.579 11.1875 169.858 11.8613 169.859 12.5642V92.1046L169.744 92.1538L110.557 117.43C110.202 117.579 109.821 117.655 109.437 117.655Z" fill="#DBF6F0"/>
<path d="M213.223 73.3499H213.148L169.67 91.915L110.183 117.316C109.951 117.414 109.701 117.465 109.449 117.466C109.197 117.468 108.947 117.419 108.714 117.324L47.3409 91.862L2.79497 73.3801L2.72693 73.3499H2.65106C1.94819 73.3506 1.27434 73.6302 0.777339 74.1272C0.280339 74.6242 0.000781682 75.2981 0 76.0009V191.134C0.000781684 191.837 0.280339 192.511 0.777339 193.008C1.27434 193.505 1.94819 193.784 2.65106 193.785H213.223C213.926 193.784 214.6 193.505 215.097 193.008C215.594 192.511 215.874 191.837 215.874 191.134V76.0009C215.874 75.2981 215.594 74.6242 215.097 74.1272C214.6 73.6302 213.926 73.3506 213.223 73.3499ZM215.117 191.134C215.117 191.636 214.917 192.118 214.562 192.473C214.207 192.828 213.725 193.027 213.223 193.028H2.65106C2.14889 193.027 1.66736 192.828 1.31227 192.473C0.957186 192.118 0.757609 191.636 0.75741 191.134V76.0009C0.758096 75.5112 0.948045 75.0408 1.28754 74.6879C1.62705 74.335 2.08982 74.127 2.57912 74.1073L47.3409 92.6801L108.422 118.024C109.083 118.294 109.824 118.289 110.482 118.013L169.67 92.7369L213.299 74.1073C213.788 74.1284 214.249 74.337 214.588 74.6897C214.926 75.0424 215.116 75.512 215.117 76.001L215.117 191.134Z" fill="#3F3D56"/>
<path d="M99.9094 39.6248H58.2494C57.4467 39.6234 56.6775 39.3036 56.1104 38.7355C55.5434 38.1675 55.2249 37.3976 55.2249 36.595C55.2249 35.7924 55.5434 35.0225 56.1104 34.4545C56.6775 33.8864 57.4467 33.5666 58.2494 33.5652H99.9094C100.712 33.5666 101.481 33.8864 102.048 34.4545C102.615 35.0225 102.934 35.7924 102.934 36.595C102.934 37.3976 102.615 38.1675 102.048 38.7355C101.481 39.3036 100.712 39.6234 99.9094 39.6248Z" fill="white"/>
<path d="M78.3219 26.7481H58.2494C57.4459 26.7481 56.6752 26.4289 56.107 25.8607C55.5388 25.2925 55.2196 24.5219 55.2196 23.7183C55.2196 22.9147 55.5388 22.1441 56.107 21.5759C56.6752 21.0077 57.4459 20.6885 58.2494 20.6885H78.3219C79.1255 20.6885 79.8961 21.0077 80.4643 21.5759C81.0325 22.1441 81.3518 22.9147 81.3518 23.7183C81.3518 24.5219 81.0325 25.2925 80.4643 25.8607C79.8961 26.4289 79.1255 26.7481 78.3219 26.7481Z" fill="white"/>
<path d="M139.664 69.9229H76.0376C75.2341 69.9229 74.4634 69.6037 73.8952 69.0355C73.327 68.4673 73.0078 67.6966 73.0078 66.8931C73.0078 66.0895 73.327 65.3189 73.8952 64.7507C74.4634 64.1825 75.2341 63.8633 76.0376 63.8633H139.664C140.467 63.8633 141.238 64.1825 141.806 64.7507C142.374 65.3189 142.694 66.0895 142.694 66.8931C142.694 67.6966 142.374 68.4673 141.806 69.0355C141.238 69.6037 140.467 69.9229 139.664 69.9229Z" fill="white"/>
<path d="M139.664 83.9359H76.0377C75.6393 83.9366 75.2448 83.8587 74.8766 83.7067C74.5084 83.5548 74.1738 83.3317 73.8919 83.0503C73.61 82.7689 73.3863 82.4347 73.2337 82.0667C73.0811 81.6988 73.0026 81.3044 73.0026 80.906C73.0026 80.5077 73.0811 80.1133 73.2337 79.7454C73.3863 79.3774 73.61 79.0432 73.8919 78.7618C74.1738 78.4804 74.5084 78.2573 74.8766 78.1053C75.2448 77.9534 75.6393 77.8755 76.0377 77.8762H139.664C140.062 77.8755 140.457 77.9534 140.825 78.1053C141.193 78.2573 141.528 78.4804 141.81 78.7618C142.092 79.0432 142.315 79.3774 142.468 79.7454C142.62 80.1133 142.699 80.5077 142.699 80.906C142.699 81.3044 142.62 81.6988 142.468 82.0667C142.315 82.4347 142.092 82.7689 141.81 83.0503C141.528 83.3317 141.193 83.5548 140.825 83.7067C140.457 83.8587 140.062 83.9366 139.664 83.9359Z" fill="white"/>
<path d="M324.828 264.829H203.274C203.152 264.829 203.034 264.78 202.948 264.693C202.861 264.607 202.812 264.489 202.812 264.366C202.812 264.244 202.861 264.126 202.948 264.04C203.034 263.953 203.152 263.904 203.274 263.904H324.828C324.95 263.904 325.068 263.953 325.154 264.04C325.241 264.126 325.29 264.244 325.29 264.366C325.29 264.489 325.241 264.607 325.154 264.693C325.068 264.78 324.95 264.829 324.828 264.829Z" fill="#CBCBCB"/>
<path d="M112.687 264.829H67.8559C67.7333 264.829 67.6157 264.78 67.5291 264.693C67.4424 264.607 67.3937 264.489 67.3937 264.366C67.3937 264.244 67.4424 264.126 67.5291 264.04C67.6157 263.953 67.7333 263.904 67.8559 263.904H112.687C112.81 263.904 112.927 263.953 113.014 264.04C113.101 264.126 113.149 264.244 113.149 264.366C113.149 264.489 113.101 264.607 113.014 264.693C112.927 264.78 112.81 264.829 112.687 264.829Z" fill="#CBCBCB"/>
<path d="M84.3403 250.539C86.0522 250.5 87.7251 250.02 89.1979 249.147C90.6706 248.273 91.8936 247.035 92.749 245.552C94.9043 241.713 94.2478 236.976 93.5263 232.633L91.3961 219.786L87.7079 225.099C85.0552 228.92 82.3521 232.851 81.2198 237.363C80.0874 241.875 80.8466 247.164 84.3006 250.279" fill="#E6E6E6"/>
<path d="M90.2274 264.844C88.3357 261.36 86.4121 257.835 85.3638 253.987C84.433 250.57 84.2229 246.969 85.2745 243.554C85.8336 241.744 86.7042 240.045 87.8471 238.535C88.1453 238.141 88.7386 238.624 88.4422 239.017C86.4667 241.636 85.374 244.814 85.3216 248.095C85.2719 251.739 86.3777 255.274 87.8669 258.563C88.7666 260.553 89.8064 262.473 90.8481 264.392C90.905 264.475 90.9281 264.577 90.9125 264.676C90.8969 264.776 90.8438 264.866 90.7642 264.927C90.6819 264.987 90.5795 265.011 90.4793 264.995C90.379 264.98 90.289 264.925 90.2289 264.843L90.2274 264.844Z" fill="#F2F2F2"/>
</g>
<defs>
<clipPath id="clip0">
<rect width="325.29" height="265" fill="white"/>
</clipPath>
</defs>
</svg>
