<svg viewBox="0 0 410 265" fill="none" xmlns="http://www.w3.org/2000/svg">
<g clip-path="url(#clip0)">
<path d="M410 262.005H0V265H410V262.005Z" fill="#85848B"/>
<path d="M324.827 209.117C324.827 211.421 311.393 218.138 295.435 218.138C279.478 218.138 267.044 211.421 267.044 209.117C267.044 206.813 279.978 207.555 295.951 207.555C311.924 207.555 324.827 206.809 324.827 209.117Z" fill="#504F60"/>
<path opacity="0.2" d="M324.827 209.117C324.827 211.421 311.393 218.138 295.435 218.138C279.478 218.138 267.044 211.421 267.044 209.117" fill="black"/>
<path d="M164.124 166.84C166.714 167.172 169.402 167.383 171.882 166.578C172.273 166.457 172.703 166.188 172.664 165.797C172.636 165.655 172.575 165.522 172.488 165.407C171.553 164.005 170.767 162.509 170.144 160.943C170.119 160.862 170.068 160.79 169.999 160.74C169.919 160.711 169.83 160.711 169.749 160.74C168.605 161.041 167.617 161.779 166.48 162.095C165.9 162.254 165.295 162.299 164.699 162.228C164.183 162.169 163.48 161.744 163.011 161.798C163.277 163.505 163.925 165.098 164.124 166.84Z" fill="#DBF6F0"/>
<path d="M213.106 162.517C214.813 161.345 216.582 160.115 217.59 158.307C217.662 158.199 217.704 158.074 217.711 157.944C217.694 157.816 217.644 157.695 217.567 157.593C216.607 156.067 215.371 154.733 213.922 153.66C213.166 154.194 212.483 154.824 211.891 155.535C211.461 155.988 210.274 156.706 210.262 157.397C210.262 157.788 210.715 158.241 210.926 158.569C211.211 158.991 211.481 159.42 211.738 159.858C211.887 160.072 213.242 162.431 213.106 162.517Z" fill="#DBF6F0"/>
<path d="M174.277 172.069C174.307 172.471 174.197 172.872 173.964 173.202C173.782 173.385 173.556 173.519 173.308 173.592C169.687 174.889 165.495 173.272 161.882 174.549C161.14 174.81 160.437 175.189 159.691 175.439C158.801 175.707 157.883 175.869 156.956 175.923C155.679 176.044 154.394 176.123 153.112 176.158C152.139 176.227 151.161 176.141 150.214 175.904C149.74 175.783 149.298 175.563 148.915 175.26C148.532 174.956 148.217 174.576 147.991 174.143C147.795 173.754 147.756 173.305 147.882 172.889C147.938 172.746 148.019 172.614 148.12 172.499C148.365 172.224 148.652 171.991 148.972 171.807L150.304 170.948C150.928 170.507 151.607 170.147 152.323 169.878C152.851 169.706 153.409 169.632 153.944 169.488C155.816 168.941 157.245 167.457 158.573 166.032L160.386 164.099C160.555 163.886 160.77 163.714 161.015 163.595C161.266 163.511 161.533 163.486 161.796 163.521C163.557 163.646 165.257 164.216 166.738 165.176C167.116 165.46 167.525 165.701 167.956 165.895C169.019 166.309 170.382 165.996 171.363 165.473C171.828 165.223 171.726 165.083 171.921 164.637C172.117 164.192 172.593 163.907 173.007 164.313C173.132 164.454 173.221 164.623 173.265 164.805C173.656 166.094 173.507 167.48 173.507 168.832C173.496 169.043 173.522 169.255 173.585 169.456C173.685 169.66 173.804 169.854 173.941 170.034C173.969 170.082 173.993 170.132 174.015 170.183C174.254 170.781 174.344 171.428 174.277 172.069Z" fill="#514E7F"/>
<path d="M174.277 172.069C174.307 172.471 174.197 172.872 173.964 173.201C173.782 173.385 173.556 173.519 173.308 173.592C169.687 174.888 165.495 173.272 161.882 174.549C161.14 174.81 160.437 175.189 159.691 175.439C158.801 175.706 157.883 175.869 156.956 175.923C155.679 176.044 154.394 176.123 153.112 176.158C152.139 176.227 151.161 176.141 150.214 175.904C149.74 175.783 149.298 175.563 148.915 175.26C148.532 174.956 148.217 174.576 147.991 174.143C147.795 173.754 147.756 173.305 147.882 172.889C147.938 172.746 148.019 172.614 148.12 172.499C148.331 172.94 148.483 173.526 148.616 173.736C148.796 174.049 149.04 174.32 149.332 174.53C149.624 174.741 149.958 174.887 150.312 174.959C150.84 174.991 151.37 174.924 151.874 174.76C155.155 173.947 158.644 173.936 161.796 172.705C162.878 172.28 163.909 171.714 165.046 171.456C166.183 171.198 167.39 171.268 168.562 171.171C170.413 171.022 172.206 170.464 174.031 170.171C174.266 170.774 174.351 171.426 174.277 172.069Z" fill="#464353"/>
<path d="M221.399 162.279C221.227 163.653 220.356 164.837 219.399 165.84C218.442 166.844 217.36 167.746 216.598 168.902C215.66 170.335 215.238 172.112 214.02 173.323C213.552 173.763 213.026 174.137 212.457 174.436C211.82 174.812 211.146 175.122 210.445 175.361C208.625 175.943 206.664 175.81 204.762 175.67C204.144 175.664 203.533 175.546 202.957 175.322C202.695 175.189 202.444 175.035 202.207 174.861C201.73 174.568 201.329 174.166 201.035 173.69C200.891 173.43 200.85 173.126 200.922 172.838C201.03 172.521 201.217 172.237 201.465 172.01C201.893 171.565 202.352 171.152 202.84 170.773C203.509 170.341 204.111 169.815 204.629 169.21C204.946 168.733 205.18 168.205 205.32 167.648C205.597 166.674 205.766 165.672 205.824 164.661C205.822 163.989 205.891 163.319 206.031 162.662C206.32 161.631 207.086 160.709 207 159.643C206.965 159.49 206.979 159.33 207.039 159.186C207.13 159.073 207.257 158.994 207.398 158.963C207.995 158.725 208.625 158.579 209.266 158.53C209.587 158.508 209.909 158.557 210.209 158.675C210.509 158.792 210.779 158.975 211 159.209C211.266 159.53 211.442 159.99 211.832 160.115C212.026 160.168 212.229 160.176 212.426 160.139C213.387 160.041 214.403 159.92 215.16 159.299C215.511 158.985 215.792 158.602 215.987 158.174C216.182 157.746 216.286 157.282 216.293 156.812C216.293 156.456 216.133 156.085 216.684 156.031C217.098 155.976 217.426 156.421 217.637 156.694C218.399 157.714 219.18 158.78 219.465 160.022C219.576 159.979 219.694 159.956 219.813 159.955C220.056 159.953 220.297 160.01 220.514 160.121C220.731 160.232 220.918 160.393 221.059 160.592C221.37 161.096 221.491 161.694 221.399 162.279Z" fill="#514E7F"/>
<path d="M221.399 162.279C221.227 163.653 220.356 164.837 219.399 165.84C218.442 166.844 217.36 167.746 216.598 168.902C215.66 170.335 215.238 172.112 214.02 173.323C213.552 173.763 213.026 174.137 212.457 174.436C211.82 174.811 211.146 175.122 210.445 175.361C208.625 175.943 206.664 175.81 204.762 175.67C204.144 175.664 203.533 175.546 202.957 175.322C202.695 175.189 202.444 175.035 202.207 174.861C201.73 174.568 201.329 174.166 201.035 173.69C201.401 173.514 201.801 173.418 202.207 173.408C203.051 173.455 203.668 174.252 204.477 174.498C205.629 174.846 206.777 174.033 207.945 173.756C208.707 173.576 209.508 173.623 210.262 173.366C210.89 173.123 211.471 172.771 211.977 172.327C212.67 171.831 213.288 171.236 213.809 170.562C214.242 169.887 214.602 169.168 214.883 168.418C215.5 166.979 216.226 165.59 217.055 164.263C217.177 164.052 217.326 163.858 217.496 163.685C217.68 163.517 217.887 163.4 218.094 163.251C218.875 162.662 219.199 161.689 219.473 160.736C219.547 160.447 219.65 160.165 219.781 159.897C220.025 159.895 220.266 159.951 220.483 160.062C220.7 160.173 220.887 160.335 221.028 160.533C221.364 161.049 221.496 161.671 221.399 162.279Z" fill="#464353"/>
<path d="M139.487 40.5238C140.459 41.2522 141.26 42.1854 141.831 43.2574C142.378 44.3274 145.53 52.6298 145.347 53.8365C146.374 52.8016 150.425 52.6337 151.464 51.5988C151.897 51.1653 154.237 49.0019 154.589 48.4981C154.94 47.9944 157.55 46.9361 157.835 46.405C158.901 44.4953 150.272 37.2591 151.378 35.3729C151.439 35.2862 151.471 35.1821 151.468 35.0761C151.443 34.9871 151.392 34.9071 151.323 34.8457C150.616 34.1232 149.679 33.6741 148.827 33.1391C147.975 32.6041 147.155 31.8582 146.925 30.8741C146.113 31.2479 145.367 31.7518 144.718 32.3659C143.134 33.7223 141.578 35.106 140.05 36.5171C139.452 37.0716 138.296 37.8097 138.018 38.6025C137.69 39.4538 138.917 40.0591 139.487 40.5238Z" fill="#A1616A"/>
<path d="M153.456 37.4504C152.132 38.3398 150.895 39.3518 149.761 40.473C148.69 41.5313 147.675 42.7575 147.417 44.2376C147.308 44.8195 147.323 45.4091 147.233 45.9988C146.843 48.5567 144.632 50.4312 143.655 52.825C143.372 53.5639 143.164 54.3292 143.034 55.1096C142.76 56.5888 142.609 58.0884 142.585 59.5927C142.561 61.0493 143.991 62.0529 144.514 63.4119C145.038 64.7709 145.179 66.169 145.444 67.5631C145.944 70.1952 146.862 72.7335 147.788 75.2563C149.714 80.5751 155.956 95.278 157.882 100.601C163.784 99.1207 179.496 95.7193 184.722 92.5991C186.465 91.5603 172.632 79.8409 174.496 79.0325C174.602 79.016 174.703 78.9749 174.791 78.9125C174.879 78.8501 174.951 78.7681 175.002 78.6731C175.053 78.578 175.081 78.4724 175.084 78.3647C175.087 78.257 175.064 78.15 175.019 78.0523C173.156 69.9062 167.327 63.2128 164.683 55.2814C163.765 52.5282 162.116 50.1773 160.866 47.5609C159.734 45.1905 159.128 42.5701 157.773 40.3168C157.517 39.8526 157.183 39.4363 156.784 39.0867C156.446 38.8276 156.081 38.6062 155.694 38.4267C154.921 38.0518 154.202 37.8292 153.456 37.4504Z" fill="#514E7F"/>
<path d="M139.799 39.5982C144.902 39.5982 149.038 35.4633 149.038 30.3625C149.038 25.2618 144.902 21.1268 139.799 21.1268C134.697 21.1268 130.561 25.2618 130.561 30.3625C130.561 35.4633 134.697 39.5982 139.799 39.5982Z" fill="#A1616A"/>
<path d="M149.198 34.7012C149.659 34.2766 150.237 34.0016 150.857 33.9123C151.477 33.8231 152.109 33.9239 152.671 34.2013C153.296 34.5254 153.843 35.1815 153.702 35.8688L158.284 35.9391C159.014 35.9191 159.743 35.986 160.456 36.1383C161.174 36.2946 161.815 36.6965 162.269 37.2747C162.323 37.3489 162.386 37.4387 162.48 37.4504C162.556 37.4516 162.63 37.4268 162.691 37.3801C163.395 37.0267 164.19 36.8908 164.972 36.9896C167.448 37.1497 169.738 38.3876 171.679 39.9341C172.029 40.1747 172.301 40.5128 172.46 40.9065C172.62 41.4258 172.429 42.078 172.851 42.449C172.851 46.7447 174.328 50.7592 175.312 54.9455C175.488 55.6914 176.203 56.3513 176.699 56.9371C177.312 57.5865 177.812 58.3335 178.179 59.1474C179.015 61.3187 177.863 63.8727 178.675 66.0518C179.019 66.9734 179.683 67.731 180.238 68.5315C180.969 69.4559 181.431 70.5639 181.574 71.7338C181.609 72.2571 181.542 72.7843 181.574 73.2958C181.626 73.9994 181.757 74.695 181.964 75.3695C182.298 76.6295 182.647 77.8883 183.011 79.1457C183.605 81.1764 184.378 83.3672 186.199 84.449C181.804 85.1948 177.171 85.9251 172.984 84.3982C172.4 84.199 171.845 83.9218 171.335 83.5742C169.824 82.4964 169.093 80.6531 168.441 78.9114C167.714 76.9589 166.976 74.9711 166.827 72.8936C166.829 72.2328 166.735 71.5753 166.55 70.941C166.124 69.8085 164.987 69.1251 163.956 68.4964C162.792 67.8585 161.737 67.0384 160.831 66.0674C160.382 65.5783 160.038 65.0022 159.82 64.3749C159.602 63.7475 159.516 63.0821 159.566 62.42C159.644 61.7756 159.898 61.1547 159.921 60.5064C159.944 59.8582 159.655 59.1162 159.034 58.9444C155.835 57.9759 154.308 54.1879 153.597 50.9232C153.29 49.2358 153.152 47.5221 153.186 45.8074L153.144 42.4763C152.702 42.0748 152.347 41.5876 152.1 41.0445C151.853 40.5013 151.719 39.9136 151.706 39.3171C151.748 38.969 151.742 38.6167 151.686 38.2705C151.532 37.8473 151.28 37.4661 150.952 37.1575C150.246 36.4328 149.654 35.6045 149.198 34.7012Z" fill="#464353"/>
<path d="M139.358 45.2608C139.253 46.2917 139.487 47.35 139.257 48.3615C139.167 48.752 139.01 49.1425 138.897 49.5057C138.551 50.9615 138.701 52.4912 139.323 53.8521C139.944 55.1997 140.688 56.4873 141.546 57.6987C141.836 58.1122 142.074 58.5594 142.257 59.0304C142.404 59.5249 142.496 60.0345 142.53 60.5495C142.756 62.6175 143.119 64.6682 143.616 66.6884C144.054 68.4379 149.022 83.3946 150.179 84.781C150.388 85.0879 150.707 85.3041 151.069 85.3863C151.331 85.3961 151.591 85.3425 151.827 85.2301L154.171 84.3319C154.37 84.2709 154.555 84.1699 154.714 84.0351C154.934 83.7785 155.053 83.4511 155.05 83.1135C155.218 81.2077 150.237 66.1456 149.604 64.3453C147.69 58.9093 145.143 53.6686 143.897 48.0413C143.55 46.4792 143.366 44.0736 142.221 42.8279C141.749 42.3124 141.909 42.5311 141.343 42.8005C141.056 42.9247 140.78 43.0696 140.514 43.234C140.183 43.4644 139.907 43.766 139.707 44.1166C139.507 44.4673 139.388 44.8582 139.358 45.2608Z" fill="#464353"/>
<path d="M146.472 55.5743C147.1 58.8976 147.749 62.213 148.393 65.5363L157.565 63.1346C157.64 62.174 157.128 61.2836 156.784 60.401C155.948 58.304 155.929 55.9687 155.253 53.813C154.741 52.1729 153.851 50.6655 153.37 49.0136C153.093 48.0529 152.952 47.061 152.679 46.0886C152.385 45.1337 152.025 44.2007 151.6 43.2965C151.086 41.9851 150.414 40.7407 149.6 39.5905C148.429 40.0278 147.179 40.5355 146.511 41.5938C146.168 42.1901 145.972 42.8595 145.94 43.5464C145.78 45.6044 146.526 47.6741 146.28 49.7204C146.027 51.6692 146.091 53.6462 146.472 55.5743Z" fill="#DBF6F0"/>
<path d="M157.718 99.7806C158.233 101.733 157.487 103.787 156.878 105.72C155.96 108.632 155.335 111.628 155.011 114.663C154.971 115.436 154.816 116.198 154.55 116.924C154.261 117.576 153.769 118.127 153.433 118.748C152.511 120.38 152.534 122.372 152.733 124.239C152.866 125.469 153.065 126.695 153.311 127.906C153.612 129.386 153.983 130.932 153.55 132.377C154.276 132.217 154.769 133.158 154.722 133.896C154.675 134.634 154.437 135.458 154.792 136.095C155.69 136.423 155.698 137.657 155.671 138.614C155.686 140.272 155.896 141.924 156.296 143.534C157.655 150.069 159.098 156.585 160.624 163.083C163.925 164.106 167.781 165.173 170.929 163.755C171.515 163.493 172.101 163.075 172.234 162.443C172.268 162.102 172.225 161.758 172.109 161.435L170.617 156.007C170.253 154.695 169.89 153.34 170.081 151.993C170.226 150.989 170.663 149.907 170.171 149.021C170.003 148.716 169.738 148.478 169.542 148.189C168.761 147.045 169.171 145.514 169.234 144.128C169.258 143.816 169.237 143.503 169.171 143.198C169.064 142.842 168.915 142.5 168.726 142.179C167.493 139.785 166.9 137.114 167.007 134.423C167.054 134.08 167.007 133.73 166.87 133.412C166.776 133.28 166.691 133.142 166.616 132.998C166.558 132.747 166.587 132.484 166.698 132.252C166.251 131.912 165.847 131.519 165.495 131.08C165.712 130.946 165.895 130.764 166.031 130.548C166.167 130.332 166.252 130.088 166.28 129.835C166.308 129.581 166.278 129.325 166.192 129.085C166.106 128.844 165.967 128.627 165.784 128.448C165.944 128.416 166.091 128.341 166.21 128.23C166.329 128.119 166.415 127.978 166.458 127.821C166.501 127.665 166.5 127.499 166.455 127.343C166.41 127.187 166.323 127.046 166.202 126.937C166.011 126.804 165.757 126.746 165.62 126.547C165.409 126.258 165.581 125.855 165.753 125.547L166.663 123.903C167.343 122.68 167.495 121.169 168.226 119.998C169.273 118.291 169.956 116.389 170.632 114.507L173.261 107.255L175.031 108.79C175.62 109.24 176.114 109.803 176.484 110.446C176.735 111.081 176.895 111.749 176.957 112.429C177.605 116.366 180.082 119.779 181 123.657C181.203 124.52 181.339 125.426 181.835 126.164C182.013 126.39 182.172 126.631 182.312 126.882C182.441 127.266 182.509 127.668 182.511 128.074C182.593 128.867 182.845 129.633 183.249 130.32C183.654 131.008 184.201 131.6 184.855 132.057C185.726 132.654 186.808 133.064 187.281 134.009C187.375 134.302 187.507 134.581 187.672 134.841C188.093 135.349 189.004 135.407 189.183 136.044C189.285 136.399 189.097 136.825 189.297 137.137C189.41 137.282 189.559 137.394 189.73 137.462L192.273 138.731C195.117 140.152 196.57 143.417 198.668 145.795C199.392 146.57 200.034 147.418 200.582 148.326C201.488 149.946 201.906 151.981 203.437 153.012C203.849 153.225 204.224 153.503 204.547 153.836C205.027 154.468 204.852 155.355 204.895 156.152C204.938 156.948 205.547 157.897 206.305 157.655C206.039 158.62 206.039 159.639 206.305 160.603C209.632 160.433 212.805 159.148 215.313 156.956C216.055 156.308 216.77 155.48 216.778 154.496C216.789 154.326 216.751 154.156 216.668 154.008C216.518 153.815 216.32 153.666 216.094 153.574C213.715 152.285 213 149.298 211.797 146.873C210.746 144.733 209.192 142.89 207.891 140.902C205.063 136.626 203.133 131.451 198.855 128.628C197.914 128.007 196.82 127.457 196.347 126.429C196.086 125.855 196.055 125.199 195.847 124.606C195.64 124.012 195.144 123.434 194.512 123.434C194.863 122.575 194.793 121.528 194.816 120.599C194.84 120.187 194.793 119.773 194.676 119.377C194.513 118.95 194.302 118.544 194.047 118.166C192.931 116.277 192.373 114.111 192.437 111.918C192.469 110.789 192.668 109.626 192.328 108.548C192.156 108.005 191.855 107.509 191.648 106.986C191.336 106.037 191.172 105.047 191.16 104.049L190.926 100.296C190.89 99.0463 190.728 97.8033 190.441 96.5862C189.66 93.673 188.879 81.4694 186.203 80.0947C183.527 78.7201 178.929 88.112 175.917 88.2956C174.585 88.351 173.268 88.6051 172.011 89.0493C170.007 89.7991 168.327 91.1971 166.691 92.5639L161.151 97.215C159.98 98.1795 159.011 99.1011 157.718 99.7806Z" fill="#464353"/>
<path d="M131.131 20.1077C132.35 18.4441 134.444 17.5615 136.507 17.4873C138.569 17.4131 140.6 18.0614 142.448 18.9791C142.993 19.2892 143.576 19.528 144.182 19.6899C145.159 19.889 146.245 19.6235 147.128 20.0804C148.3 20.7013 148.526 22.2829 148.425 23.595C148.323 24.9071 148.077 26.3638 148.776 27.5002C149.024 27.8243 149.25 28.1648 149.452 28.5194C149.753 29.195 149.577 29.976 149.397 30.6907C148.94 30.3002 148.683 29.7105 148.276 29.2575C147.87 28.8045 147.163 28.4999 146.659 28.8396C146.155 29.1794 146.163 29.7964 146.136 30.3509C146.108 30.9055 145.968 31.5693 145.444 31.749C145.226 31.7987 144.997 31.7818 144.788 31.7003C144.579 31.6189 144.4 31.4767 144.272 31.2921C143.378 30.1986 143.737 28.453 142.85 27.3518C142.347 26.7269 141.507 26.4223 141.042 25.7663C140.675 25.2508 140.581 24.5947 140.261 24.0402C139.94 23.4857 139.194 23.0795 138.698 23.4622C138.529 23.6239 138.387 23.8127 138.28 24.0207C137.971 24.4637 137.521 24.7894 137.003 24.9453C136.486 25.1012 135.931 25.0781 135.428 24.8798C135.044 24.6441 134.629 24.4639 134.194 24.3448C133.909 24.3306 133.627 24.3962 133.377 24.5342C133.128 24.6722 132.923 24.8771 132.784 25.1258C132.503 25.6227 132.368 26.1883 132.393 26.7582C132.393 27.5392 132.534 28.371 132.088 28.9958C131.919 29.2311 131.707 29.4324 131.463 29.5894C130.811 30.0073 129.901 30.2885 129.299 29.812C129.095 29.6222 128.944 29.3831 128.859 29.1177C128.774 28.8524 128.759 28.5697 128.815 28.2968C128.932 27.7533 129.086 27.2183 129.276 26.6957C129.62 25.4851 129.17 24.1222 129.545 22.9819C129.938 21.955 130.472 20.9876 131.131 20.1077Z" fill="#464353"/>
<path d="M136.081 47.6585C136.022 47.9432 136.052 48.2389 136.167 48.506C136.283 48.6878 136.441 48.8392 136.628 48.9472C137.941 49.7653 139.435 50.2494 140.979 50.357C141.189 50.3606 141.395 50.4142 141.581 50.5132C141.948 50.7553 141.971 51.2942 141.835 51.7238C141.652 52.129 141.558 52.5682 141.557 53.0125C141.671 53.8287 142.639 54.1841 143.456 54.3051C144.6 54.4496 145.854 54.3754 146.761 53.6608C147.374 53.101 147.842 52.3999 148.124 51.6184C150.366 46.4675 151.151 40.7737 153.421 35.6385C153.593 35.3032 153.708 34.9415 153.761 34.5685C153.785 34.3817 153.758 34.1919 153.684 34.0189C153.61 33.8458 153.491 33.6958 153.339 33.5844C152.917 33.3227 152.261 33.4711 151.976 33.0611C151.835 32.8541 151.85 32.5729 151.725 32.3542C151.464 31.8895 150.776 31.9637 150.307 31.6943C149.94 31.499 149.686 31.0968 149.276 31.0187C149.075 31.0073 148.874 31.043 148.689 31.123C148.503 31.203 148.339 31.3251 148.21 31.4795C146.878 32.7213 146.179 34.4825 145.436 36.1461C144.303 38.6962 142.976 41.1558 141.467 43.5035C141.643 43.2301 140.624 41.1604 140.225 41.0705C139.526 40.9299 138.631 42.1562 138.253 42.6131C137.064 44.0543 136.31 45.8045 136.081 47.6585Z" fill="#DBF6F0"/>
<path opacity="0.1" d="M150.272 32.0574C149.992 32.0621 149.716 32.1298 149.465 32.2555C149.214 32.3812 148.995 32.5618 148.823 32.7837C148.405 33.3265 148.323 34.0451 148.218 34.7363C147.862 36.9262 147.08 39.0251 145.917 40.9143" fill="black"/>
<path opacity="0.1" d="M152.265 33.6156C151.877 33.6242 151.499 33.7336 151.167 33.9328C150.834 34.1321 150.56 34.4144 150.37 34.752C150.111 35.3662 149.951 36.0172 149.893 36.6811C149.559 38.1532 148.913 39.5366 147.999 40.7386" fill="black"/>
<path d="M245.102 109.961V105.111C245.101 101.541 243.682 98.1169 241.156 95.5926C238.63 93.0682 235.205 91.6501 231.633 91.6501H40.032C36.4605 91.6501 33.0352 93.0682 30.5093 95.5926C27.9835 98.1169 26.564 101.541 26.563 105.111V114.054L245.102 109.961Z" fill="#33323D"/>
<path d="M93.3339 85.9642C93.3339 85.9642 92.787 119.884 98.8027 131.045C104.818 142.206 107.397 190.759 107.397 190.759C107.397 190.759 170.46 197.281 214.406 182.949C258.353 168.617 351.862 162.755 351.862 162.755L336.104 56.5779C336.104 56.5779 258.255 51.5871 213.969 72.7023C169.683 93.8175 93.3339 85.9642 93.3339 85.9642Z" fill="#8DD070"/>
<path opacity="0.1" d="M93.3339 85.9642C93.3339 85.9642 92.787 119.884 98.8027 131.045C104.818 142.206 107.397 190.759 107.397 190.759C107.397 190.759 170.46 197.281 214.406 182.949C258.353 168.617 351.862 162.755 351.862 162.755L336.104 56.5779C336.104 56.5779 258.255 51.5871 213.969 72.7023C169.683 93.8175 93.3339 85.9642 93.3339 85.9642Z" fill="black"/>
<path d="M107.291 98.3553C107.291 98.3553 105.318 126.344 110.268 135.286C115.217 144.229 115.447 184.152 115.447 184.152C115.447 184.152 172.202 186.784 212.574 173.045C252.946 159.307 337.784 150.395 337.784 150.395L328.143 63.5643C328.143 63.5643 257.946 62.8418 216.977 82.1802C176.007 101.518 107.291 98.3553 107.291 98.3553Z" fill="#8DD070"/>
<path opacity="0.1" d="M216.353 157.147C224.429 156.142 229.226 141.29 227.069 123.976C224.912 106.662 216.617 93.4408 208.541 94.4463C200.466 95.4518 195.668 110.303 197.826 127.617C199.983 144.932 208.278 158.153 216.353 157.147Z" fill="black"/>
<path opacity="0.2" d="M293.424 4.85413C293.424 4.85413 217.793 23.9894 182.128 57.6714C146.464 91.3533 71.3842 107.302 71.3842 107.302C71.3842 107.302 81.275 139.75 90.4236 148.529C99.5722 157.308 116.924 202.732 116.924 202.732C116.924 202.732 178.945 189.588 216.367 162.455C253.79 135.322 341.006 101.054 341.006 101.054L293.424 4.85413Z" fill="black"/>
<path d="M70.2474 102.444C70.2474 102.444 80.1343 134.896 89.2751 143.675C98.4159 152.453 115.776 197.874 115.776 197.874C115.776 197.874 177.804 184.733 215.231 157.6C252.657 130.467 339.866 96.2113 339.866 96.2113L292.283 0C292.283 0 216.656 19.1353 180.992 52.8172C145.327 86.4992 70.2474 102.444 70.2474 102.444Z" fill="#8DD070"/>
<path opacity="0.1" d="M70.2474 102.444C70.2474 102.444 80.1343 134.896 89.2751 143.675C98.4159 152.453 115.776 197.874 115.776 197.874C115.776 197.874 177.804 184.733 215.231 157.6C252.657 130.467 339.866 96.2113 339.866 96.2113L292.283 0C292.283 0 216.656 19.1353 180.992 52.8172C145.327 86.4992 70.2474 102.444 70.2474 102.444Z" fill="black"/>
<path d="M87.322 109.957C87.322 109.957 94.037 137.204 101.494 144.194C108.951 151.184 121.416 189.103 121.416 189.103C121.416 189.103 176.238 174.193 210.445 148.732C244.653 123.27 322.67 88.7993 322.67 88.7993L286.845 9.08728C286.845 9.08728 219.817 29.9291 186.758 60.9048C153.698 91.8805 87.322 109.957 87.322 109.957Z" fill="#8DD070"/>
<path opacity="0.1" d="M209.181 132.454C216.558 129.02 216.565 113.414 209.198 97.5965C201.83 81.7792 189.877 71.7408 182.499 75.175C175.122 78.6093 175.115 94.2158 182.483 110.033C189.851 125.85 201.804 135.889 209.181 132.454Z" fill="black"/>
<path opacity="0.1" d="M250.274 114.722V249.45C250.274 250.98 249.973 252.495 249.387 253.909C248.801 255.322 247.942 256.606 246.86 257.688C245.778 258.77 244.493 259.628 243.078 260.213C241.664 260.798 240.148 261.099 238.618 261.099H38.2234C35.1336 261.098 32.1707 259.87 29.9863 257.685C27.8018 255.501 26.5747 252.539 26.5747 249.45V101.14C32.317 103.272 32.317 103.272 38.2234 103.092H238.618C241.705 103.092 244.667 104.317 246.852 106.497C249.037 108.677 250.268 111.635 250.274 114.722Z" fill="black"/>
<path d="M250.274 116.436V251.164C250.273 254.254 249.045 257.217 246.859 259.401C244.673 261.586 241.709 262.813 238.618 262.813H38.2234C35.1336 262.812 32.1707 261.584 29.9863 259.4C27.8018 257.215 26.5747 254.253 26.5747 251.164V102.85C32.317 104.978 32.317 104.978 38.2234 104.803H238.618C241.706 104.803 244.668 106.028 246.853 108.209C249.039 110.39 250.269 113.349 250.274 116.436Z" fill="#504F60"/>
<path opacity="0.1" d="M249.704 166.246V209.332H207.906C202.241 209.256 196.834 206.953 192.855 202.921C188.876 198.889 186.645 193.453 186.645 187.789C186.645 182.125 188.876 176.689 192.855 172.658C196.834 168.626 202.241 166.323 207.906 166.246H249.704Z" fill="black"/>
<path d="M250.274 165.098V208.192H208.477C202.812 208.115 197.405 205.812 193.426 201.78C189.446 197.749 187.216 192.313 187.216 186.649C187.216 180.985 189.446 175.549 193.426 171.517C197.405 167.486 202.812 165.182 208.477 165.106L250.274 165.098Z" fill="#33323D"/>
<path opacity="0.1" d="M210.481 196.191C215.121 196.191 218.883 192.43 218.883 187.791C218.883 183.152 215.121 179.391 210.481 179.391C205.84 179.391 202.078 183.152 202.078 187.791C202.078 192.43 205.84 196.191 210.481 196.191Z" fill="black"/>
<path d="M211.051 195.051C215.692 195.051 219.453 191.29 219.453 186.651C219.453 182.012 215.692 178.251 211.051 178.251C206.41 178.251 202.648 182.012 202.648 186.651C202.648 191.29 206.41 195.051 211.051 195.051Z" fill="#DBF6F0"/>
<path d="M322.826 164.727C323.158 168.324 320.436 171.815 321.229 175.338C321.401 176.091 321.725 176.802 321.842 177.564C322.17 179.657 320.924 181.637 319.733 183.386L309.498 198.398C309.088 199.058 308.597 199.664 308.037 200.202C306.084 201.944 303.146 201.764 300.576 202.283C298.769 202.65 297.063 203.404 295.576 204.494C295.514 204.547 295.474 204.622 295.465 204.703C295.457 204.784 295.479 204.866 295.529 204.931C295.954 205.509 296.517 205.972 297.166 206.277C297.816 206.582 298.531 206.719 299.248 206.677C299.517 207.032 299.248 207.551 298.857 207.805C298.306 208.196 297.552 208.289 297.443 209.219C297.404 209.543 297.47 209.872 297.631 210.156C298.043 210.787 298.684 211.234 299.42 211.402C302.963 212.484 306.791 210.582 309.443 207.993C312.096 205.403 313.998 202.135 316.6 199.499C318.041 198.042 319.678 196.793 321.162 195.379C324.123 192.559 326.424 189.131 328.647 185.698C329.315 184.663 329.987 183.601 330.268 182.402C330.549 181.203 330.416 179.993 330.733 178.833C331.147 177.31 332.26 176.099 333.186 174.822C335.002 172.323 336.213 169.265 335.975 166.188C335.737 163.111 333.827 160.069 330.92 159.022C330.02 158.66 329.026 158.6 328.088 158.85C326.897 159.217 326.018 160.201 325.205 161.142L323.252 163.388C322.765 163.881 322.38 164.464 322.119 165.106C321.994 165.428 321.965 165.78 322.034 166.118C322.103 166.457 322.268 166.769 322.51 167.016" fill="#FBBEBE"/>
<path opacity="0.05" d="M322.826 164.727C323.158 168.324 320.436 171.815 321.229 175.338C321.401 176.091 321.725 176.802 321.842 177.564C322.17 179.657 320.924 181.637 319.733 183.386L309.498 198.398C309.088 199.058 308.597 199.664 308.037 200.202C306.084 201.944 303.146 201.764 300.576 202.283C298.769 202.65 297.063 203.404 295.576 204.494C295.514 204.547 295.474 204.622 295.465 204.703C295.457 204.784 295.479 204.866 295.529 204.931C295.954 205.509 296.517 205.972 297.166 206.277C297.816 206.582 298.531 206.719 299.248 206.677C299.517 207.032 299.248 207.551 298.857 207.805C298.306 208.196 297.552 208.289 297.443 209.219C297.404 209.543 297.47 209.872 297.631 210.156C298.043 210.787 298.684 211.234 299.42 211.402C302.963 212.484 306.791 210.582 309.443 207.993C312.096 205.403 313.998 202.135 316.6 199.499C318.041 198.042 319.678 196.793 321.162 195.379C324.123 192.559 326.424 189.131 328.647 185.698C329.315 184.663 329.987 183.601 330.268 182.402C330.549 181.203 330.416 179.993 330.733 178.833C331.147 177.31 332.26 176.099 333.186 174.822C335.002 172.323 336.213 169.265 335.975 166.188C335.737 163.111 333.827 160.069 330.92 159.022C330.02 158.66 329.026 158.6 328.088 158.85C326.897 159.217 326.018 160.201 325.205 161.142L323.252 163.388C322.765 163.881 322.38 164.464 322.119 165.106C321.994 165.428 321.965 165.78 322.034 166.118C322.103 166.457 322.268 166.769 322.51 167.016" fill="black"/>
<path d="M330.573 257.319C328.338 258.681 325.553 258.763 322.955 258.447C322.537 258.396 322.041 258.365 321.783 258.689C321.393 259.158 321.854 259.861 322.33 260.224C323.863 261.374 325.663 262.115 327.561 262.376C329.256 262.616 330.966 262.729 332.678 262.715C337.366 262.797 342.053 262.876 346.667 262.204C346.94 262.183 347.206 262.106 347.448 261.977C347.745 261.769 347.952 261.454 348.026 261.099C348.343 259.896 347.733 258.607 346.811 257.772C345.889 256.936 344.706 256.471 343.549 256.022L339.487 254.44C338.534 254.069 337.006 253.085 335.971 253.163C334.026 253.304 332.186 256.373 330.573 257.319Z" fill="#3F3D56"/>
<path opacity="0.05" d="M330.573 257.319C328.338 258.681 325.553 258.763 322.955 258.447C322.537 258.396 322.041 258.365 321.783 258.689C321.393 259.158 321.854 259.861 322.33 260.224C323.863 261.374 325.663 262.115 327.561 262.376C329.256 262.616 330.966 262.729 332.678 262.715C337.366 262.797 342.053 262.876 346.667 262.204C346.94 262.183 347.206 262.106 347.448 261.977C347.745 261.769 347.952 261.454 348.026 261.099C348.343 259.896 347.733 258.607 346.811 257.772C345.889 256.936 344.706 256.471 343.549 256.022L339.487 254.44C338.534 254.069 337.006 253.085 335.971 253.163C334.026 253.304 332.186 256.373 330.573 257.319Z" fill="black"/>
<path d="M333.42 203.404C331.729 205.653 329.979 208.25 330.397 211.035C330.624 212.534 331.463 213.858 332.081 215.244C332.917 217.127 333.354 219.15 333.784 221.165C334.417 224.109 335.053 227.061 335.44 230.053C335.881 233.431 333.807 243.205 333.616 246.607C333.569 247.427 333.471 248.313 332.901 248.903C332.678 249.137 332.381 249.325 332.28 249.629C332.22 249.923 332.269 250.228 332.417 250.488C333.37 252.636 335.319 254.237 337.495 255.151C339.671 256.065 344.917 257.643 347.288 257.725C347.6 257.759 347.917 257.718 348.21 257.604C348.525 257.411 348.774 257.126 348.921 256.787C350.62 253.538 348.987 241.987 349.011 238.32C349.034 235.262 349.757 232.224 349.624 229.17C349.514 226.718 348.843 224.32 348.62 221.875C348.229 217.869 348.964 213.842 349.702 209.883C350.264 206.844 350.831 203.806 351.554 200.807C351.995 198.976 352.507 197.128 353.507 195.539C354.288 194.278 355.386 193.223 356.296 192.024C358.822 188.713 359.945 184.542 359.421 180.41C359.366 180.02 353.561 181.883 353.05 182.105C350.962 182.989 349.041 184.224 347.37 185.757C346.026 187.037 344.968 188.748 343.792 190.181C342.128 192.209 340.484 194.252 338.862 196.308C337.01 198.659 335.197 201.024 333.42 203.404Z" fill="#464353"/>
<path opacity="0.05" d="M333.42 203.267C331.729 205.517 329.979 208.117 330.397 210.898C330.624 212.401 331.463 213.725 332.081 215.112C332.917 216.99 333.354 219.017 333.784 221.028C334.417 223.976 335.053 226.929 335.44 229.916C335.881 233.298 333.807 243.069 333.616 246.47C333.569 247.29 333.471 248.18 332.901 248.77C332.678 249.001 332.381 249.188 332.28 249.493C332.22 249.786 332.268 250.091 332.417 250.352C333.37 252.503 335.319 254.101 337.495 255.038C339.671 255.975 344.917 256.791 347.288 256.869C347.6 256.904 347.917 256.862 348.21 256.748C348.526 256.558 348.774 256.274 348.921 255.936C350.62 252.687 348.987 241.878 349.011 238.207C349.034 235.145 349.757 232.111 349.624 229.053C349.514 226.601 348.843 224.203 348.62 221.762C348.229 217.751 348.964 213.725 349.702 209.765C350.265 206.731 350.831 203.693 351.554 200.69C351.995 198.858 352.507 197.011 353.507 195.422C354.288 194.16 355.386 193.106 356.296 191.907C358.823 188.596 359.945 184.425 359.421 180.293C359.366 179.903 353.561 181.766 353.05 181.988C350.962 182.875 349.041 184.111 347.37 185.643C346.026 186.92 344.968 188.631 343.792 190.064C342.128 192.092 340.484 194.136 338.862 196.195C337.01 198.528 335.197 200.885 333.42 203.267Z" fill="black"/>
<path d="M314.6 153.863C319.836 153.863 324.08 149.62 324.08 144.385C324.08 139.151 319.836 134.908 314.6 134.908C309.364 134.908 305.119 139.151 305.119 144.385C305.119 149.62 309.364 153.863 314.6 153.863Z" fill="#FBBEBE"/>
<path d="M323.139 143.987C324.015 145.384 325.163 146.59 326.516 147.533C327.868 148.476 329.397 149.138 331.01 149.478L330.295 152.075C329.061 156.534 327.674 161.252 324.229 164.345C324.619 162.833 324.119 161.22 323.268 159.908C322.416 158.596 321.221 157.565 320.049 156.546L314.592 151.821C314.434 151.693 314.302 151.536 314.201 151.36C314.067 151.027 314.067 150.654 314.201 150.321C314.897 148.158 316.881 146.807 318.498 145.346C319.31 144.591 320.034 143.747 320.658 142.831C321.748 141.277 322.424 142.839 323.139 143.987Z" fill="#FBBEBE"/>
<path d="M302.111 134.857L301.896 133.076C303.393 133.467 304.814 132.193 305.771 130.877C306.729 129.561 307.615 128.011 309.072 127.46C310.842 126.797 312.717 127.851 314.408 128.741C316.302 129.792 318.38 130.468 320.53 130.733C320.872 130.744 321.212 130.799 321.541 130.897C322.643 131.287 323.166 132.67 323.327 133.923C323.487 135.177 323.444 136.509 323.987 137.626C324.377 138.473 325.104 139.102 325.549 139.937C326.721 142.179 325.588 145.245 326.811 147.443L323.772 144.659C323.494 144.405 323.104 144.139 322.795 144.354C322.553 144.526 322.534 144.897 322.436 145.194C322.143 146.061 321.057 146.318 320.272 145.975C319.487 145.631 318.912 144.885 318.319 144.206C316.975 142.62 315.373 141.226 313.498 140.551C312.676 140.243 311.798 140.114 310.923 140.172C310.047 140.23 309.194 140.474 308.42 140.886C307.002 141.687 305.963 143.554 304.225 143.62C301.842 143.71 300.85 139.274 299.748 137.52C300.151 137.217 300.435 136.782 300.549 136.29C300.663 135.799 300.601 135.283 300.373 134.833C300.533 134.767 302.076 134.583 302.111 134.857Z" fill="#464353"/>
<path d="M184.847 79.4465C184.086 80.1239 183.381 80.8632 182.742 81.6568C182.098 82.4616 181.755 83.4656 181.773 84.4959C181.776 84.7947 181.872 85.0851 182.046 85.3277C182.136 85.4438 182.259 85.5291 182.399 85.5718C182.539 85.6145 182.689 85.6125 182.828 85.5659C182.985 85.4859 183.119 85.3677 183.218 85.2223C183.631 84.7263 184.069 84.2518 184.531 83.8008C184.699 83.6329 184.921 83.4571 185.148 83.5196C185.25 83.5556 185.341 83.616 185.414 83.6953C185.676 83.9225 185.868 84.2209 185.964 84.5545C186.101 85.152 185.754 85.7495 185.359 86.2181C184.964 86.6867 184.5 87.1358 184.339 87.7255C184.279 87.8812 184.279 88.054 184.339 88.2097C184.415 88.3224 184.521 88.4116 184.644 88.4674C185.204 88.7753 185.824 88.9566 186.461 88.9984C187.098 89.0403 187.737 88.9417 188.332 88.7096C189.113 88.3932 189.808 87.8504 190.613 87.5693C190.961 87.4739 191.299 87.3431 191.621 87.1787C191.851 87.0256 192.049 86.8284 192.202 86.5985C192.356 86.3686 192.462 86.1105 192.515 85.8393C192.617 85.2972 192.637 84.7431 192.574 84.1952C192.477 82.0737 192.022 79.9839 191.23 78.0133C191.184 77.8862 191.106 77.7732 191.004 77.6853C190.886 77.6137 190.751 77.5771 190.613 77.5799C189.613 77.4744 187.972 76.9629 187.007 77.3338C186.67 77.5188 186.379 77.7778 186.156 78.0914C185.976 78.2906 184.847 79.1849 184.847 79.4465Z" fill="#A1616A"/>
<path d="M184.531 78.5639C184.531 77.6111 183.359 75.311 185.222 75.1587C185.222 74.1394 183.781 73.5068 184.05 72.425C184.136 72.0658 184.441 71.7729 184.476 71.4058C184.593 70.3631 182.711 69.7969 183.023 68.7972C183.14 68.4066 183.554 68.1801 183.644 67.7935C183.855 66.8914 182.242 66.4892 182.211 65.5637C182.211 65.2513 182.386 64.9584 182.371 64.646C182.371 64.2555 182.031 63.9587 181.843 63.6189C181.355 62.7481 181.593 61.4008 180.703 60.9517C181.293 61.0025 181.484 60.1277 181.242 59.5927C181 59.0577 180.503 58.593 180.5 57.9994C180.529 57.7843 180.529 57.5662 180.5 57.3511C180.336 56.781 179.402 56.7341 179.246 56.1796C179.225 55.9667 179.219 55.7528 179.226 55.5392C179.164 55.0979 178.71 54.8167 178.285 54.6917C177.842 54.6166 177.417 54.4646 177.027 54.2426C176.753 54.0357 176.437 53.692 176.144 53.8521C176.035 53.9185 175.98 54.0435 175.898 54.1372C175.546 54.5472 174.874 54.3676 174.433 54.0669C173.128 53.1804 172.48 51.591 172.203 50.0407C171.925 48.4903 171.933 46.8892 171.585 45.3545C171.479 44.8762 171.338 44.4063 171.163 43.9486C171.015 43.5581 170.538 42.945 170.507 42.5506C170.437 41.6524 172.296 42.2655 173.003 42.3553C173.69 42.4224 174.369 42.5531 175.031 42.7459C175.738 43.0128 176.43 43.3165 177.105 43.6558C179.925 44.9015 183.332 45.0538 185.597 47.147C186.343 47.8343 186.972 48.7364 187.941 49.0488C188.385 49.1339 188.824 49.2474 189.254 49.3885C190.328 49.8923 190.496 51.3177 191.082 52.3486C191.266 52.6209 191.427 52.9083 191.562 53.2078C191.675 53.5609 191.728 53.9306 191.719 54.3012L191.801 57.0075C191.933 61.5414 192.066 66.087 191.582 70.5935C191.426 72.0814 191.191 73.6122 191.633 75.0415C191.75 75.432 191.914 75.7991 192.023 76.1935C192.12 76.656 192.17 77.127 192.172 77.5994L192.234 79.3528C192.256 79.4891 192.225 79.6287 192.148 79.7433C192.083 79.7963 192.007 79.834 191.925 79.8536C191.843 79.8732 191.758 79.8742 191.676 79.8566C189.234 79.6379 186.765 78.2632 184.461 79.095" fill="#464353"/>
<path d="M295.947 213.292C311.903 213.292 324.838 211.423 324.838 209.117C324.838 206.812 311.903 204.943 295.947 204.943C279.991 204.943 267.056 206.812 267.056 209.117C267.056 211.423 279.991 213.292 295.947 213.292Z" fill="#504F60"/>
<path d="M320.803 209.32C320.295 207.145 319.979 205.236 319.979 205.236C319.979 205.236 320.096 202.869 319.033 201.092V200.499V196.125C319.336 195.331 319.706 194.564 320.139 193.832C320.92 192.458 320.139 187.42 320.139 187.42C320.139 187.42 317.221 180.317 317.928 175.81C318.635 171.304 311.936 155.8 311.936 155.8C311.977 154.305 312.188 152.819 312.564 151.372C312.636 151.067 312.665 150.755 312.65 150.442C312.65 150.403 312.65 150.368 312.65 150.329C312.65 150.29 312.65 150.352 312.65 150.364C312.549 147.392 310.197 141.824 310.197 141.824L310.514 131.209C310.514 131.209 312.014 124.961 309.568 116.546C308.713 113.613 308.166 111.266 307.818 109.454C307.779 109.251 307.74 109.063 307.709 108.864C312.744 108.083 316.592 107.458 316.592 107.458C316.592 107.458 313.67 95.239 311.697 93.0989C309.725 90.9589 308.146 84.2381 308.146 84.2381C308.146 84.2381 307.119 75.6116 308.779 73.0889C310.439 70.5662 310.674 66.2158 310.674 66.2158C310.674 66.2158 314.459 63.4822 314.936 62.2443C315.412 61.0064 316.197 58.2727 316.197 56.8239C316.197 55.3751 315.725 54.0903 315.881 53.3093C316.037 52.5283 314.775 49.6424 315.408 48.2677C315.572 47.8455 315.657 47.3968 315.658 46.9439C315.66 46.9309 315.66 46.9178 315.658 46.9048C315.664 45.7019 315.553 44.5013 315.326 43.3199C314.231 42.3956 312.953 41.7129 311.576 41.3166L311.494 40.9885L311.279 40.1294C311.159 40.0501 311.036 39.9772 310.908 39.9107V39.5983L310.873 38.3564L311.467 35.5682C312.639 30.718 306.158 29.9955 306.158 29.9955C305.765 29.2515 305.111 28.6786 304.322 28.3866C303.021 27.9297 304.107 35.6814 304.713 36.1969C305.17 36.5874 306.584 39.0008 307.268 40.1958L307.377 40.391C307.27 40.4872 307.171 40.5917 307.08 40.7035L307.326 42.3866L307.365 42.6443C306.936 43.1775 306.587 43.7709 306.33 44.4055C306.33 44.4055 307.502 45.702 307.279 47.1391C307.057 48.5762 307.643 50.3999 307.67 50.4976C307.6 50.4156 306.768 49.5174 305.935 49.7361C305.103 49.9548 302.779 50.6538 302.779 50.6538C302.779 50.6538 301.045 50.9584 301.217 51.3411C301.389 51.7238 300.045 53.403 300.045 53.403L295.381 48.9824C295.334 48.8496 295.283 48.7168 295.244 48.5919C295.054 47.9545 294.923 47.3008 294.853 46.6393C295.362 46.5185 295.86 46.3606 296.345 46.1668C296.836 45.9985 297.278 45.7145 297.635 45.3389C298.107 44.7804 298.197 44.0228 298.388 43.3277C298.756 41.9687 299.56 40.762 300.119 39.4694C301.065 37.2852 301.37 34.877 300.998 32.5261C300.926 31.8016 300.681 31.105 300.283 30.4954C299.521 29.4488 298.138 29.0231 297.135 28.1874C296.131 27.3517 295.482 26.0747 294.31 25.4538C293.252 24.8876 291.966 24.954 290.771 25.1492C288.436 25.5341 286.194 26.3498 284.158 27.5548C283.478 27.9453 282.728 28.4256 281.947 28.2811C281.275 28.1601 280.775 27.6251 280.353 27.1096C280.358 27.0883 280.364 27.0674 280.372 27.0471C280.353 27.0281 280.336 27.0072 280.322 26.9846C279.827 28.0814 279.579 29.273 279.595 30.4758C279.595 30.6633 279.595 30.8664 279.619 31.0343V31.2295C279.619 31.2842 279.619 31.3389 279.619 31.3897C279.618 31.4729 279.607 31.5557 279.583 31.6357C279.485 31.8746 279.336 32.0891 279.146 32.2644C279.003 32.4272 278.872 32.6009 278.755 32.7838C278.755 32.7213 278.794 32.6588 278.818 32.5924C278.52 33.0273 278.352 33.5379 278.333 34.0647C278.312 34.4481 278.437 34.8254 278.685 35.1191C278.919 35.3461 279.174 35.5501 279.447 35.7283C279.354 36.2438 279.307 36.7665 279.306 37.2903C279.315 38.8432 279.724 40.3676 280.495 41.716C281.265 43.0643 282.371 44.1911 283.705 44.9874C283.759 45.1163 283.81 45.249 283.861 45.3779C284.459 46.94 284.908 48.7754 284.709 50.4546C284.709 50.5757 284.673 50.7006 284.654 50.8217C284.634 50.9428 284.537 50.9506 284.486 51.017C284.486 51.017 276.779 51.0951 274.966 49.4549C273.154 47.8147 270.388 53.4655 270.388 53.4655C270.388 53.4655 267.626 54.0005 267.071 53.4655C266.517 52.9305 263.286 53.3913 263.286 53.3913C261.963 52.2146 260.24 51.5862 258.47 51.634C257.397 50.8189 256.213 50.1614 254.954 49.6814L254.868 49.6502C254.312 49.4477 253.718 49.3729 253.13 49.4315C253.13 49.4315 249.341 46.3074 248.235 44.6203C247.13 42.9333 241.868 36.7046 241.844 36.6772V36.3765L241.786 35.4705C241.629 35.4951 241.471 35.5081 241.313 35.5096C241.286 35.4198 241.247 35.3143 241.208 35.1933C240.905 34.3096 240.531 33.4516 240.09 32.6276C240.09 32.6276 240.09 31.4834 240.423 31.1944C240.755 30.9054 240.286 26.7074 240.286 26.7074C240.286 26.7074 236.872 18.7291 233.813 24.6845C233.813 24.6845 228.032 28.5389 232.883 33.0298C232.883 33.0298 234.836 33.9671 235.094 34.709C235.274 35.1894 235.93 36.5366 236.372 37.4426L236.571 37.8332L236.516 37.88L236.587 38.6298L236.618 38.9188C235.704 39.4382 235.083 39.9537 235.235 40.3403C235.504 41.0019 235.689 41.6946 235.786 42.4022C235.786 42.4022 242.497 50.8061 243.364 54.3949C243.364 54.3949 261.36 65.0872 267.278 65.8488L266.232 71.1793C266.079 72.6257 266.001 74.0791 265.997 75.5335C266.075 76.6777 265.286 81.8716 265.286 81.8716C265.286 81.8716 264.259 89.5101 263.392 90.5801C262.524 91.6501 262.681 96.2309 262.681 96.2309C262.476 98.4238 262.084 100.595 261.509 102.721C260.642 105.623 261.271 109.216 261.271 109.216C261.271 109.216 258.274 116.089 265.454 111.43C265.454 111.43 268.97 111.211 273.04 111.07C273.04 111.203 273.04 111.34 273.04 111.461C273.04 111.984 273.04 112.551 273.013 113.144C272.958 117.08 272.935 122.516 273.115 126.609C273.431 133.865 275.642 148.224 275.642 148.224V155.453C275.499 156.131 275.428 156.822 275.431 157.514C275.384 160.058 276.062 162.562 277.384 164.735L277.939 169.546C277.939 169.546 279.236 172.717 279.259 174.623C279.254 174.777 279.236 174.929 279.205 175.08C279.154 175.322 279.133 175.57 279.142 175.818C279.068 178.005 280.384 183.238 280.384 183.238C280.384 183.238 280.462 188.506 281.251 188.814C281.927 189.076 280.349 191.849 279.88 192.645C279.868 192.596 279.859 192.547 279.853 192.497L279.755 192.653C279.592 193.08 279.509 193.532 279.509 193.989C279.465 194.348 279.523 194.713 279.678 195.041C279.833 195.369 280.078 195.646 280.384 195.84C281.884 196.757 282.689 197.519 281.415 197.824C280.947 197.896 280.483 197.994 280.025 198.116C280.025 198.058 279.978 197.995 279.958 197.941C279.779 198.011 279.629 198.141 279.534 198.309C279.44 198.477 279.406 198.672 279.439 198.862C279.451 199.482 279.61 200.089 279.904 200.635C281.165 203.463 282.04 204.54 282.04 204.54L282.646 204.474C282.557 204.705 282.439 204.924 282.294 205.126C282.064 205.454 281.759 205.721 281.404 205.907C281.073 206.105 280.704 206.231 280.322 206.278C279.894 206.292 279.474 206.396 279.089 206.583C278.704 206.77 278.363 207.036 278.087 207.364C277.306 208.383 276.806 209.769 278.361 210.988L284.005 212.94C284.005 212.94 293.716 214.202 293.201 212.023C292.685 209.844 292.373 207.938 292.373 207.938C292.414 206.607 292.147 205.285 291.591 204.076C291.49 203.878 291.375 203.688 291.248 203.506L291.591 203.47C291.591 203.47 292.302 198.655 293.248 197.742C293.466 197.531 293.517 197.351 293.466 197.242C293.564 196.98 293.314 196.828 292.998 196.738L292.927 196.929C292.618 196.862 292.303 196.826 291.986 196.824C291.986 196.824 291.67 194.305 292.697 193.387C292.78 193.283 292.84 193.162 292.875 193.033C292.909 192.904 292.916 192.769 292.896 192.637C292.904 192.292 292.867 191.947 292.787 191.61C292.777 191.632 292.765 191.653 292.752 191.673C292.236 189.384 290.486 185.749 290.486 185.749C290.486 185.749 290.408 183.46 291.041 182.543C291.673 181.625 290.959 170.093 290.959 170.093C290.959 170.093 291.197 164.52 290.486 161.923C289.775 159.326 291.353 156.269 291.353 156.269C291.353 156.269 291.353 156.21 291.353 156.105V156.066L291.263 155.187C291.261 155.205 291.261 155.224 291.263 155.242C291.103 153.766 290.802 151.091 290.58 149.856C290.263 148.099 290.662 139.703 290.662 139.703L292.08 136.11L294.607 142.3L297.291 150.548C297.291 150.548 298.619 152.289 298.65 154.062C298.65 154.148 298.65 154.234 298.65 154.32C298.629 154.503 298.618 154.687 298.619 154.871C298.571 155.913 298.857 156.943 299.435 157.811C299.435 157.811 300.146 161.716 301.252 162.697C302.357 163.677 302.357 165.598 302.357 165.598C302.357 165.598 303.697 171.253 304.31 172.237C304.842 173.073 304.869 175.361 304.865 176.076C304.865 176.205 304.865 176.279 304.865 176.279C304.865 176.279 305.053 178.302 305.045 179.996C305.045 180.207 305.045 180.41 305.045 180.602C305.047 180.588 305.047 180.573 305.045 180.559C305.044 181.022 304.989 181.483 304.881 181.933L304.857 182.012C304.857 181.914 304.857 181.82 304.885 181.726C304.61 182.877 304.479 184.058 304.494 185.241C304.459 187.272 304.767 189.677 305.998 191.099C308.131 193.543 309.471 193.239 309.471 193.239C309.471 193.239 308.447 196.293 307.182 196.906C307.134 196.928 307.089 196.957 307.049 196.992C307.049 196.929 307.025 196.871 307.018 196.812C306.876 196.964 306.769 197.145 306.702 197.341C306.634 197.537 306.609 197.746 306.627 197.952C306.537 199.296 307.385 201.467 308.189 202.478C308.488 202.771 308.855 202.986 309.256 203.103C309.192 203.148 309.126 203.189 309.057 203.224C308.916 203.301 308.771 203.371 308.623 203.431C308.418 203.519 308.2 203.575 307.978 203.599C307.55 203.611 307.129 203.713 306.744 203.901C306.359 204.088 306.018 204.355 305.744 204.685C304.963 205.7 304.463 207.087 306.017 208.305L311.662 210.258C311.662 210.258 321.311 211.495 320.803 209.32Z" fill="url(#paint0_linear)"/>
<path d="M283.728 212.929L278.259 210.976C276.751 209.758 277.232 208.371 277.994 207.352C278.256 207.027 278.585 206.762 278.958 206.575C279.331 206.387 279.74 206.282 280.158 206.266C280.528 206.219 280.884 206.093 281.201 205.895C281.547 205.707 281.845 205.44 282.068 205.114C282.467 204.481 282.682 203.75 282.689 203.002C282.689 203.002 288.689 201.244 290.33 203.002C290.623 203.32 290.867 203.679 291.056 204.068C291.601 205.281 291.868 206.601 291.838 207.93C291.838 207.93 292.142 209.836 292.638 212.015C293.134 214.194 283.728 212.929 283.728 212.929Z" fill="#2D293D"/>
<path d="M310.463 210.234L304.994 208.282C303.486 207.063 303.967 205.677 304.728 204.661C304.989 204.335 305.316 204.069 305.689 203.882C306.062 203.694 306.472 203.59 306.889 203.576C307.105 203.554 307.316 203.497 307.514 203.408C307.658 203.347 307.799 203.278 307.936 203.201C309.463 202.361 309.424 200.299 309.424 200.299C309.424 200.299 315.42 198.542 317.065 200.299C317.285 200.537 317.477 200.799 317.639 201.08C318.666 202.857 318.553 205.228 318.553 205.228C318.553 205.228 318.858 207.137 319.334 209.312C319.811 211.488 310.463 210.234 310.463 210.234Z" fill="#2D293D"/>
<path opacity="0.1" d="M290.334 202.998C290.627 203.316 290.871 203.675 291.06 204.064L282.076 205.107C282.475 204.474 282.69 203.742 282.697 202.994C282.697 202.994 288.693 201.241 290.334 202.998Z" fill="black"/>
<path opacity="0.1" d="M317.647 201.088V202.771C316.248 205.071 309.486 204.568 307.521 203.416C307.666 203.355 307.807 203.286 307.943 203.209C309.471 202.369 309.432 200.307 309.432 200.307C309.432 200.307 315.428 198.55 317.072 200.307C317.293 200.545 317.485 200.807 317.647 201.088Z" fill="black"/>
<path d="M318.713 193.832C318.295 194.566 317.938 195.333 317.647 196.125V202.158C316.115 204.677 308.174 203.837 307.1 202.463C306.025 201.088 304.904 197.511 306.111 196.89C307.318 196.269 308.326 193.223 308.326 193.223C308.326 193.223 307.025 193.528 304.963 191.083C302.9 188.639 303.514 183.218 303.896 181.922C304.279 180.625 303.896 176.271 303.896 176.271C303.896 176.271 303.975 173.213 303.365 172.221C302.756 171.229 301.455 165.582 301.455 165.582C301.455 165.582 301.455 163.673 300.385 162.681C299.314 161.689 298.627 157.792 298.627 157.792C298.001 156.818 297.732 155.657 297.865 154.507C298.092 152.598 296.564 150.536 296.564 150.536L293.967 142.284L291.521 136.099L290.146 139.687C290.146 139.687 289.756 148.087 290.072 149.841C290.388 151.594 290.853 156.257 290.853 156.257C290.853 156.257 289.326 159.311 290.013 161.908C290.701 164.505 290.451 170.085 290.451 170.085C290.451 170.085 291.138 181.613 290.525 182.531C289.912 183.449 289.99 185.741 289.99 185.741C289.99 185.741 293.115 192.458 292.131 193.375C291.146 194.293 291.443 196.812 291.443 196.812C291.443 196.812 293.58 196.812 292.666 197.73C291.752 198.647 291.06 203.459 291.06 203.459L281.822 204.54C281.822 204.54 280.978 203.474 279.755 200.635C278.533 197.796 279.982 198.116 281.212 197.808C282.443 197.499 281.666 196.742 280.212 195.824C278.759 194.906 279.603 192.844 279.603 192.844C279.603 192.844 281.818 189.103 281.052 188.799C280.287 188.494 280.212 183.222 280.212 183.222C280.212 183.222 278.685 176.974 279.068 175.279C279.451 173.584 277.845 169.554 277.845 169.554L277.31 164.743C275.675 162.013 275.079 158.785 275.63 155.652V148.232C275.63 148.232 273.49 133.877 273.185 126.621C272.99 121.974 273.044 115.632 273.107 111.676C273.146 109.458 273.185 107.985 273.185 107.985L306.186 104.549C306.186 104.549 306.154 106.072 306.783 109.45C307.123 111.262 307.65 113.609 308.479 116.542C310.846 124.942 309.397 131.202 309.397 131.202L309.088 141.82C309.088 141.82 311.99 148.919 311.381 151.364C311.013 152.815 310.806 154.303 310.764 155.8C310.764 155.8 317.256 171.304 316.569 175.81C315.881 180.317 318.705 187.42 318.705 187.42C318.705 187.42 319.479 192.458 318.713 193.832Z" fill="#464353"/>
<path opacity="0.05" d="M299.845 154.047L309.893 152.707C309.893 152.707 304.201 158.514 299.845 154.047Z" fill="black"/>
<path opacity="0.1" d="M308.439 142.894C308.439 142.894 308.783 146.447 306.607 147.783C306.607 147.783 310.502 147.174 308.439 142.894Z" fill="black"/>
<path opacity="0.1" d="M307.822 131.592C307.822 131.592 299.424 138.504 296.369 137.93C293.314 137.356 307.822 131.592 307.822 131.592Z" fill="black"/>
<path opacity="0.1" d="M287.392 157.288C287.392 157.288 281.013 158.737 280.822 161.299C280.63 163.86 287.392 157.288 287.392 157.288Z" fill="black"/>
<path opacity="0.05" d="M288.794 189.138C288.794 189.138 279.783 190.818 282.341 191.962C284.9 193.106 289.103 194.024 289.103 194.024C289.103 194.024 292.013 194.176 288.794 189.138Z" fill="black"/>
<g opacity="0.05">
<path opacity="0.05" d="M280.521 193.782C280.294 193.64 280.103 193.449 279.96 193.224C279.817 192.998 279.727 192.743 279.697 192.477L279.603 192.637C279.603 192.637 278.763 194.699 280.216 195.613C280.38 195.719 280.541 195.824 280.685 195.926C280.955 195.875 281.244 195.836 281.521 195.765C282.751 195.461 281.974 194.699 280.521 193.782Z" fill="black"/>
<path opacity="0.05" d="M292.131 193.169C292.381 192.942 292.373 192.356 292.22 191.606C291.83 192.196 291.717 193.118 291.709 193.817C291.804 193.574 291.947 193.354 292.131 193.169Z" fill="black"/>
<path opacity="0.05" d="M290.744 155.175C290.412 156.079 290.207 157.024 290.135 157.983C290.309 157.32 290.543 156.675 290.834 156.054L290.744 155.175Z" fill="black"/>
<path opacity="0.05" d="M311.385 151.169C311.445 150.894 311.472 150.614 311.467 150.333C311.354 150.903 311.276 151.43 311.217 151.895C311.268 151.657 311.322 151.43 311.385 151.169Z" fill="black"/>
<path opacity="0.05" d="M290.529 182.328C290.654 182.14 290.724 181.508 290.756 180.629C290.473 181.309 290.323 182.037 290.314 182.773C290.368 182.617 290.44 182.467 290.529 182.328Z" fill="black"/>
<path opacity="0.05" d="M292.404 196.73C291.93 198.262 291.579 199.829 291.353 201.416L282.115 202.482C282.115 202.482 281.271 201.416 280.048 198.577C279.95 198.358 279.862 198.134 279.787 197.906C279.232 198.159 279.005 198.733 279.74 200.409C280.963 203.236 281.81 204.314 281.81 204.314L291.049 203.244C291.049 203.244 291.736 198.433 292.65 197.515C293.119 197.074 292.83 196.843 292.404 196.73Z" fill="black"/>
<path opacity="0.05" d="M280.216 183.015C280.216 183.015 280.291 188.283 281.056 188.588C281.447 187.717 281.701 186.889 281.357 186.752C280.576 186.448 280.517 181.176 280.517 181.176C280.517 181.176 278.99 174.928 279.373 173.233C279.755 171.538 278.15 167.508 278.15 167.508L277.615 162.697C275.98 159.966 275.384 156.739 275.935 153.605V146.186C275.935 146.186 273.794 131.83 273.49 124.575C273.294 119.927 273.349 113.585 273.412 109.629C273.412 108.915 273.435 108.282 273.447 107.747L273.185 107.775C273.185 107.775 273.142 109.243 273.107 111.465C273.044 115.421 272.986 121.763 273.185 126.406C273.49 133.662 275.626 148.021 275.626 148.021V155.441C275.078 158.574 275.676 161.799 277.31 164.528L277.841 169.339C277.841 169.339 279.447 173.385 279.064 175.068C278.681 176.751 280.216 183.015 280.216 183.015Z" fill="black"/>
<path opacity="0.05" d="M307.412 200.424C306.662 199.338 306.161 198.099 305.947 196.796C305.006 197.648 306.088 200.951 307.119 202.264C308.186 203.638 316.131 204.478 317.666 201.955V200.502C315.584 202.545 308.42 201.725 307.412 200.424Z" fill="black"/>
<path opacity="0.05" d="M319.022 191.794C318.603 192.527 318.245 193.294 317.951 194.086V195.168C318.127 194.778 318.373 194.254 318.733 193.637C318.974 193.036 319.089 192.391 319.069 191.743C319.069 191.743 319.033 191.778 319.022 191.794Z" fill="black"/>
<path opacity="0.05" d="M307.881 193.001C308.171 192.412 308.423 191.806 308.635 191.185C308.635 191.185 307.334 191.489 305.271 189.045C303.771 187.268 303.685 183.909 303.9 181.715C303.51 183.015 302.904 188.436 304.967 190.88C306.314 192.477 307.334 192.899 307.881 193.001Z" fill="black"/>
<path opacity="0.05" d="M303.896 176.064C304.031 177.569 304.082 179.08 304.049 180.59C304.087 180.352 304.139 180.116 304.205 179.883C304.596 178.583 304.205 174.232 304.205 174.232C304.205 174.232 304.283 171.175 303.67 170.183C303.057 169.191 301.779 163.536 301.779 163.536C301.779 163.536 301.779 161.627 300.709 160.635C299.639 159.643 298.951 155.745 298.951 155.745C298.32 154.773 298.044 153.613 298.17 152.461C298.4 150.552 296.873 148.49 296.873 148.49L294.275 140.242L291.83 134.056L290.451 137.649C290.451 137.649 290.451 138.102 290.404 138.82L291.521 135.903L293.967 142.077L296.564 150.325C296.564 150.325 298.092 152.387 297.861 154.297C297.735 155.449 298.011 156.609 298.642 157.581C298.642 157.581 299.33 161.486 300.4 162.47C301.471 163.454 301.467 165.372 301.467 165.372C301.467 165.372 302.768 171.022 303.377 172.01C303.986 172.998 303.896 176.064 303.896 176.064Z" fill="black"/>
</g>
<path d="M310.311 35.5564L309.736 38.3447L309.772 39.5865L309.795 40.5003L306.607 40.8284L306.252 40.1684C305.592 38.9734 304.221 36.5444 303.779 36.1695C303.189 35.6775 302.139 27.9218 303.389 28.3827C304.158 28.6798 304.79 29.2517 305.162 29.9877C305.162 29.9877 311.44 30.7062 310.311 35.5564Z" fill="#FFCDD3"/>
<path opacity="0.1" d="M309.795 40.5004L306.607 40.8284L306.252 40.1684C306.681 39.6805 307.265 39.3562 307.906 39.2508C308.547 39.1455 309.205 39.2655 309.768 39.5905L309.795 40.5004Z" fill="black"/>
<path d="M310.6 42.0117L306.397 42.9841L306.307 42.3593L306.068 40.6762C306.068 40.6762 307.732 38.458 310.139 40.1216L310.35 40.9769L310.6 42.0117Z" fill="#DBF6F0"/>
<path d="M242.512 35.861L238.024 38.2666L237.633 37.4231C237.208 36.5288 236.571 35.1815 236.395 34.6895C236.13 33.9475 234.258 33.0103 234.258 33.0103C229.571 28.5233 235.157 24.665 235.157 24.665C238.118 18.7096 241.407 26.6878 241.407 26.6878C241.407 26.6878 241.868 30.8937 241.544 31.1749C241.219 31.456 241.219 32.608 241.219 32.608C241.647 33.4334 242.009 34.2913 242.302 35.1737C242.438 35.5994 242.512 35.861 242.512 35.861Z" fill="#FFCDD3"/>
<path opacity="0.1" d="M242.512 35.861L238.024 38.2666L237.633 37.4231C238.266 36.892 240.512 35.08 241.251 35.1542C241.603 35.1982 241.959 35.2073 242.313 35.1815C242.438 35.5994 242.512 35.861 242.512 35.861Z" fill="black"/>
<path d="M242.969 37.2162L237.926 39.6998L237.825 38.6181L237.755 37.8683C237.755 37.8683 240.676 35.3651 241.54 35.4627C241.976 35.526 242.42 35.526 242.856 35.4627L242.915 36.3687L242.969 37.2162Z" fill="#DBF6F0"/>
<path d="M298.088 54.0786C298.088 54.0786 276.103 56.5584 280.212 55.2228C283.072 54.2895 284.208 52.4892 284.447 50.4585C284.642 48.7676 284.205 46.9439 283.63 45.3818C283.114 43.996 282.459 42.6656 281.677 41.4103C281.677 41.4103 298.474 32.1706 295.119 40.5706C294.601 41.8412 294.28 43.1829 294.166 44.55C294.065 45.9085 294.212 47.2741 294.599 48.5801C295.233 50.6993 296.44 52.6022 298.088 54.0786Z" fill="#FFCDD3"/>
<path opacity="0.1" d="M295.107 40.5589C294.59 41.8295 294.268 43.1712 294.154 44.5383C292.572 45.8699 290.838 45.7801 288.607 45.7801C286.896 45.7801 284.998 46.1941 283.63 45.3701C283.114 43.9843 282.459 42.6538 281.677 41.3985C281.677 41.3985 298.471 32.1589 295.107 40.5589Z" fill="black"/>
<path d="M288.31 46.3659C293.331 46.3659 297.4 42.2974 297.4 37.2786C297.4 32.2598 293.331 28.1913 288.31 28.1913C283.29 28.1913 279.22 32.2598 279.22 37.2786C279.22 42.2974 283.29 46.3659 288.31 46.3659Z" fill="#FFCDD3"/>
<path opacity="0.1" d="M298.088 54.0786C298.088 54.0786 276.103 56.5584 280.212 55.2228C283.072 54.2895 284.208 52.4892 284.447 50.4585C285.541 49.287 287.74 48.4161 289.134 47.9631C290.424 47.5297 291.816 47.5065 293.119 47.8967C293.631 48.051 294.119 48.2772 294.568 48.5684C295.209 50.6954 296.427 52.6029 298.088 54.0786Z" fill="black"/>
<path opacity="0.1" d="M310.6 42.0116L306.396 42.984L306.307 42.3592C306.757 41.7412 307.386 41.2769 308.11 41.0295C308.833 40.7822 309.615 40.7637 310.35 40.9768L310.6 42.0116Z" fill="black"/>
<path opacity="0.1" d="M242.969 37.2162L237.926 39.6999L237.825 38.6181C239.458 37.7401 241.156 36.9869 242.903 36.3649L242.969 37.2162Z" fill="black"/>
<path opacity="0.1" d="M306.783 109.458C298.263 110.817 286.154 112.55 284.232 111.965C282.634 111.48 277.54 111.531 273.107 111.684C273.146 109.465 273.185 107.993 273.185 107.993L306.185 104.557C306.185 104.557 306.154 106.08 306.783 109.458Z" fill="black"/>
<path d="M315.276 107.458C315.276 107.458 287.24 112.269 284.232 111.363C281.224 110.457 265.775 111.438 265.775 111.438C258.821 116.096 261.724 109.223 261.724 109.223C261.724 109.223 261.114 105.634 261.954 102.733C262.518 100.603 262.904 98.4291 263.107 96.2348C263.107 96.2348 262.954 91.6501 263.794 90.5801C264.634 89.5101 265.63 81.8755 265.63 81.8755C265.63 81.8755 266.392 76.6817 266.318 75.5374C266.243 74.3932 266.544 71.1832 266.544 71.1832L267.54 65.837C261.81 65.0755 244.391 54.3832 244.391 54.3832C243.552 50.7944 237.059 42.3944 237.059 42.3944C236.965 41.688 236.785 40.9957 236.524 40.3325C236.067 39.1102 242.942 36.6655 242.942 36.6655C242.942 36.6655 248.059 42.9138 249.13 44.6086C250.2 46.3035 253.864 49.4198 253.864 49.4198C254.433 49.3612 255.009 49.4361 255.544 49.6385L255.634 49.6658C256.862 50.1477 258.013 50.8054 259.052 51.6184C260.774 51.5775 262.446 52.2077 263.712 53.3757C263.712 53.3757 266.837 52.9149 267.38 53.4499C267.923 53.9849 270.587 53.4499 270.587 53.4499C270.587 53.4499 273.259 47.7991 275.017 49.4393C276.775 51.0795 284.232 51.0014 284.232 51.0014C285.224 49.6814 287.642 48.7364 289.154 48.2677C290.444 47.8361 291.835 47.8129 293.138 48.2014C293.701 48.3691 294.229 48.6334 294.701 48.9824L299.236 53.4108C299.236 53.4108 300.533 51.7277 300.381 51.3489C300.228 50.9701 301.908 50.6616 301.908 50.6616C301.908 50.6616 304.123 49.9743 304.963 49.7439C305.803 49.5135 306.572 50.4234 306.643 50.5054C306.615 50.4078 306.041 48.5528 306.252 47.147C306.463 45.7411 305.334 44.4134 305.334 44.4134C308.006 37.8449 314.041 43.3433 314.041 43.3433C314.041 43.3433 314.729 46.9322 314.119 48.3068C313.51 49.6814 314.729 52.5829 314.576 53.3484C314.424 54.1138 314.885 55.4103 314.885 56.863C314.885 58.3157 314.104 61.061 313.662 62.2833C313.221 63.5057 309.537 66.2549 309.537 66.2549C309.537 66.2549 309.307 70.6091 307.701 73.128C306.096 75.6468 307.104 84.2616 307.104 84.2616C307.104 84.2616 308.631 90.9823 310.541 93.1224C312.451 95.2624 315.276 107.458 315.276 107.458Z" fill="#3F3D56"/>
<path opacity="0.1" d="M274.408 57.2066C274.408 57.2066 273.568 54.6878 272.802 54.473C272.042 54.1935 271.302 53.862 270.587 53.4811L271.079 52.5399C271.079 52.5399 273.947 53.3209 274.408 54.1684C274.868 55.0158 274.408 57.2066 274.408 57.2066Z" fill="black"/>
<path opacity="0.1" d="M259.052 51.634C258.899 52.415 252.099 53.0828 252.099 53.0828L255.536 49.6384L255.622 49.6697C256.855 50.1542 258.01 50.8159 259.052 51.634Z" fill="black"/>
<path d="M239.38 41.7617C239.716 41.7617 239.989 41.489 239.989 41.1525C239.989 40.8161 239.716 40.5433 239.38 40.5433C239.043 40.5433 238.77 40.8161 238.77 41.1525C238.77 41.489 239.043 41.7617 239.38 41.7617Z" fill="#575988"/>
<path d="M240.161 42.984C240.497 42.984 240.77 42.7113 240.77 42.3748C240.77 42.0384 240.497 41.7656 240.161 41.7656C239.824 41.7656 239.551 42.0384 239.551 42.3748C239.551 42.7113 239.824 42.984 240.161 42.984Z" fill="#575988"/>
<path d="M240.927 44.1127C241.263 44.1127 241.536 43.8399 241.536 43.5035C241.536 43.167 241.263 42.8943 240.927 42.8943C240.59 42.8943 240.317 43.167 240.317 43.5035C240.317 43.8399 240.59 44.1127 240.927 44.1127Z" fill="#575988"/>
<path d="M241.727 45.3311C242.064 45.3311 242.337 45.0583 242.337 44.7219C242.337 44.3854 242.064 44.1127 241.727 44.1127C241.391 44.1127 241.118 44.3854 241.118 44.7219C241.118 45.0583 241.391 45.3311 241.727 45.3311Z" fill="#575988"/>
<path d="M313.736 45.1515C314.01 45.1515 314.233 44.9294 314.233 44.6555C314.233 44.3816 314.01 44.1595 313.736 44.1595C313.462 44.1595 313.24 44.3816 313.24 44.6555C313.24 44.9294 313.462 45.1515 313.736 45.1515Z" fill="#575988"/>
<path d="M313.815 46.28C314.089 46.28 314.311 46.058 314.311 45.784C314.311 45.5101 314.089 45.2881 313.815 45.2881C313.541 45.2881 313.318 45.5101 313.318 45.784C313.318 46.058 313.541 46.28 313.815 46.28Z" fill="#575988"/>
<path d="M313.881 47.4048C314.155 47.4048 314.377 47.1827 314.377 46.9088C314.377 46.6349 314.155 46.4128 313.881 46.4128C313.607 46.4128 313.385 46.6349 313.385 46.9088C313.385 47.1827 313.607 47.4048 313.881 47.4048Z" fill="#575988"/>
<path opacity="0.1" d="M274.435 77.904C274.361 77.8141 291.584 99.5541 304.951 86.9913C304.963 86.9952 283.841 89.8576 274.435 77.904Z" fill="black"/>
<path opacity="0.1" d="M264.552 89.2054C264.552 89.2054 274.857 89.4866 275.935 92.4506V95.5357C275.642 95.6985 275.311 95.7839 274.976 95.7839C274.64 95.7839 274.31 95.6985 274.017 95.5357C272.978 94.9734 266.747 91.8102 264.552 93.3332V89.2054Z" fill="black"/>
<path d="M264.743 89.2054C264.743 89.2054 274.599 89.4749 275.63 92.3022V95.2389C275.349 95.3948 275.033 95.4767 274.712 95.4767C274.391 95.4767 274.075 95.3948 273.794 95.2389C272.802 94.7078 266.845 91.6891 264.743 93.1418V89.2054Z" fill="#3F3D56"/>
<path opacity="0.1" d="M270.177 66.8368C271.23 69.273 272.572 71.574 274.173 73.6903C275.915 76.0296 278.026 78.07 280.423 79.7316C280.423 79.7316 270.349 68.2505 270.177 66.8368Z" fill="black"/>
<path opacity="0.1" d="M266.806 54.8674C266.806 54.8674 268.525 62.2872 272.954 64.806L266.806 54.8674Z" fill="black"/>
<path opacity="0.1" d="M264.169 55.6172C264.126 55.4805 262.642 61.4749 269.88 64.806C269.88 64.806 266.806 63.7633 264.169 55.6172Z" fill="black"/>
<path opacity="0.1" d="M309.166 50.642C309.053 50.642 312.736 52.9851 313.74 54.0786C313.74 54.0786 311.342 50.4858 309.166 50.642Z" fill="black"/>
<path d="M285.853 45.5145C285.854 45.7128 285.897 45.9086 285.978 46.0896C286.059 46.2706 286.176 46.4328 286.323 46.566C286.47 46.6993 286.643 46.8006 286.831 46.8636C287.019 46.9266 287.218 46.9499 287.416 46.9321C290.185 47.1039 293.072 47.225 295.619 46.1511C296.097 45.9806 296.526 45.6965 296.869 45.3232C297.322 44.7647 297.412 44.0071 297.595 43.312C297.955 41.953 298.721 40.7463 299.271 39.4537C300.203 37.2699 300.515 34.8716 300.174 32.5221C300.102 31.8019 299.864 31.1082 299.478 30.4953C298.744 29.4448 297.404 29.0192 296.431 28.1835C295.459 27.3478 294.834 26.0708 293.697 25.4498C292.674 24.8797 291.42 24.95 290.267 25.1452C288.001 25.53 285.829 26.3453 283.869 27.5469C283.209 27.9374 282.486 28.4178 281.728 28.2733C281.064 28.1483 280.58 27.5899 280.165 27.0666C279.633 28.3163 279.409 29.6759 279.513 31.0303C279.542 31.2291 279.535 31.4314 279.494 31.6278C279.398 31.8653 279.253 32.0797 279.068 32.2565C278.384 33.0376 277.958 34.3067 278.634 35.1112C278.927 35.4588 279.38 35.6501 279.665 36.0055C280.177 36.642 280.005 37.5675 279.994 38.3798C279.965 38.6634 280.037 38.948 280.197 39.1843C280.345 39.322 280.525 39.4192 280.722 39.4664C280.918 39.5136 281.124 39.5092 281.318 39.4537C281.705 39.3372 282.111 39.2987 282.513 39.3405C282.937 39.4782 283.302 39.753 283.552 40.1215C284.814 41.7656 285.314 43.5542 285.853 45.5145Z" fill="#2D293D"/>
<g opacity="0.1">
<path opacity="0.1" d="M297.193 44.632C296.85 45.0053 296.421 45.2894 295.943 45.4599C293.381 46.526 290.498 46.4049 287.74 46.2409C287.444 46.2439 287.151 46.1784 286.884 46.0496C286.463 45.8035 286.302 45.2881 286.174 44.8194C285.634 42.8669 285.138 41.0744 283.857 39.446C283.61 39.0703 283.244 38.7884 282.818 38.6454C282.416 38.6075 282.01 38.6459 281.623 38.7586C281.429 38.8147 281.224 38.8196 281.027 38.7731C280.831 38.7266 280.65 38.6301 280.502 38.4931C280.342 38.2568 280.27 37.9723 280.298 37.6886C280.298 36.8686 280.482 35.9508 279.97 35.3143C279.685 34.9589 279.232 34.7676 278.939 34.4161C278.748 34.157 278.631 33.8509 278.6 33.5305C278.569 33.21 278.625 32.8872 278.763 32.5963C278.275 33.3773 278.068 34.3575 278.634 35.0292C278.927 35.3768 279.38 35.5681 279.666 35.9235C280.177 36.564 280.005 37.4856 279.994 38.2978C279.964 38.5811 280.034 38.8658 280.193 39.1023C280.341 39.2407 280.523 39.3383 280.72 39.3855C280.917 39.4327 281.123 39.428 281.318 39.3718C281.705 39.2552 282.111 39.2167 282.513 39.2585C282.937 39.3962 283.302 39.671 283.552 40.0395C284.83 41.668 285.33 43.4565 285.869 45.4169C285.932 45.8993 286.173 46.3408 286.545 46.6549C286.812 46.7839 287.107 46.8481 287.404 46.8423C290.174 47.0141 293.06 47.1391 295.607 46.0613C296.086 45.892 296.515 45.6077 296.857 45.2334C297.03 45.0134 297.162 44.7649 297.248 44.4992C297.252 44.55 297.225 44.593 297.193 44.632Z" fill="black"/>
<path opacity="0.1" d="M279.513 31.3896C279.636 31.2564 279.73 31.0996 279.791 30.9288C279.826 30.7312 279.826 30.5289 279.791 30.3313C279.714 29.2179 279.859 28.1005 280.216 27.0432L280.165 26.9846C279.631 28.2324 279.407 29.5912 279.513 30.9444C279.525 31.0926 279.525 31.2415 279.513 31.3896Z" fill="black"/>
</g>
<path opacity="0.1" d="M284.232 51.0208C284.232 51.0208 295.588 52.5282 296.607 50.8217L284.232 51.0208Z" fill="black"/>
<path opacity="0.1" d="M306.307 46.323C306.307 46.323 312.619 46.323 314.006 48.6973L306.307 46.323Z" fill="black"/>
<path d="M341.624 257.26C339.751 258.933 337.318 259.842 334.807 259.806C334.167 259.806 333.28 259.927 333.276 260.568C333.291 260.756 333.356 260.936 333.463 261.091C334.256 262.412 335.508 263.395 336.979 263.852C338.346 264.266 339.807 264.196 341.233 264.121L345.393 263.907C346.175 263.864 346.956 263.825 347.737 263.727C348.518 263.629 349.37 263.469 350.186 263.336C352.192 263.051 354.221 262.957 356.245 263.055C356.784 263.075 357.417 263.055 357.737 262.665C358.058 262.274 357.894 261.528 357.772 260.943C357.522 259.736 357.772 258.471 357.542 257.26C357.151 255.136 355.311 253.507 353.296 252.738C351.421 252.027 348.1 251.211 346.327 252.398C344.456 253.644 343.311 255.725 341.624 257.26Z" fill="#3F3D56"/>
<path d="M345.757 186.085C346.124 187.83 347.815 189.166 347.862 190.947C347.905 192.376 346.886 193.575 346.151 194.797C345.459 196.063 344.875 197.385 344.405 198.749C343.022 202.301 341.306 205.713 339.28 208.942C338.303 210.504 337.21 212.171 337.432 213.987C337.588 214.836 337.888 215.652 338.319 216.4L341.249 222.219C341.89 223.381 342.393 224.614 342.745 225.894C342.999 226.999 343.022 228.143 343.171 229.268C343.632 232.837 345.307 236.43 344.315 239.89C344.229 240.187 343.925 240.546 343.686 240.339C344.655 242.147 345.432 243.967 345.358 246.017C345.319 247.091 344.991 248.212 345.386 249.212C345.553 249.629 345.846 250.02 345.843 250.469C345.843 250.766 345.706 251.043 345.675 251.332C345.593 252.156 346.35 252.843 347.136 253.105C347.921 253.367 348.776 253.347 349.569 253.585C351.093 254.042 352.183 255.354 353.476 256.264C354.802 257.178 356.365 257.686 357.976 257.729C358.205 257.753 358.437 257.707 358.64 257.596C358.754 257.496 358.847 257.372 358.91 257.233C358.973 257.094 359.006 256.944 359.007 256.791C359.078 256.062 358.968 255.327 358.687 254.65C358.406 253.973 357.964 253.375 357.397 252.91C357.149 252.754 356.944 252.54 356.8 252.285C356.727 252.059 356.708 251.82 356.745 251.586C356.981 248.385 356.923 245.169 356.573 241.979C356.415 240.968 356.364 239.943 356.421 238.921C356.503 238.07 356.761 237.227 356.667 236.379C356.573 235.532 356.14 234.759 355.886 233.942C355.433 232.49 355.558 230.928 355.495 229.408C355.417 226.769 354.811 224.176 354.21 221.598C353.972 220.587 353.71 219.528 352.995 218.779C352.386 218.142 351.401 217.533 351.632 216.685C351.759 216.373 351.949 216.09 352.19 215.854C352.473 215.499 352.681 215.09 352.8 214.652C352.92 214.214 352.949 213.757 352.886 213.307C353.143 213.373 353.414 213.347 353.654 213.235C353.895 213.122 354.088 212.93 354.202 212.69C358.96 210.445 362.796 205.954 364.507 200.975C364.608 200.605 364.763 200.252 364.968 199.928C365.409 199.311 366.175 199.046 366.855 198.706C368.988 197.632 370.46 195.621 371.812 193.653C372.593 192.512 373.374 191.333 373.726 189.99C373.911 189.121 373.998 188.234 373.988 187.346L374.109 182.757C374.135 182.455 374.106 182.151 374.023 181.859C373.907 181.587 373.738 181.34 373.527 181.133C372.227 179.759 370.521 178.839 368.659 178.509C367.409 178.286 366.132 178.329 364.866 178.224C362.413 178.02 359.991 177.259 357.538 177.442C353.683 177.728 350.249 180.399 348.432 183.812C347.796 185.015 347.124 186.061 345.757 186.085Z" fill="#464353"/>
<path d="M324.35 156.249C324.402 156.958 324.306 157.669 324.069 158.338C323.768 158.979 323.014 159.479 322.354 159.217C322.553 158.768 322.026 158.256 321.533 158.311C321.291 158.367 321.066 158.481 320.878 158.643C320.689 158.804 320.543 159.01 320.451 159.241C320.125 159.896 320.016 160.639 320.139 161.361C320.295 162.259 320.815 163.122 320.678 164.024C320.569 164.774 320.018 165.52 320.311 166.215C320.501 166.533 320.739 166.819 321.018 167.063C321.404 167.538 321.593 168.143 321.545 168.753C321.498 169.364 321.218 169.933 320.764 170.343L328.155 170.491C327.885 171.725 328.44 172.987 329.073 174.084C330.845 177.101 333.293 179.666 336.223 181.579C339.154 183.492 342.488 184.7 345.964 185.108C345.776 185.218 345.614 185.368 345.492 185.548C345.369 185.727 345.287 185.932 345.253 186.147C345.219 186.362 345.234 186.581 345.295 186.79C345.356 186.999 345.463 187.191 345.608 187.354C346.21 187.951 347.229 187.877 347.983 187.49C348.737 187.104 349.327 186.463 350.014 185.967C351.228 185.108 352.709 184.709 354.19 184.843C355.116 184.933 356.015 185.233 356.944 185.28C359.679 185.425 362.023 183.456 364.655 182.652C366.573 182.062 368.749 182.062 370.359 180.863C371.054 180.348 371.624 179.501 371.421 178.665C371.253 178.185 370.987 177.744 370.64 177.372C369.714 176.173 369.167 174.732 368.503 173.369C367.188 170.671 365.376 168.244 363.163 166.215C361.493 164.756 359.723 163.414 357.866 162.201C357.417 161.869 356.939 161.581 356.436 161.338C355.788 161.053 355.069 160.916 354.483 160.557C353.616 160.01 353.116 159.045 352.448 158.268C350.983 156.558 348.733 155.773 346.928 154.429C345.718 153.527 344.647 152.34 343.202 151.907C342.499 151.692 341.753 151.676 341.049 151.465C339.452 150.981 338.288 149.564 336.721 148.99C335.483 148.537 334.116 148.654 332.815 148.494C331.349 148.313 329.948 147.779 328.733 146.939C328.341 146.621 327.902 146.365 327.432 146.182C325.451 145.58 325.291 149.267 325.088 150.544C324.826 152.442 324.35 154.328 324.35 156.249Z" fill="#DBF6F0"/>
<path d="M326.28 168.613C326.612 172.214 323.893 175.701 324.686 179.227C324.854 179.977 325.178 180.692 325.295 181.453C325.627 183.542 324.377 185.522 323.186 187.272L312.951 202.287C312.54 202.946 312.05 203.552 311.49 204.091C309.537 205.829 306.6 205.653 304.029 206.169C302.224 206.54 300.519 207.293 299.029 208.379C298.962 208.431 298.918 208.507 298.906 208.591C298.895 208.675 298.916 208.76 298.967 208.828C299.391 209.406 299.953 209.868 300.602 210.173C301.251 210.478 301.966 210.616 302.682 210.574C302.951 210.925 302.682 211.449 302.31 211.702C301.764 212.093 301.006 212.183 300.896 213.116C300.859 213.44 300.925 213.768 301.084 214.053C301.498 214.683 302.139 215.128 302.873 215.295C306.416 216.381 310.244 214.475 312.897 211.886C315.549 209.297 317.451 206.028 320.053 203.396C321.494 201.936 323.131 200.69 324.616 199.276C327.577 196.453 329.881 193.028 332.1 189.595C332.768 188.56 333.444 187.498 333.721 186.299C333.999 185.101 333.87 183.886 334.186 182.726C334.6 181.207 335.713 179.993 336.639 178.719C338.456 176.22 339.671 173.162 339.428 170.081C339.186 167 337.28 163.962 334.374 162.915C333.472 162.557 332.48 162.497 331.542 162.743C330.35 163.111 329.471 164.095 328.659 165.04L326.705 167.281C326.23 167.778 325.857 168.363 325.608 169.003C325.482 169.326 325.452 169.678 325.521 170.018C325.59 170.357 325.756 170.669 325.998 170.917" fill="#FBBEBE"/>
<path d="M331.467 153.844C330.124 153.922 328.643 154.055 327.694 155.015C327.296 155.456 326.974 155.96 326.741 156.507C325.819 158.385 324.92 160.35 324.854 162.443C324.799 164.114 325.284 165.75 325.537 167.402C325.748 168.777 325.213 170.179 325.112 171.569C326.78 171.058 328.983 170.362 330.495 169.499C331.526 168.91 332.522 168.238 333.647 167.863C335.253 167.328 337.944 168.254 339.471 168.996C339.553 167.926 338.749 166.059 338.835 164.985C338.847 164.533 338.927 164.085 339.073 163.657C339.301 163.205 339.572 162.774 339.882 162.373C340.463 161.428 340.73 160.323 340.645 159.217C340.561 158.11 340.128 157.059 339.409 156.214C338.053 154.691 335.932 154.121 333.909 153.871C332.634 153.723 331.35 153.679 330.069 153.738" fill="#DBF6F0"/>
</g>
<defs>
<linearGradient id="paint0_linear" x1="275.872" y1="213.292" x2="275.872" y2="22.4625" gradientUnits="userSpaceOnUse">
<stop stop-color="#808080" stop-opacity="0.25"/>
<stop offset="0.54" stop-color="#808080" stop-opacity="0.12"/>
<stop offset="1" stop-color="#808080" stop-opacity="0.1"/>
</linearGradient>
<clipPath id="clip0">
<rect width="410" height="265" fill="white"/>
</clipPath>
</defs>
</svg>
